%TF.GenerationSoftware,KiCad,Pcbnew,(6.0.7)*%
%TF.CreationDate,2023-07-12T13:06:10-04:00*%
%TF.ProjectId,Stylophone,5374796c-6f70-4686-9f6e-652e6b696361,rev?*%
%TF.SameCoordinates,Original*%
%TF.FileFunction,Soldermask,Top*%
%TF.FilePolarity,Negative*%
%FSLAX46Y46*%
G04 Gerber Fmt 4.6, Leading zero omitted, Abs format (unit mm)*
G04 Created by KiCad (PCBNEW (6.0.7)) date 2023-07-12 13:06:10*
%MOMM*%
%LPD*%
G01*
G04 APERTURE LIST*
G04 Aperture macros list*
%AMRoundRect*
0 Rectangle with rounded corners*
0 $1 Rounding radius*
0 $2 $3 $4 $5 $6 $7 $8 $9 X,Y pos of 4 corners*
0 Add a 4 corners polygon primitive as box body*
4,1,4,$2,$3,$4,$5,$6,$7,$8,$9,$2,$3,0*
0 Add four circle primitives for the rounded corners*
1,1,$1+$1,$2,$3*
1,1,$1+$1,$4,$5*
1,1,$1+$1,$6,$7*
1,1,$1+$1,$8,$9*
0 Add four rect primitives between the rounded corners*
20,1,$1+$1,$2,$3,$4,$5,0*
20,1,$1+$1,$4,$5,$6,$7,0*
20,1,$1+$1,$6,$7,$8,$9,0*
20,1,$1+$1,$8,$9,$2,$3,0*%
%AMFreePoly0*
4,1,45,2.512662,7.087767,2.516726,7.088432,2.520033,7.086467,2.530782,7.084572,2.549099,7.069202,2.569656,7.056991,7.069656,1.556992,7.084947,1.529730,7.084757,1.514405,7.090000,1.500000,7.090000,-7.000000,7.087939,-7.011690,7.088633,-7.015628,7.086634,-7.019091,7.084572,-7.030782,7.069543,-7.048693,7.057851,-7.068944,7.050220,-7.071722,7.045000,-7.077942,7.021973,-7.082003,
7.000000,-7.090000,-7.000000,-7.090000,-7.011690,-7.087939,-7.015628,-7.088633,-7.019091,-7.086634,-7.030782,-7.084572,-7.048693,-7.069543,-7.068944,-7.057851,-7.071722,-7.050220,-7.077942,-7.045000,-7.082003,-7.021973,-7.090000,-7.000000,-7.090000,1.500000,-7.084572,1.530782,-7.074719,1.542524,-7.069656,1.556991,-2.569656,7.056991,-2.559911,7.065376,-2.557851,7.068944,-2.554235,7.070260,
-2.545963,7.077378,-2.522471,7.081821,-2.500000,7.090000,2.500000,7.090000,2.512662,7.087767,2.512662,7.087767,$1*%
%AMFreePoly1*
4,1,58,7.511690,15.087939,7.515628,15.088633,7.519091,15.086634,7.530782,15.084572,7.548693,15.069543,7.568944,15.057851,7.571722,15.050220,7.577942,15.045000,7.582003,15.021973,7.590000,15.000000,7.590000,-15.000000,7.587939,-15.011690,7.588633,-15.015628,7.586634,-15.019091,7.584572,-15.030782,7.569543,-15.048693,7.557851,-15.068944,7.550220,-15.071722,7.545000,-15.077942,7.521973,-15.082003,
7.500000,-15.090000,-7.500000,-15.090000,-7.511690,-15.087939,-7.515628,-15.088633,-7.519091,-15.086634,-7.530782,-15.084572,-7.548693,-15.069543,-7.568944,-15.057851,-7.571722,-15.050220,-7.577942,-15.045000,-7.582003,-15.021973,-7.590000,-15.000000,-7.590000,0.000000,-7.587939,0.011690,-7.588633,0.015628,-7.586634,0.019091,-7.584572,0.030782,-7.569543,0.048693,-7.557851,0.068944,-7.550220,0.071722,
-7.545000,0.077942,-7.521973,0.082003,-7.500000,0.090000,-5.042154,0.090000,-0.090000,6.032585,-0.090000,15.000000,-0.087939,15.011690,-0.088633,15.015628,-0.086634,15.019091,-0.084572,15.030782,-0.069543,15.048693,-0.057851,15.068944,-0.050220,15.071722,-0.045000,15.077942,-0.021973,15.082003,0.000000,15.090000,7.500000,15.090000,7.511690,15.087939,7.511690,15.087939,$1*%
%AMFreePoly2*
4,1,59,0.015347,6.087033,0.020445,6.087647,0.042347,6.073353,0.065682,6.061530,0.067700,6.056807,0.072000,6.054000,4.545000,0.090000,7.000000,0.090000,7.011690,0.087939,7.015628,0.088633,7.019091,0.086634,7.030782,0.084572,7.048693,0.069543,7.068944,0.057851,7.071722,0.050220,7.077942,0.045000,7.082003,0.021973,7.090000,0.000000,7.090000,-15.000000,7.087939,-15.011690,
7.088633,-15.015628,7.086634,-15.019091,7.084572,-15.030782,7.069543,-15.048693,7.057851,-15.068944,7.050220,-15.071722,7.045000,-15.077942,7.021973,-15.082003,7.000000,-15.090000,-7.000000,-15.090000,-7.011690,-15.087939,-7.015628,-15.088633,-7.019091,-15.086634,-7.030782,-15.084572,-7.048693,-15.069543,-7.068944,-15.057851,-7.071722,-15.050220,-7.077942,-15.045000,-7.082003,-15.021973,-7.090000,-15.000000,
-7.090000,0.000000,-7.087939,0.011690,-7.088633,0.015628,-7.086634,0.019091,-7.084572,0.030782,-7.069543,0.048693,-7.057851,0.068944,-7.050220,0.071722,-7.045000,0.077942,-7.021973,0.082003,-7.000000,0.090000,-4.545000,0.090000,-0.072000,6.054000,-0.049188,6.075369,-0.044188,6.076535,-0.040677,6.080283,-0.014710,6.083411,0.010765,6.089354,0.015347,6.087033,0.015347,6.087033,
$1*%
%AMFreePoly3*
4,1,58,0.011690,15.087939,0.015628,15.088633,0.019091,15.086634,0.030782,15.084572,0.048693,15.069543,0.068944,15.057851,0.071722,15.050220,0.077942,15.045000,0.082003,15.021973,0.090000,15.000000,0.090000,6.032585,5.042153,0.090000,7.500000,0.090000,7.511690,0.087939,7.515628,0.088633,7.519091,0.086634,7.530782,0.084572,7.548693,0.069543,7.568944,0.057851,7.571722,0.050220,
7.577942,0.045000,7.582003,0.021973,7.590000,0.000000,7.590000,-15.000000,7.587939,-15.011690,7.588633,-15.015628,7.586634,-15.019091,7.584572,-15.030782,7.569543,-15.048693,7.557851,-15.068944,7.550220,-15.071722,7.545000,-15.077942,7.521973,-15.082003,7.500000,-15.090000,-7.500000,-15.090000,-7.511690,-15.087939,-7.515628,-15.088633,-7.519091,-15.086634,-7.530782,-15.084572,-7.548693,-15.069543,
-7.568944,-15.057851,-7.571722,-15.050220,-7.577942,-15.045000,-7.582003,-15.021973,-7.590000,-15.000000,-7.590000,15.000000,-7.587939,15.011690,-7.588633,15.015628,-7.586634,15.019091,-7.584572,15.030782,-7.569543,15.048693,-7.557851,15.068944,-7.550220,15.071722,-7.545000,15.077942,-7.521973,15.082003,-7.500000,15.090000,0.000000,15.090000,0.011690,15.087939,0.011690,15.087939,$1*%
%AMFreePoly4*
4,1,6,1.000000,0.000000,0.500000,-0.750000,-0.500000,-0.750000,-0.500000,0.750000,0.500000,0.750000,1.000000,0.000000,1.000000,0.000000,$1*%
%AMFreePoly5*
4,1,6,0.500000,-0.750000,-0.650000,-0.750000,-0.150000,0.000000,-0.650000,0.750000,0.500000,0.750000,0.500000,-0.750000,0.500000,-0.750000,$1*%
G04 Aperture macros list end*
%TA.AperFunction,Profile*%
%ADD10C,0.100000*%
%TD*%
%ADD11RoundRect,0.250000X0.750000X-0.250000X0.750000X0.250000X-0.750000X0.250000X-0.750000X-0.250000X0*%
%ADD12FreePoly0,180.000000*%
%ADD13FreePoly1,0.000000*%
%ADD14RoundRect,0.250000X0.450000X-0.350000X0.450000X0.350000X-0.450000X0.350000X-0.450000X-0.350000X0*%
%ADD15C,1.300000*%
%ADD16C,2.250000*%
%ADD17C,1.500000*%
%ADD18RoundRect,0.250000X0.350000X0.450000X-0.350000X0.450000X-0.350000X-0.450000X0.350000X-0.450000X0*%
%ADD19RoundRect,0.250000X-0.350000X-0.450000X0.350000X-0.450000X0.350000X0.450000X-0.350000X0.450000X0*%
%ADD20RoundRect,0.250000X-0.337500X-0.475000X0.337500X-0.475000X0.337500X0.475000X-0.337500X0.475000X0*%
%ADD21RoundRect,0.150000X0.150000X-0.587500X0.150000X0.587500X-0.150000X0.587500X-0.150000X-0.587500X0*%
%ADD22RoundRect,0.250000X0.250000X0.750000X-0.250000X0.750000X-0.250000X-0.750000X0.250000X-0.750000X0*%
%ADD23C,2.700000*%
%ADD24RoundRect,0.237500X-0.237500X0.300000X-0.237500X-0.300000X0.237500X-0.300000X0.237500X0.300000X0*%
%ADD25RoundRect,0.150000X-0.587500X-0.150000X0.587500X-0.150000X0.587500X0.150000X-0.587500X0.150000X0*%
%ADD26FreePoly2,0.000000*%
%ADD27C,4.260000*%
%ADD28R,2.350000X1.550000*%
%ADD29RoundRect,0.250000X-0.450000X0.350000X-0.450000X-0.350000X0.450000X-0.350000X0.450000X0.350000X0*%
%ADD30RoundRect,0.237500X0.300000X0.237500X-0.300000X0.237500X-0.300000X-0.237500X0.300000X-0.237500X0*%
%ADD31RoundRect,0.237500X-0.300000X-0.237500X0.300000X-0.237500X0.300000X0.237500X-0.300000X0.237500X0*%
%ADD32FreePoly3,0.000000*%
%ADD33R,1.500000X1.500000*%
%ADD34R,1.500000X1.050000*%
%ADD35O,1.500000X1.050000*%
%ADD36RoundRect,0.250000X-1.500000X-0.550000X1.500000X-0.550000X1.500000X0.550000X-1.500000X0.550000X0*%
%ADD37RoundRect,0.250000X0.337500X0.475000X-0.337500X0.475000X-0.337500X-0.475000X0.337500X-0.475000X0*%
%ADD38R,1.200000X0.900000*%
%ADD39RoundRect,0.250000X-0.750000X0.250000X-0.750000X-0.250000X0.750000X-0.250000X0.750000X0.250000X0*%
%ADD40RoundRect,0.237500X0.237500X-0.300000X0.237500X0.300000X-0.237500X0.300000X-0.237500X-0.300000X0*%
%ADD41FreePoly4,270.000000*%
%ADD42FreePoly5,270.000000*%
%ADD43RoundRect,0.070000X-0.530000X0.280000X-0.530000X-0.280000X0.530000X-0.280000X0.530000X0.280000X0*%
%ADD44RoundRect,0.076000X-0.524000X0.304000X-0.524000X-0.304000X0.524000X-0.304000X0.524000X0.304000X0*%
%ADD45RoundRect,0.080000X-0.520000X0.320000X-0.520000X-0.320000X0.520000X-0.320000X0.520000X0.320000X0*%
%ADD46O,1.700000X1.100000*%
G04 APERTURE END LIST*
D10*
X26000000Y-85500000D02*
X120000000Y-85500000D01*
X26000000Y-85500000D02*
G75*
G03*
X22500000Y-89000000I0J-3500000D01*
G01*
X216000000Y-160480000D02*
X26000000Y-160500000D01*
X216000000Y-108720000D02*
X127000000Y-108740000D01*
X216000000Y-160480000D02*
G75*
G03*
X219500000Y-156980000I0J3500000D01*
G01*
X123500000Y-105240000D02*
G75*
G03*
X127000000Y-108740000I3500000J0D01*
G01*
X22500000Y-157000000D02*
G75*
G03*
X26000000Y-160500000I3500000J0D01*
G01*
X123500000Y-89000000D02*
X123500000Y-105240000D01*
X219500000Y-112220000D02*
G75*
G03*
X216000000Y-108720000I-3500000J0D01*
G01*
X22500000Y-89000000D02*
X22500000Y-157000000D01*
X123500000Y-89000000D02*
G75*
G03*
X120000000Y-85500000I-3500000J0D01*
G01*
X219500000Y-156980000D02*
X219500000Y-112220000D01*
D11*
%TO.C,J25*%
X120500000Y-101500000D03*
%TD*%
D12*
%TO.C,J9*%
X75000000Y-129000000D03*
%TD*%
D13*
%TO.C,J12*%
X98000000Y-137000000D03*
%TD*%
D14*
%TO.C,RP1*%
X68500000Y-108750000D03*
X68500000Y-106750000D03*
%TD*%
D15*
%TO.C,SW2*%
X45750000Y-88396360D03*
X43750000Y-88396360D03*
X41750000Y-88396360D03*
D16*
X47850000Y-88396360D03*
X39650000Y-88396360D03*
%TD*%
D17*
%TO.C,TPOS2*%
X60000000Y-96500000D03*
%TD*%
D18*
%TO.C,RL2*%
X212000000Y-119500000D03*
X210000000Y-119500000D03*
%TD*%
%TO.C,RL3*%
X199845000Y-119500000D03*
X197845000Y-119500000D03*
%TD*%
D19*
%TO.C,RL1*%
X203750000Y-117750000D03*
X205750000Y-117750000D03*
%TD*%
D20*
%TO.C,CMX1*%
X55682500Y-103550000D03*
X57757500Y-103550000D03*
%TD*%
D19*
%TO.C,RL18*%
X62500000Y-119500000D03*
X64500000Y-119500000D03*
%TD*%
D21*
%TO.C,Q4*%
X54550000Y-95737500D03*
X56450000Y-95737500D03*
X55500000Y-93862500D03*
%TD*%
D18*
%TO.C,RL10*%
X138000000Y-119500000D03*
X136000000Y-119500000D03*
%TD*%
D13*
%TO.C,J20*%
X160000000Y-137000000D03*
%TD*%
D22*
%TO.C,J3*%
X33500000Y-88500000D03*
%TD*%
D21*
%TO.C,Q3*%
X81300000Y-108187500D03*
X83200000Y-108187500D03*
X82250000Y-106312500D03*
%TD*%
D23*
%TO.C,H3*%
X216000000Y-156980000D03*
%TD*%
D19*
%TO.C,RL12*%
X121095000Y-119500000D03*
X123095000Y-119500000D03*
%TD*%
D18*
%TO.C,RL5*%
X185250000Y-119500000D03*
X183250000Y-119500000D03*
%TD*%
D21*
%TO.C,Q5*%
X44800000Y-104237500D03*
X46700000Y-104237500D03*
X45750000Y-102362500D03*
%TD*%
D19*
%TO.C,RL14*%
X101000000Y-119500000D03*
X103000000Y-119500000D03*
%TD*%
D17*
%TO.C,TPCAP1*%
X66750000Y-96500000D03*
%TD*%
%TO.C,TPVO3*%
X100000000Y-103000000D03*
%TD*%
D12*
%TO.C,J21*%
X152000000Y-129000000D03*
%TD*%
%TO.C,J6*%
X43000000Y-129000000D03*
%TD*%
D24*
%TO.C,CA1*%
X77000000Y-109887500D03*
X77000000Y-111612500D03*
%TD*%
D13*
%TO.C,J7*%
X51000000Y-137000000D03*
%TD*%
D18*
%TO.C,RL4*%
X192750000Y-119500000D03*
X190750000Y-119500000D03*
%TD*%
D14*
%TO.C,RD1*%
X72437500Y-105000000D03*
X72437500Y-103000000D03*
%TD*%
D23*
%TO.C,H2*%
X26000000Y-157000000D03*
%TD*%
D19*
%TO.C,RE3*%
X50750000Y-107050000D03*
X52750000Y-107050000D03*
%TD*%
D25*
%TO.C,Q2*%
X74812500Y-114050000D03*
X74812500Y-115950000D03*
X76687500Y-115000000D03*
%TD*%
D11*
%TO.C,J26*%
X120500000Y-104000000D03*
%TD*%
D18*
%TO.C,RB4*%
X42250000Y-107050000D03*
X40250000Y-107050000D03*
%TD*%
D26*
%TO.C,J17*%
X191500000Y-136990000D03*
%TD*%
D18*
%TO.C,RB3*%
X47500000Y-107050000D03*
X45500000Y-107050000D03*
%TD*%
D24*
%TO.C,CA2*%
X74000000Y-109887500D03*
X74000000Y-111612500D03*
%TD*%
D18*
%TO.C,ROS1*%
X42300000Y-98330000D03*
X40300000Y-98330000D03*
%TD*%
D17*
%TO.C,VR1*%
X91250000Y-100375000D03*
X93750000Y-100375000D03*
X96250000Y-100375000D03*
D27*
X89350000Y-93375000D03*
X98150000Y-93375000D03*
%TD*%
D28*
%TO.C,DAT1*%
X80750000Y-103000000D03*
X76450000Y-103000000D03*
%TD*%
D24*
%TO.C,CMB1*%
X79500000Y-93137500D03*
X79500000Y-94862500D03*
%TD*%
D26*
%TO.C,J24*%
X129500000Y-137000000D03*
%TD*%
%TO.C,J22*%
X144500000Y-137000000D03*
%TD*%
D18*
%TO.C,RL6*%
X173500000Y-119500000D03*
X171500000Y-119500000D03*
%TD*%
D29*
%TO.C,R1*%
X32750000Y-99500000D03*
X32750000Y-101500000D03*
%TD*%
D18*
%TO.C,RL8*%
X153095000Y-119500000D03*
X151095000Y-119500000D03*
%TD*%
D12*
%TO.C,J16*%
X199000000Y-129000000D03*
%TD*%
D20*
%TO.C,COS1*%
X38490693Y-95799856D03*
X40565693Y-95799856D03*
%TD*%
D23*
%TO.C,H4*%
X216000000Y-112220000D03*
%TD*%
D17*
%TO.C,TPVO1*%
X85000000Y-101250000D03*
%TD*%
D30*
%TO.C,CC1*%
X32612500Y-110500000D03*
X30887500Y-110500000D03*
%TD*%
D26*
%TO.C,J10*%
X82500000Y-137000000D03*
%TD*%
D17*
%TO.C,TPVO2*%
X81500000Y-115250000D03*
%TD*%
D31*
%TO.C,COS5*%
X38665693Y-104050000D03*
X40390693Y-104050000D03*
%TD*%
D19*
%TO.C,RL15*%
X89250000Y-119500000D03*
X91250000Y-119500000D03*
%TD*%
D32*
%TO.C,J19*%
X176000000Y-137000000D03*
%TD*%
D12*
%TO.C,J14*%
X122000000Y-129000000D03*
%TD*%
D23*
%TO.C,H6*%
X120000000Y-89000000D03*
%TD*%
D15*
%TO.C,SW1*%
X25500000Y-107500000D03*
X25500000Y-109500000D03*
X25500000Y-111500000D03*
D16*
X25500000Y-105400000D03*
X25500000Y-113600000D03*
%TD*%
D19*
%TO.C,RMX1*%
X60500000Y-103550000D03*
X62500000Y-103550000D03*
%TD*%
D33*
%TO.C,VR2*%
X107000000Y-100375000D03*
D17*
X109500000Y-100375000D03*
X112000000Y-100375000D03*
D27*
X105100000Y-93375000D03*
X113900000Y-93375000D03*
%TD*%
D19*
%TO.C,RL17*%
X74000000Y-119500000D03*
X76000000Y-119500000D03*
%TD*%
D34*
%TO.C,Q1*%
X64570000Y-109520000D03*
D35*
X64570000Y-108250000D03*
X64570000Y-106980000D03*
%TD*%
D19*
%TO.C,RL19*%
X53500000Y-119500000D03*
X55500000Y-119500000D03*
%TD*%
D17*
%TO.C,TPOS1*%
X36750000Y-91000000D03*
%TD*%
D13*
%TO.C,J15*%
X207000000Y-137000000D03*
%TD*%
D18*
%TO.C,ROS2*%
X47380000Y-98330000D03*
X45380000Y-98330000D03*
%TD*%
D36*
%TO.C,COS4*%
X60300000Y-91300000D03*
X65700000Y-91300000D03*
%TD*%
D15*
%TO.C,SW3*%
X81000000Y-88396360D03*
X77000000Y-88396360D03*
X75000000Y-88396360D03*
X73000000Y-88396360D03*
D16*
X83100000Y-88396360D03*
X70900000Y-88396360D03*
%TD*%
D37*
%TO.C,CC2*%
X32787500Y-112750000D03*
X30712500Y-112750000D03*
%TD*%
D14*
%TO.C,RFD1*%
X104250000Y-103500000D03*
X104250000Y-101500000D03*
%TD*%
D38*
%TO.C,DFB1*%
X116000000Y-101100000D03*
X116000000Y-104400000D03*
%TD*%
D32*
%TO.C,J13*%
X114000000Y-137000000D03*
%TD*%
D20*
%TO.C,COS3*%
X48962500Y-95790000D03*
X51037500Y-95790000D03*
%TD*%
D18*
%TO.C,RB2*%
X52460000Y-98330000D03*
X50460000Y-98330000D03*
%TD*%
D14*
%TO.C,RC2*%
X51750000Y-104550000D03*
X51750000Y-102550000D03*
%TD*%
D19*
%TO.C,RL16*%
X82000000Y-119500000D03*
X84000000Y-119500000D03*
%TD*%
D32*
%TO.C,J5*%
X35000000Y-137000000D03*
%TD*%
D24*
%TO.C,CLB2*%
X74000000Y-93137500D03*
X74000000Y-94862500D03*
%TD*%
D12*
%TO.C,J23*%
X137000000Y-129000000D03*
%TD*%
D39*
%TO.C,J4*%
X25400000Y-116840000D03*
%TD*%
D18*
%TO.C,RB1*%
X57500000Y-98330000D03*
X55500000Y-98330000D03*
%TD*%
D20*
%TO.C,COS2*%
X43882500Y-95790000D03*
X45957500Y-95790000D03*
%TD*%
D18*
%TO.C,RI2*%
X82250000Y-111750000D03*
X80250000Y-111750000D03*
%TD*%
D19*
%TO.C,RL21*%
X30000000Y-119500000D03*
X32000000Y-119500000D03*
%TD*%
D17*
%TO.C,TPVCC1*%
X35250000Y-106500000D03*
%TD*%
D19*
%TO.C,RP2*%
X81000000Y-98750000D03*
X83000000Y-98750000D03*
%TD*%
D38*
%TO.C,D1*%
X31000000Y-107400000D03*
X31000000Y-104100000D03*
%TD*%
D18*
%TO.C,RL7*%
X165000000Y-119500000D03*
X163000000Y-119500000D03*
%TD*%
D24*
%TO.C,CHB1*%
X84250000Y-93137500D03*
X84250000Y-94862500D03*
%TD*%
D23*
%TO.C,H5*%
X120000000Y-112240000D03*
%TD*%
D17*
%TO.C,TPMX1*%
X70000000Y-100500000D03*
%TD*%
D12*
%TO.C,J18*%
X184000000Y-129000000D03*
%TD*%
D40*
%TO.C,CLB1*%
X72000000Y-94862500D03*
X72000000Y-93137500D03*
%TD*%
D19*
%TO.C,RE2*%
X62250000Y-98300000D03*
X64250000Y-98300000D03*
%TD*%
%TO.C,RC1*%
X50460000Y-91750000D03*
X52460000Y-91750000D03*
%TD*%
D18*
%TO.C,RL9*%
X145595000Y-119500000D03*
X143595000Y-119500000D03*
%TD*%
D22*
%TO.C,J2*%
X31730000Y-88500000D03*
%TD*%
D23*
%TO.C,H1*%
X26000000Y-89000000D03*
%TD*%
D41*
%TO.C,JP1*%
X76750000Y-105775000D03*
D42*
X76750000Y-107225000D03*
%TD*%
D43*
%TO.C,J1*%
X29480000Y-97000000D03*
D44*
X29480000Y-99020000D03*
D45*
X29480000Y-100250000D03*
D43*
X29480000Y-98000000D03*
D44*
X29480000Y-95980000D03*
D45*
X29480000Y-94750000D03*
D46*
X25600000Y-93180000D03*
X29400000Y-101820000D03*
X25600000Y-101820000D03*
X29400000Y-93180000D03*
%TD*%
D12*
%TO.C,J11*%
X90000000Y-129000000D03*
%TD*%
D18*
%TO.C,RL11*%
X130750000Y-119500000D03*
X128750000Y-119500000D03*
%TD*%
D19*
%TO.C,RL13*%
X109500000Y-119500000D03*
X111500000Y-119500000D03*
%TD*%
D29*
%TO.C,R2*%
X35000000Y-99500000D03*
X35000000Y-101500000D03*
%TD*%
%TO.C,RI1*%
X71000000Y-110500000D03*
X71000000Y-112500000D03*
%TD*%
D19*
%TO.C,RL20*%
X42000000Y-119500000D03*
X44000000Y-119500000D03*
%TD*%
D32*
%TO.C,J8*%
X67000000Y-137000000D03*
%TD*%
M02*
