%TF.GenerationSoftware,KiCad,Pcbnew,(6.0.7)*%
%TF.CreationDate,2023-07-12T13:06:10-04:00*%
%TF.ProjectId,Stylophone,5374796c-6f70-4686-9f6e-652e6b696361,rev?*%
%TF.SameCoordinates,Original*%
%TF.FileFunction,Legend,Bot*%
%TF.FilePolarity,Positive*%
%FSLAX46Y46*%
G04 Gerber Fmt 4.6, Leading zero omitted, Abs format (unit mm)*
G04 Created by KiCad (PCBNEW (6.0.7)) date 2023-07-12 13:06:10*
%MOMM*%
%LPD*%
G01*
G04 APERTURE LIST*
%TA.AperFunction,Profile*%
%ADD10C,0.100000*%
%TD*%
%ADD11C,0.150000*%
%ADD12C,0.120000*%
%ADD13C,1.300000*%
%ADD14C,2.250000*%
%ADD15C,2.700000*%
%ADD16C,1.500000*%
%ADD17C,4.260000*%
%ADD18R,1.500000X1.500000*%
%ADD19R,1.500000X1.050000*%
%ADD20O,1.500000X1.050000*%
%ADD21O,1.700000X1.100000*%
%ADD22R,1.300000X2.000000*%
%ADD23R,2.000000X2.000000*%
G04 APERTURE END LIST*
D10*
X26000000Y-85500000D02*
X120000000Y-85500000D01*
X26000000Y-85500000D02*
G75*
G03*
X22500000Y-89000000I0J-3500000D01*
G01*
X216000000Y-160480000D02*
X26000000Y-160500000D01*
X216000000Y-108720000D02*
X127000000Y-108740000D01*
X216000000Y-160480000D02*
G75*
G03*
X219500000Y-156980000I0J3500000D01*
G01*
X123500000Y-105240000D02*
G75*
G03*
X127000000Y-108740000I3500000J0D01*
G01*
X22500000Y-157000000D02*
G75*
G03*
X26000000Y-160500000I3500000J0D01*
G01*
X123500000Y-89000000D02*
X123500000Y-105240000D01*
X219500000Y-112220000D02*
G75*
G03*
X216000000Y-108720000I-3500000J0D01*
G01*
X22500000Y-89000000D02*
X22500000Y-157000000D01*
X123500000Y-89000000D02*
G75*
G03*
X120000000Y-85500000I-3500000J0D01*
G01*
X219500000Y-156980000D02*
X219500000Y-112220000D01*
D11*
%TO.C,RV1*%
X53845238Y-86972380D02*
X54178571Y-86496190D01*
X54416666Y-86972380D02*
X54416666Y-85972380D01*
X54035714Y-85972380D01*
X53940476Y-86020000D01*
X53892857Y-86067619D01*
X53845238Y-86162857D01*
X53845238Y-86305714D01*
X53892857Y-86400952D01*
X53940476Y-86448571D01*
X54035714Y-86496190D01*
X54416666Y-86496190D01*
X53559523Y-85972380D02*
X53226190Y-86972380D01*
X52892857Y-85972380D01*
X52035714Y-86972380D02*
X52607142Y-86972380D01*
X52321428Y-86972380D02*
X52321428Y-85972380D01*
X52416666Y-86115238D01*
X52511904Y-86210476D01*
X52607142Y-86258095D01*
D12*
X55620000Y-88130000D02*
X55289000Y-88130000D01*
X55620000Y-88130000D02*
X55620000Y-92870000D01*
X50880000Y-88130000D02*
X50880000Y-92870000D01*
X53509000Y-88130000D02*
X52990000Y-88130000D01*
X52010000Y-92870000D02*
X50880000Y-92870000D01*
X51210000Y-88130000D02*
X50880000Y-88130000D01*
X55620000Y-92870000D02*
X54490000Y-92870000D01*
%TD*%
%LPC*%
D13*
%TO.C,SW2*%
X45750000Y-88396360D03*
X43750000Y-88396360D03*
X41750000Y-88396360D03*
D14*
X47850000Y-88396360D03*
X39650000Y-88396360D03*
%TD*%
D15*
%TO.C,H3*%
X216000000Y-156980000D03*
%TD*%
%TO.C,H2*%
X26000000Y-157000000D03*
%TD*%
D16*
%TO.C,VR1*%
X91250000Y-100375000D03*
X93750000Y-100375000D03*
X96250000Y-100375000D03*
D17*
X89350000Y-93375000D03*
X98150000Y-93375000D03*
%TD*%
D15*
%TO.C,H4*%
X216000000Y-112220000D03*
%TD*%
%TO.C,H6*%
X120000000Y-89000000D03*
%TD*%
D13*
%TO.C,SW1*%
X25500000Y-107500000D03*
X25500000Y-109500000D03*
X25500000Y-111500000D03*
D14*
X25500000Y-105400000D03*
X25500000Y-113600000D03*
%TD*%
D18*
%TO.C,VR2*%
X107000000Y-100375000D03*
D16*
X109500000Y-100375000D03*
X112000000Y-100375000D03*
D17*
X105100000Y-93375000D03*
X113900000Y-93375000D03*
%TD*%
D19*
%TO.C,Q1*%
X64570000Y-109520000D03*
D20*
X64570000Y-108250000D03*
X64570000Y-106980000D03*
%TD*%
D13*
%TO.C,SW3*%
X81000000Y-88396360D03*
X77000000Y-88396360D03*
X75000000Y-88396360D03*
X73000000Y-88396360D03*
D14*
X83100000Y-88396360D03*
X70900000Y-88396360D03*
%TD*%
D15*
%TO.C,H5*%
X120000000Y-112240000D03*
%TD*%
%TO.C,H1*%
X26000000Y-89000000D03*
%TD*%
D21*
%TO.C,J1*%
X25600000Y-93180000D03*
X29400000Y-101820000D03*
X25600000Y-101820000D03*
X29400000Y-93180000D03*
%TD*%
D22*
%TO.C,RV1*%
X52100000Y-88500000D03*
D23*
X53250000Y-92500000D03*
D22*
X54400000Y-88500000D03*
%TD*%
M02*
