M48
; DRILL file {KiCad (6.0.7)} date Wed Jul 12 13:06:07 2023
; FORMAT={-:-/ absolute / inch / decimal}
; #@! TF.CreationDate,2023-07-12T13:06:07-04:00
; #@! TF.GenerationSoftware,Kicad,Pcbnew,(6.0.7)
; #@! TF.FileFunction,Plated,1,4,PTH
FMAT,2
INCH
; #@! TA.AperFunction,Plated,PTH,ViaDrill
T1C0.0157
; #@! TA.AperFunction,Plated,PTH,ComponentDrill
T2C0.0236
; #@! TA.AperFunction,Plated,PTH,ComponentDrill
T3C0.0295
; #@! TA.AperFunction,Plated,PTH,ComponentDrill
T4C0.0315
; #@! TA.AperFunction,Plated,PTH,ComponentDrill
T5C0.0394
; #@! TA.AperFunction,Plated,PTH,ComponentDrill
T6C0.0591
; #@! TA.AperFunction,Plated,PTH,ComponentDrill
T7C0.1118
%
G90
G05
T1
X1.0925Y-4.6004
X1.1516Y-4.4587
X1.1811Y-3.4744
X1.3327Y-4.0581
X1.3484Y-4.4587
X1.3878Y-3.4744
X1.3878Y-4.2717
X1.5256Y-4.2736
X1.5315Y-3.939
X1.7382Y-3.9398
X1.9193Y-3.6516
X1.9291Y-4.2736
X1.9449Y-3.9398
X2.126Y-4.1457
X2.1358Y-4.2736
X2.2244Y-3.4843
X2.2441Y-3.6811
X2.313Y-3.939
X2.5787Y-3.939
X2.6476Y-4.3504
X2.7756Y-3.7894
X2.7928Y-4.1929
X2.8839Y-4.6063
X2.9724Y-3.7894
X3.061Y-3.7894
X3.0906Y-4.439
X3.2874Y-4.4685
X3.3366Y-4.311
X3.376Y-3.7894
X4.1831Y-4.1142
X4.498Y-4.1634
T3
X2.5421Y-4.2118
X2.5421Y-4.2618
X2.5421Y-4.3118
T4
X1.0039Y-4.2323
X1.0039Y-4.311
X1.0039Y-4.3898
X1.6437Y-3.4802
X1.7224Y-3.4802
X1.8012Y-3.4802
X2.874Y-3.4802
X2.9528Y-3.4802
X3.0315Y-3.4802
X3.189Y-3.4802
T5
X3.5925Y-3.9518
X3.6909Y-3.9518
X3.7894Y-3.9518
X4.2126Y-3.9518
X4.311Y-3.9518
X4.4094Y-3.9518
T6
X1.0039Y-4.1496
X1.0039Y-4.4724
X1.561Y-3.4802
X1.8839Y-3.4802
X2.7913Y-3.4802
X3.2717Y-3.4802
T7
X3.5177Y-3.6762
X3.8642Y-3.6762
X4.1378Y-3.6762
X4.4843Y-3.6762
T2
G00X1.0197Y-3.6685
M15
G01X0.9961Y-3.6685
M16
G05
G00X1.0197Y-4.0087
M15
G01X0.9961Y-4.0087
M16
G05
G00X1.1693Y-3.6685
M15
G01X1.1457Y-3.6685
M16
G05
G00X1.1693Y-4.0087
M15
G01X1.1457Y-4.0087
M16
G05
T0
M30
