%TF.GenerationSoftware,KiCad,Pcbnew,(6.0.7)*%
%TF.CreationDate,2023-07-28T14:32:25-04:00*%
%TF.ProjectId,Stylophone,5374796c-6f70-4686-9f6e-652e6b696361,rev?*%
%TF.SameCoordinates,Original*%
%TF.FileFunction,Copper,L2,Inr*%
%TF.FilePolarity,Positive*%
%FSLAX46Y46*%
G04 Gerber Fmt 4.6, Leading zero omitted, Abs format (unit mm)*
G04 Created by KiCad (PCBNEW (6.0.7)) date 2023-07-28 14:32:25*
%MOMM*%
%LPD*%
G01*
G04 APERTURE LIST*
G04 Aperture macros list*
%AMRoundRect*
0 Rectangle with rounded corners*
0 $1 Rounding radius*
0 $2 $3 $4 $5 $6 $7 $8 $9 X,Y pos of 4 corners*
0 Add a 4 corners polygon primitive as box body*
4,1,4,$2,$3,$4,$5,$6,$7,$8,$9,$2,$3,0*
0 Add four circle primitives for the rounded corners*
1,1,$1+$1,$2,$3*
1,1,$1+$1,$4,$5*
1,1,$1+$1,$6,$7*
1,1,$1+$1,$8,$9*
0 Add four rect primitives between the rounded corners*
20,1,$1+$1,$2,$3,$4,$5,0*
20,1,$1+$1,$4,$5,$6,$7,0*
20,1,$1+$1,$6,$7,$8,$9,0*
20,1,$1+$1,$8,$9,$2,$3,0*%
G04 Aperture macros list end*
%TA.AperFunction,Profile*%
%ADD10C,0.100000*%
%TD*%
%TA.AperFunction,ComponentPad*%
%ADD11C,2.250000*%
%TD*%
%TA.AperFunction,ComponentPad*%
%ADD12C,1.300000*%
%TD*%
%TA.AperFunction,ComponentPad*%
%ADD13C,0.850000*%
%TD*%
%TA.AperFunction,ComponentPad*%
%ADD14C,1.500000*%
%TD*%
%TA.AperFunction,ComponentPad*%
%ADD15C,4.260000*%
%TD*%
%TA.AperFunction,ComponentPad*%
%ADD16R,1.500000X1.500000*%
%TD*%
%TA.AperFunction,ComponentPad*%
%ADD17R,1.500000X1.050000*%
%TD*%
%TA.AperFunction,ComponentPad*%
%ADD18O,1.500000X1.050000*%
%TD*%
%TA.AperFunction,ComponentPad*%
%ADD19RoundRect,0.250000X0.625000X-0.350000X0.625000X0.350000X-0.625000X0.350000X-0.625000X-0.350000X0*%
%TD*%
%TA.AperFunction,ComponentPad*%
%ADD20O,1.750000X1.200000*%
%TD*%
%TA.AperFunction,ComponentPad*%
%ADD21O,1.700000X1.100000*%
%TD*%
%TA.AperFunction,ViaPad*%
%ADD22C,0.800000*%
%TD*%
G04 APERTURE END LIST*
D10*
X26000000Y-85500000D02*
X132974874Y-85500000D01*
X26000000Y-85500000D02*
G75*
G03*
X22500000Y-89000000I0J-3500000D01*
G01*
X216000000Y-160480000D02*
X26000000Y-160500000D01*
X216000000Y-108720000D02*
X139974874Y-108740000D01*
X216000000Y-160480000D02*
G75*
G03*
X219500000Y-156980000I0J3500000D01*
G01*
X136474900Y-105240000D02*
G75*
G03*
X139974874Y-108740000I3500000J0D01*
G01*
X22500000Y-157000000D02*
G75*
G03*
X26000000Y-160500000I3500000J0D01*
G01*
X136474874Y-89000000D02*
X136474874Y-105240000D01*
X219500000Y-112220000D02*
G75*
G03*
X216000000Y-108720000I-3500000J0D01*
G01*
X22500000Y-89000000D02*
X22500000Y-157000000D01*
X136474900Y-89000000D02*
G75*
G03*
X132974874Y-85500000I-3500000J0D01*
G01*
X219500000Y-156980000D02*
X219500000Y-112220000D01*
D11*
%TO.N,N/C*%
%TO.C,SW2*%
X39650000Y-88396360D03*
X47850000Y-88396360D03*
D12*
%TO.N,GND*%
X41750000Y-88396360D03*
%TO.N,Net-(COS3-Pad2)*%
X43750000Y-88396360D03*
%TO.N,unconnected-(SW2-Pad1)*%
X45750000Y-88396360D03*
%TD*%
D13*
%TO.N,N/C*%
%TO.C,J28*%
X123250000Y-96250000D03*
X123250000Y-89250000D03*
%TD*%
D14*
%TO.N,Net-(RP2-Pad2)*%
%TO.C,VR1*%
X91250000Y-100375000D03*
%TO.N,GND*%
X93750000Y-100375000D03*
%TO.N,unconnected-(VR1-Pad3)*%
X96250000Y-100375000D03*
D15*
%TO.N,unconnected-(VR1-PadMH1)*%
X89350000Y-93375000D03*
%TO.N,unconnected-(VR1-PadMH2)*%
X98150000Y-93375000D03*
%TD*%
D11*
%TO.N,N/C*%
%TO.C,SW1*%
X25500000Y-113600000D03*
X25500000Y-105400000D03*
D12*
%TO.N,unconnected-(SW1-Pad3)*%
X25500000Y-111500000D03*
%TO.N,Net-(D1-Pad2)*%
X25500000Y-109500000D03*
%TO.N,Net-(CC4-Pad1)*%
X25500000Y-107500000D03*
%TD*%
D16*
%TO.N,Net-(RFD1-Pad2)*%
%TO.C,VR2*%
X107000000Y-100375000D03*
D14*
%TO.N,Net-(Q3-Pad1)*%
X109500000Y-100375000D03*
%TO.N,Net-(Q2-Pad3)*%
X112000000Y-100375000D03*
D15*
%TO.N,unconnected-(VR2-PadMH1)*%
X105100000Y-93375000D03*
%TO.N,unconnected-(VR2-PadMH2)*%
X113900000Y-93375000D03*
%TD*%
D17*
%TO.N,RESISTOR_MODULE*%
%TO.C,Q1*%
X64570000Y-109520000D03*
D18*
%TO.N,VIB_SIG*%
X64570000Y-108250000D03*
%TO.N,Net-(DAT1-Pad2)*%
X64570000Y-106980000D03*
%TD*%
D11*
%TO.N,N/C*%
%TO.C,SW3*%
X70900000Y-88396360D03*
X83100000Y-88396360D03*
D12*
%TO.N,Net-(CLB1-Pad2)*%
X73000000Y-88396360D03*
%TO.N,Net-(CMB1-Pad1)*%
X75000000Y-88396360D03*
%TO.N,RESISTOR_MODULE*%
X77000000Y-88396360D03*
%TO.N,Net-(CHB1-Pad1)*%
X81000000Y-88396360D03*
%TD*%
D19*
%TO.N,Net-(CC3-Pad1)*%
%TO.C,J27*%
X129274874Y-103500000D03*
D20*
%TO.N,GND*%
X129274874Y-101500000D03*
%TD*%
D21*
%TO.N,GND*%
%TO.C,J1*%
X25600000Y-93180000D03*
X29400000Y-101820000D03*
X25600000Y-101820000D03*
X29400000Y-93180000D03*
%TD*%
D22*
%TO.N,GND*%
X32250000Y-116000000D03*
X38750000Y-108550000D03*
X75500000Y-96250000D03*
X70937500Y-106500000D03*
X57000000Y-118000000D03*
X70500000Y-96250000D03*
X85750000Y-96250000D03*
X36020000Y-87750000D03*
X41200000Y-114250000D03*
X66000000Y-112750000D03*
X37000000Y-93500000D03*
X73250000Y-117000000D03*
X54250000Y-108550000D03*
X44150000Y-100070000D03*
X27750000Y-115500000D03*
X77750000Y-96250000D03*
X33250000Y-108500000D03*
X49400000Y-100070000D03*
X129500000Y-98250000D03*
X29000000Y-105000000D03*
X38900000Y-100050000D03*
X117750000Y-90250000D03*
X65500000Y-100050000D03*
X46000000Y-117800000D03*
X41750000Y-116750000D03*
X78500000Y-112750000D03*
%TO.N,+5V*%
X48750000Y-92750000D03*
X106250000Y-104500000D03*
X83500000Y-113500000D03*
X58750000Y-100050000D03*
X67250000Y-110500000D03*
X84750000Y-109500000D03*
X71000000Y-118300000D03*
X54000000Y-105300000D03*
X30770000Y-87750000D03*
X49000000Y-108550000D03*
X27750000Y-117500000D03*
%TO.N,Net-(COS4-Pad1)*%
X56500000Y-88500000D03*
%TO.N,Net-(CC3-Pad1)*%
X53600000Y-110600000D03*
%TO.N,Net-(Q4-Pad2)*%
X57000000Y-93500000D03*
%TO.N,Net-(CC4-Pad1)*%
X65000000Y-115500000D03*
%TO.N,Net-(D1-Pad2)*%
X64000000Y-116500000D03*
%TD*%
%TA.AperFunction,Conductor*%
%TO.N,GND*%
G36*
X132944896Y-86010000D02*
G01*
X132959729Y-86012310D01*
X132959733Y-86012310D01*
X132968602Y-86013691D01*
X132987314Y-86011244D01*
X133010244Y-86010353D01*
X133280983Y-86024540D01*
X133294089Y-86025917D01*
X133526974Y-86062801D01*
X133590326Y-86072834D01*
X133603228Y-86075576D01*
X133892941Y-86153203D01*
X133905470Y-86157275D01*
X134032387Y-86205992D01*
X134185473Y-86264756D01*
X134197521Y-86270120D01*
X134464750Y-86406279D01*
X134476172Y-86412873D01*
X134727710Y-86576221D01*
X134738380Y-86583973D01*
X134953052Y-86757809D01*
X134971464Y-86772719D01*
X134981265Y-86781544D01*
X135193341Y-86993618D01*
X135202166Y-87003420D01*
X135390914Y-87236504D01*
X135398666Y-87247173D01*
X135562012Y-87498702D01*
X135568607Y-87510124D01*
X135704772Y-87777360D01*
X135710135Y-87789407D01*
X135795423Y-88011586D01*
X135817617Y-88069404D01*
X135821691Y-88081943D01*
X135868967Y-88258377D01*
X135899319Y-88371651D01*
X135902061Y-88384551D01*
X135948980Y-88680786D01*
X135950358Y-88693900D01*
X135963946Y-88953167D01*
X135964156Y-88957176D01*
X135962828Y-88983158D01*
X135961183Y-88993724D01*
X135962347Y-89002626D01*
X135962347Y-89002628D01*
X135965310Y-89025283D01*
X135966374Y-89041621D01*
X135966374Y-105190633D01*
X135964874Y-105210018D01*
X135961183Y-105233724D01*
X135962181Y-105241352D01*
X135962326Y-105244486D01*
X135962315Y-105245381D01*
X135962425Y-105246627D01*
X135969744Y-105404930D01*
X135979236Y-105610251D01*
X136030443Y-105977343D01*
X136031108Y-105980170D01*
X136031109Y-105980176D01*
X136057202Y-106091118D01*
X136115302Y-106338145D01*
X136116228Y-106340907D01*
X136116230Y-106340915D01*
X136138230Y-106406554D01*
X136233090Y-106689578D01*
X136382801Y-107028643D01*
X136563158Y-107352449D01*
X136772623Y-107658232D01*
X136774472Y-107660458D01*
X136774479Y-107660468D01*
X136968082Y-107893615D01*
X137009409Y-107943383D01*
X137271495Y-108205471D01*
X137556645Y-108442259D01*
X137726683Y-108558739D01*
X137837290Y-108634507D01*
X137862426Y-108651726D01*
X138050886Y-108756699D01*
X138166568Y-108821134D01*
X138186230Y-108832086D01*
X138188890Y-108833261D01*
X138188895Y-108833263D01*
X138323143Y-108892540D01*
X138525295Y-108981800D01*
X138528046Y-108982722D01*
X138528051Y-108982724D01*
X138873965Y-109098665D01*
X138873973Y-109098667D01*
X138876726Y-109099590D01*
X139237527Y-109184452D01*
X139604619Y-109235662D01*
X139607499Y-109235795D01*
X139607508Y-109235796D01*
X139796662Y-109244542D01*
X139943474Y-109251331D01*
X139953819Y-109252437D01*
X139957520Y-109252769D01*
X139962318Y-109253576D01*
X139968501Y-109253651D01*
X139970005Y-109253670D01*
X139970009Y-109253670D01*
X139974870Y-109253729D01*
X139979686Y-109253039D01*
X139979691Y-109253039D01*
X140002591Y-109249760D01*
X140020417Y-109248488D01*
X215950681Y-109228513D01*
X215970097Y-109230013D01*
X215984847Y-109232309D01*
X215984848Y-109232309D01*
X215993724Y-109233691D01*
X216012436Y-109231244D01*
X216035366Y-109230353D01*
X216306103Y-109244542D01*
X216319209Y-109245919D01*
X216534134Y-109279960D01*
X216615445Y-109292838D01*
X216628345Y-109295580D01*
X216706924Y-109316635D01*
X216918052Y-109373207D01*
X216930586Y-109377279D01*
X217156000Y-109463808D01*
X217210587Y-109484762D01*
X217222635Y-109490126D01*
X217489870Y-109626289D01*
X217501286Y-109632880D01*
X217752832Y-109796236D01*
X217763492Y-109803982D01*
X217972488Y-109973223D01*
X217996573Y-109992727D01*
X218006374Y-110001552D01*
X218218448Y-110213626D01*
X218227273Y-110223427D01*
X218373731Y-110404287D01*
X218416016Y-110456505D01*
X218423764Y-110467168D01*
X218586379Y-110717573D01*
X218587117Y-110718709D01*
X218593711Y-110730130D01*
X218729874Y-110997365D01*
X218735237Y-111009412D01*
X218840035Y-111282416D01*
X218842719Y-111289409D01*
X218846793Y-111301948D01*
X218871278Y-111393324D01*
X218924420Y-111591655D01*
X218927162Y-111604555D01*
X218974080Y-111900785D01*
X218975458Y-111913902D01*
X218989262Y-112177299D01*
X218987935Y-112203276D01*
X218987691Y-112204846D01*
X218987691Y-112204850D01*
X218986309Y-112213724D01*
X218987473Y-112222626D01*
X218987473Y-112222628D01*
X218990436Y-112245283D01*
X218991500Y-112261621D01*
X218991500Y-156930633D01*
X218990000Y-156950018D01*
X218987690Y-156964851D01*
X218987690Y-156964855D01*
X218986309Y-156973724D01*
X218988756Y-156992433D01*
X218989647Y-157015366D01*
X218989462Y-157018905D01*
X218975458Y-157286099D01*
X218974081Y-157299209D01*
X218971547Y-157315209D01*
X218927162Y-157595445D01*
X218924420Y-157608345D01*
X218846795Y-157898047D01*
X218842721Y-157910586D01*
X218787100Y-158055482D01*
X218735238Y-158190587D01*
X218729874Y-158202635D01*
X218719683Y-158222635D01*
X218593711Y-158469870D01*
X218587120Y-158481286D01*
X218423764Y-158732832D01*
X218416018Y-158743492D01*
X218339082Y-158838500D01*
X218227273Y-158976573D01*
X218218448Y-158986374D01*
X218006374Y-159198448D01*
X217996573Y-159207273D01*
X217763495Y-159396016D01*
X217752832Y-159403764D01*
X217501286Y-159567120D01*
X217489870Y-159573711D01*
X217222635Y-159709874D01*
X217210588Y-159715237D01*
X216930586Y-159822721D01*
X216918052Y-159826793D01*
X216773196Y-159865608D01*
X216628345Y-159904420D01*
X216615445Y-159907162D01*
X216534134Y-159920040D01*
X216319209Y-159954081D01*
X216306101Y-159955458D01*
X216230937Y-159959397D01*
X216042701Y-159969262D01*
X216016724Y-159967935D01*
X216015154Y-159967691D01*
X216015150Y-159967691D01*
X216006276Y-159966309D01*
X215974676Y-159970441D01*
X215958357Y-159971505D01*
X26049347Y-159991495D01*
X26029948Y-159989995D01*
X26015148Y-159987690D01*
X26015145Y-159987690D01*
X26006276Y-159986309D01*
X25987564Y-159988756D01*
X25964634Y-159989647D01*
X25693897Y-159975458D01*
X25680791Y-159974081D01*
X25465866Y-159940040D01*
X25384555Y-159927162D01*
X25371655Y-159924420D01*
X25226804Y-159885607D01*
X25081948Y-159846793D01*
X25069414Y-159842721D01*
X24789412Y-159735237D01*
X24777365Y-159729874D01*
X24510130Y-159593711D01*
X24498714Y-159587120D01*
X24247168Y-159423764D01*
X24236505Y-159416016D01*
X24221382Y-159403769D01*
X24003427Y-159227273D01*
X23993626Y-159218448D01*
X23781552Y-159006374D01*
X23772727Y-158996573D01*
X23660918Y-158858500D01*
X23583982Y-158763492D01*
X23576236Y-158752832D01*
X23412880Y-158501286D01*
X23406289Y-158489870D01*
X23270126Y-158222635D01*
X23264762Y-158210587D01*
X23261770Y-158202792D01*
X23157279Y-157930586D01*
X23153205Y-157918047D01*
X23121174Y-157798503D01*
X23075580Y-157628345D01*
X23072838Y-157615445D01*
X23052532Y-157487238D01*
X23025919Y-157319209D01*
X23024542Y-157306098D01*
X23010932Y-157046410D01*
X23011168Y-157042277D01*
X24137009Y-157042277D01*
X24162625Y-157310769D01*
X24163710Y-157315203D01*
X24163711Y-157315209D01*
X24220751Y-157548312D01*
X24226731Y-157572750D01*
X24327985Y-157822733D01*
X24391138Y-157930591D01*
X24452555Y-158035482D01*
X24464265Y-158055482D01*
X24467118Y-158059049D01*
X24616722Y-158246119D01*
X24632716Y-158266119D01*
X24829809Y-158450234D01*
X25051416Y-158603968D01*
X25055499Y-158605999D01*
X25055502Y-158606001D01*
X25171013Y-158663466D01*
X25292894Y-158724101D01*
X25297228Y-158725522D01*
X25297231Y-158725523D01*
X25544853Y-158806698D01*
X25544859Y-158806699D01*
X25549186Y-158808118D01*
X25553677Y-158808898D01*
X25553678Y-158808898D01*
X25811140Y-158853601D01*
X25811148Y-158853602D01*
X25814921Y-158854257D01*
X25818758Y-158854448D01*
X25898578Y-158858422D01*
X25898586Y-158858422D01*
X25900149Y-158858500D01*
X26068512Y-158858500D01*
X26070780Y-158858335D01*
X26070792Y-158858335D01*
X26201884Y-158848823D01*
X26269004Y-158843953D01*
X26273459Y-158842969D01*
X26273462Y-158842969D01*
X26527912Y-158786791D01*
X26527916Y-158786790D01*
X26532372Y-158785806D01*
X26672213Y-158732825D01*
X26780318Y-158691868D01*
X26780321Y-158691867D01*
X26784588Y-158690250D01*
X27020368Y-158559286D01*
X27234773Y-158395657D01*
X27254325Y-158375657D01*
X27420117Y-158206060D01*
X27423312Y-158202792D01*
X27582034Y-157984730D01*
X27665190Y-157826676D01*
X27705490Y-157750079D01*
X27705493Y-157750073D01*
X27707615Y-157746039D01*
X27710685Y-157737347D01*
X27795902Y-157496033D01*
X27795902Y-157496032D01*
X27797425Y-157491720D01*
X27834011Y-157306098D01*
X27848700Y-157231572D01*
X27848701Y-157231566D01*
X27849581Y-157227100D01*
X27850577Y-157207100D01*
X27859778Y-157022277D01*
X214137009Y-157022277D01*
X214162625Y-157290769D01*
X214163710Y-157295203D01*
X214163711Y-157295209D01*
X214225645Y-157548312D01*
X214226731Y-157552750D01*
X214327985Y-157802733D01*
X214391138Y-157910591D01*
X214434549Y-157984730D01*
X214464265Y-158035482D01*
X214483112Y-158059049D01*
X214584686Y-158186060D01*
X214632716Y-158246119D01*
X214829809Y-158430234D01*
X215051416Y-158583968D01*
X215055499Y-158585999D01*
X215055502Y-158586001D01*
X215095704Y-158606001D01*
X215292894Y-158704101D01*
X215297228Y-158705522D01*
X215297231Y-158705523D01*
X215544853Y-158786698D01*
X215544859Y-158786699D01*
X215549186Y-158788118D01*
X215553677Y-158788898D01*
X215553678Y-158788898D01*
X215811140Y-158833601D01*
X215811148Y-158833602D01*
X215814921Y-158834257D01*
X215818758Y-158834448D01*
X215898578Y-158838422D01*
X215898586Y-158838422D01*
X215900149Y-158838500D01*
X216068512Y-158838500D01*
X216070780Y-158838335D01*
X216070792Y-158838335D01*
X216201884Y-158828823D01*
X216269004Y-158823953D01*
X216273459Y-158822969D01*
X216273462Y-158822969D01*
X216527912Y-158766791D01*
X216527916Y-158766790D01*
X216532372Y-158765806D01*
X216658480Y-158718028D01*
X216780318Y-158671868D01*
X216780321Y-158671867D01*
X216784588Y-158670250D01*
X217020368Y-158539286D01*
X217234773Y-158375657D01*
X217423312Y-158182792D01*
X217582034Y-157964730D01*
X217634521Y-157864969D01*
X217705490Y-157730079D01*
X217705493Y-157730073D01*
X217707615Y-157726039D01*
X217710685Y-157717347D01*
X217795902Y-157476033D01*
X217795902Y-157476032D01*
X217797425Y-157471720D01*
X217833987Y-157286217D01*
X217848700Y-157211572D01*
X217848701Y-157211566D01*
X217849581Y-157207100D01*
X217849808Y-157202544D01*
X217862764Y-156942292D01*
X217862764Y-156942286D01*
X217862991Y-156937723D01*
X217837375Y-156669231D01*
X217799088Y-156512762D01*
X217774355Y-156411688D01*
X217773269Y-156407250D01*
X217672015Y-156157267D01*
X217549755Y-155948463D01*
X217538045Y-155928463D01*
X217538044Y-155928462D01*
X217535735Y-155924518D01*
X217417928Y-155777208D01*
X217370136Y-155717447D01*
X217370135Y-155717445D01*
X217367284Y-155713881D01*
X217170191Y-155529766D01*
X216948584Y-155376032D01*
X216944501Y-155374001D01*
X216944498Y-155373999D01*
X216779606Y-155291967D01*
X216707106Y-155255899D01*
X216702772Y-155254478D01*
X216702769Y-155254477D01*
X216455147Y-155173302D01*
X216455141Y-155173301D01*
X216450814Y-155171882D01*
X216446322Y-155171102D01*
X216188860Y-155126399D01*
X216188852Y-155126398D01*
X216185079Y-155125743D01*
X216173817Y-155125182D01*
X216101422Y-155121578D01*
X216101414Y-155121578D01*
X216099851Y-155121500D01*
X215931488Y-155121500D01*
X215929220Y-155121665D01*
X215929208Y-155121665D01*
X215798116Y-155131177D01*
X215730996Y-155136047D01*
X215726541Y-155137031D01*
X215726538Y-155137031D01*
X215472088Y-155193209D01*
X215472084Y-155193210D01*
X215467628Y-155194194D01*
X215341520Y-155241972D01*
X215219682Y-155288132D01*
X215219679Y-155288133D01*
X215215412Y-155289750D01*
X214979632Y-155420714D01*
X214765227Y-155584343D01*
X214762034Y-155587609D01*
X214762032Y-155587611D01*
X214742481Y-155607611D01*
X214576688Y-155777208D01*
X214417966Y-155995270D01*
X214415844Y-155999304D01*
X214294510Y-156229921D01*
X214294507Y-156229927D01*
X214292385Y-156233961D01*
X214290865Y-156238266D01*
X214290863Y-156238270D01*
X214225621Y-156423019D01*
X214202575Y-156488280D01*
X214150419Y-156752900D01*
X214150192Y-156757453D01*
X214150192Y-156757456D01*
X214137353Y-157015368D01*
X214137009Y-157022277D01*
X27859778Y-157022277D01*
X27862764Y-156962292D01*
X27862764Y-156962286D01*
X27862991Y-156957723D01*
X27837375Y-156689231D01*
X27792042Y-156503967D01*
X27774355Y-156431688D01*
X27773269Y-156427250D01*
X27672015Y-156177267D01*
X27575005Y-156011586D01*
X27538045Y-155948463D01*
X27538044Y-155948462D01*
X27535735Y-155944518D01*
X27417928Y-155797208D01*
X27370136Y-155737447D01*
X27370135Y-155737445D01*
X27367284Y-155733881D01*
X27170191Y-155549766D01*
X26948584Y-155396032D01*
X26944501Y-155394001D01*
X26944498Y-155393999D01*
X26779606Y-155311967D01*
X26707106Y-155275899D01*
X26702772Y-155274478D01*
X26702769Y-155274477D01*
X26455147Y-155193302D01*
X26455141Y-155193301D01*
X26450814Y-155191882D01*
X26446322Y-155191102D01*
X26188860Y-155146399D01*
X26188852Y-155146398D01*
X26185079Y-155145743D01*
X26173817Y-155145182D01*
X26101422Y-155141578D01*
X26101414Y-155141578D01*
X26099851Y-155141500D01*
X25931488Y-155141500D01*
X25929220Y-155141665D01*
X25929208Y-155141665D01*
X25798116Y-155151177D01*
X25730996Y-155156047D01*
X25726541Y-155157031D01*
X25726538Y-155157031D01*
X25472088Y-155213209D01*
X25472084Y-155213210D01*
X25467628Y-155214194D01*
X25352181Y-155257933D01*
X25219682Y-155308132D01*
X25219679Y-155308133D01*
X25215412Y-155309750D01*
X24979632Y-155440714D01*
X24765227Y-155604343D01*
X24576688Y-155797208D01*
X24417966Y-156015270D01*
X24415844Y-156019304D01*
X24294510Y-156249921D01*
X24294507Y-156249927D01*
X24292385Y-156253961D01*
X24290865Y-156258266D01*
X24290863Y-156258270D01*
X24211161Y-156483967D01*
X24202575Y-156508280D01*
X24150419Y-156772900D01*
X24150192Y-156777453D01*
X24150192Y-156777456D01*
X24137778Y-157026833D01*
X24137009Y-157042277D01*
X23011168Y-157042277D01*
X23012505Y-157018915D01*
X23013576Y-157012552D01*
X23013729Y-157000000D01*
X23009773Y-156972376D01*
X23008500Y-156954514D01*
X23008500Y-117500000D01*
X26836496Y-117500000D01*
X26837186Y-117506565D01*
X26849228Y-117621134D01*
X26856458Y-117689928D01*
X26915473Y-117871556D01*
X27010960Y-118036944D01*
X27138747Y-118178866D01*
X27293248Y-118291118D01*
X27299276Y-118293802D01*
X27299278Y-118293803D01*
X27461681Y-118366109D01*
X27467712Y-118368794D01*
X27561113Y-118388647D01*
X27648056Y-118407128D01*
X27648061Y-118407128D01*
X27654513Y-118408500D01*
X27845487Y-118408500D01*
X27851939Y-118407128D01*
X27851944Y-118407128D01*
X27938887Y-118388647D01*
X28032288Y-118368794D01*
X28038319Y-118366109D01*
X28186803Y-118300000D01*
X70086496Y-118300000D01*
X70106458Y-118489928D01*
X70165473Y-118671556D01*
X70260960Y-118836944D01*
X70388747Y-118978866D01*
X70543248Y-119091118D01*
X70549276Y-119093802D01*
X70549278Y-119093803D01*
X70711681Y-119166109D01*
X70717712Y-119168794D01*
X70811112Y-119188647D01*
X70898056Y-119207128D01*
X70898061Y-119207128D01*
X70904513Y-119208500D01*
X71095487Y-119208500D01*
X71101939Y-119207128D01*
X71101944Y-119207128D01*
X71188888Y-119188647D01*
X71282288Y-119168794D01*
X71288319Y-119166109D01*
X71450722Y-119093803D01*
X71450724Y-119093802D01*
X71456752Y-119091118D01*
X71611253Y-118978866D01*
X71739040Y-118836944D01*
X71834527Y-118671556D01*
X71893542Y-118489928D01*
X71913504Y-118300000D01*
X71901181Y-118182749D01*
X71894232Y-118116635D01*
X71894232Y-118116633D01*
X71893542Y-118110072D01*
X71834527Y-117928444D01*
X71739040Y-117763056D01*
X71611253Y-117621134D01*
X71456752Y-117508882D01*
X71450724Y-117506198D01*
X71450722Y-117506197D01*
X71288319Y-117433891D01*
X71288318Y-117433891D01*
X71282288Y-117431206D01*
X71188887Y-117411353D01*
X71101944Y-117392872D01*
X71101939Y-117392872D01*
X71095487Y-117391500D01*
X70904513Y-117391500D01*
X70898061Y-117392872D01*
X70898056Y-117392872D01*
X70811113Y-117411353D01*
X70717712Y-117431206D01*
X70711682Y-117433891D01*
X70711681Y-117433891D01*
X70549278Y-117506197D01*
X70549276Y-117506198D01*
X70543248Y-117508882D01*
X70388747Y-117621134D01*
X70260960Y-117763056D01*
X70165473Y-117928444D01*
X70106458Y-118110072D01*
X70105768Y-118116633D01*
X70105768Y-118116635D01*
X70098819Y-118182749D01*
X70086496Y-118300000D01*
X28186803Y-118300000D01*
X28200722Y-118293803D01*
X28200724Y-118293802D01*
X28206752Y-118291118D01*
X28361253Y-118178866D01*
X28489040Y-118036944D01*
X28584527Y-117871556D01*
X28643542Y-117689928D01*
X28650773Y-117621134D01*
X28662814Y-117506565D01*
X28663504Y-117500000D01*
X28643542Y-117310072D01*
X28584527Y-117128444D01*
X28489040Y-116963056D01*
X28361253Y-116821134D01*
X28206752Y-116708882D01*
X28200724Y-116706198D01*
X28200722Y-116706197D01*
X28038319Y-116633891D01*
X28038318Y-116633891D01*
X28032288Y-116631206D01*
X27938887Y-116611353D01*
X27851944Y-116592872D01*
X27851939Y-116592872D01*
X27845487Y-116591500D01*
X27654513Y-116591500D01*
X27648061Y-116592872D01*
X27648056Y-116592872D01*
X27561113Y-116611353D01*
X27467712Y-116631206D01*
X27461682Y-116633891D01*
X27461681Y-116633891D01*
X27299278Y-116706197D01*
X27299276Y-116706198D01*
X27293248Y-116708882D01*
X27138747Y-116821134D01*
X27010960Y-116963056D01*
X26915473Y-117128444D01*
X26856458Y-117310072D01*
X26836496Y-117500000D01*
X23008500Y-117500000D01*
X23008500Y-116500000D01*
X63086496Y-116500000D01*
X63106458Y-116689928D01*
X63165473Y-116871556D01*
X63260960Y-117036944D01*
X63388747Y-117178866D01*
X63543248Y-117291118D01*
X63549276Y-117293802D01*
X63549278Y-117293803D01*
X63600560Y-117316635D01*
X63717712Y-117368794D01*
X63811112Y-117388647D01*
X63898056Y-117407128D01*
X63898061Y-117407128D01*
X63904513Y-117408500D01*
X64095487Y-117408500D01*
X64101939Y-117407128D01*
X64101944Y-117407128D01*
X64188888Y-117388647D01*
X64282288Y-117368794D01*
X64399440Y-117316635D01*
X64450722Y-117293803D01*
X64450724Y-117293802D01*
X64456752Y-117291118D01*
X64611253Y-117178866D01*
X64739040Y-117036944D01*
X64834527Y-116871556D01*
X64893542Y-116689928D01*
X64911262Y-116521329D01*
X64938275Y-116455673D01*
X64996497Y-116415043D01*
X65036572Y-116408500D01*
X65095487Y-116408500D01*
X65101939Y-116407128D01*
X65101944Y-116407128D01*
X65188887Y-116388647D01*
X65282288Y-116368794D01*
X65399440Y-116316635D01*
X65450722Y-116293803D01*
X65450724Y-116293802D01*
X65456752Y-116291118D01*
X65611253Y-116178866D01*
X65739040Y-116036944D01*
X65834527Y-115871556D01*
X65893542Y-115689928D01*
X65913504Y-115500000D01*
X65893542Y-115310072D01*
X65834527Y-115128444D01*
X65739040Y-114963056D01*
X65611253Y-114821134D01*
X65456752Y-114708882D01*
X65450724Y-114706198D01*
X65450722Y-114706197D01*
X65288319Y-114633891D01*
X65288318Y-114633891D01*
X65282288Y-114631206D01*
X65188887Y-114611353D01*
X65101944Y-114592872D01*
X65101939Y-114592872D01*
X65095487Y-114591500D01*
X64904513Y-114591500D01*
X64898061Y-114592872D01*
X64898056Y-114592872D01*
X64811113Y-114611353D01*
X64717712Y-114631206D01*
X64711682Y-114633891D01*
X64711681Y-114633891D01*
X64549278Y-114706197D01*
X64549276Y-114706198D01*
X64543248Y-114708882D01*
X64388747Y-114821134D01*
X64260960Y-114963056D01*
X64165473Y-115128444D01*
X64106458Y-115310072D01*
X64105768Y-115316633D01*
X64105768Y-115316635D01*
X64088738Y-115478670D01*
X64061725Y-115544327D01*
X64003503Y-115584957D01*
X63963428Y-115591500D01*
X63904513Y-115591500D01*
X63898061Y-115592872D01*
X63898056Y-115592872D01*
X63811112Y-115611353D01*
X63717712Y-115631206D01*
X63711682Y-115633891D01*
X63711681Y-115633891D01*
X63549278Y-115706197D01*
X63549276Y-115706198D01*
X63543248Y-115708882D01*
X63388747Y-115821134D01*
X63260960Y-115963056D01*
X63165473Y-116128444D01*
X63106458Y-116310072D01*
X63086496Y-116500000D01*
X23008500Y-116500000D01*
X23008500Y-113600000D01*
X23861449Y-113600000D01*
X23881622Y-113856326D01*
X23882776Y-113861133D01*
X23882777Y-113861139D01*
X23902695Y-113944101D01*
X23941645Y-114106340D01*
X23943538Y-114110911D01*
X23943539Y-114110913D01*
X24019295Y-114293803D01*
X24040040Y-114343887D01*
X24174384Y-114563116D01*
X24341369Y-114758631D01*
X24536884Y-114925616D01*
X24756113Y-115059960D01*
X24760683Y-115061853D01*
X24760687Y-115061855D01*
X24989087Y-115156461D01*
X24993660Y-115158355D01*
X25080502Y-115179204D01*
X25238861Y-115217223D01*
X25238867Y-115217224D01*
X25243674Y-115218378D01*
X25500000Y-115238551D01*
X25756326Y-115218378D01*
X25761133Y-115217224D01*
X25761139Y-115217223D01*
X25919498Y-115179204D01*
X26006340Y-115158355D01*
X26010913Y-115156461D01*
X26239313Y-115061855D01*
X26239317Y-115061853D01*
X26243887Y-115059960D01*
X26463116Y-114925616D01*
X26658631Y-114758631D01*
X26825616Y-114563116D01*
X26959960Y-114343887D01*
X26980706Y-114293803D01*
X27056461Y-114110913D01*
X27056462Y-114110911D01*
X27058355Y-114106340D01*
X27097305Y-113944101D01*
X27117223Y-113861139D01*
X27117224Y-113861133D01*
X27118378Y-113856326D01*
X27138551Y-113600000D01*
X27130681Y-113500000D01*
X82586496Y-113500000D01*
X82606458Y-113689928D01*
X82665473Y-113871556D01*
X82760960Y-114036944D01*
X82765378Y-114041851D01*
X82765379Y-114041852D01*
X82823444Y-114106340D01*
X82888747Y-114178866D01*
X83043248Y-114291118D01*
X83049276Y-114293802D01*
X83049278Y-114293803D01*
X83171248Y-114348107D01*
X83217712Y-114368794D01*
X83311113Y-114388647D01*
X83398056Y-114407128D01*
X83398061Y-114407128D01*
X83404513Y-114408500D01*
X83595487Y-114408500D01*
X83601939Y-114407128D01*
X83601944Y-114407128D01*
X83688887Y-114388647D01*
X83782288Y-114368794D01*
X83828752Y-114348107D01*
X83950722Y-114293803D01*
X83950724Y-114293802D01*
X83956752Y-114291118D01*
X84111253Y-114178866D01*
X84176556Y-114106340D01*
X84234621Y-114041852D01*
X84234622Y-114041851D01*
X84239040Y-114036944D01*
X84334527Y-113871556D01*
X84393542Y-113689928D01*
X84413504Y-113500000D01*
X84393542Y-113310072D01*
X84334527Y-113128444D01*
X84239040Y-112963056D01*
X84138949Y-112851893D01*
X84115675Y-112826045D01*
X84115674Y-112826044D01*
X84111253Y-112821134D01*
X84012157Y-112749136D01*
X83962094Y-112712763D01*
X83962093Y-112712762D01*
X83956752Y-112708882D01*
X83950724Y-112706198D01*
X83950722Y-112706197D01*
X83788319Y-112633891D01*
X83788318Y-112633891D01*
X83782288Y-112631206D01*
X83688887Y-112611353D01*
X83601944Y-112592872D01*
X83601939Y-112592872D01*
X83595487Y-112591500D01*
X83404513Y-112591500D01*
X83398061Y-112592872D01*
X83398056Y-112592872D01*
X83311113Y-112611353D01*
X83217712Y-112631206D01*
X83211682Y-112633891D01*
X83211681Y-112633891D01*
X83049278Y-112706197D01*
X83049276Y-112706198D01*
X83043248Y-112708882D01*
X83037907Y-112712762D01*
X83037906Y-112712763D01*
X82987843Y-112749136D01*
X82888747Y-112821134D01*
X82884326Y-112826044D01*
X82884325Y-112826045D01*
X82861052Y-112851893D01*
X82760960Y-112963056D01*
X82665473Y-113128444D01*
X82606458Y-113310072D01*
X82586496Y-113500000D01*
X27130681Y-113500000D01*
X27118378Y-113343674D01*
X27101060Y-113271537D01*
X27059510Y-113098472D01*
X27058355Y-113093660D01*
X27038894Y-113046676D01*
X26961855Y-112860687D01*
X26961853Y-112860683D01*
X26959960Y-112856113D01*
X26825616Y-112636884D01*
X26658631Y-112441369D01*
X26495141Y-112301736D01*
X26469382Y-112262277D01*
X131111883Y-112262277D01*
X131137499Y-112530769D01*
X131138584Y-112535203D01*
X131138585Y-112535209D01*
X131200519Y-112788312D01*
X131201605Y-112792750D01*
X131302859Y-113042733D01*
X131439139Y-113275482D01*
X131551251Y-113415671D01*
X131559560Y-113426060D01*
X131607590Y-113486119D01*
X131804683Y-113670234D01*
X132026290Y-113823968D01*
X132030373Y-113825999D01*
X132030376Y-113826001D01*
X132091332Y-113856326D01*
X132267768Y-113944101D01*
X132272102Y-113945522D01*
X132272105Y-113945523D01*
X132519727Y-114026698D01*
X132519733Y-114026699D01*
X132524060Y-114028118D01*
X132528551Y-114028898D01*
X132528552Y-114028898D01*
X132786014Y-114073601D01*
X132786022Y-114073602D01*
X132789795Y-114074257D01*
X132793632Y-114074448D01*
X132873452Y-114078422D01*
X132873460Y-114078422D01*
X132875023Y-114078500D01*
X133043386Y-114078500D01*
X133045654Y-114078335D01*
X133045666Y-114078335D01*
X133176758Y-114068823D01*
X133243878Y-114063953D01*
X133248333Y-114062969D01*
X133248336Y-114062969D01*
X133502786Y-114006791D01*
X133502790Y-114006790D01*
X133507246Y-114005806D01*
X133633354Y-113958028D01*
X133755192Y-113911868D01*
X133755195Y-113911867D01*
X133759462Y-113910250D01*
X133995242Y-113779286D01*
X134209647Y-113615657D01*
X134220134Y-113604930D01*
X134322710Y-113500000D01*
X134398186Y-113422792D01*
X134556908Y-113204730D01*
X134640064Y-113046676D01*
X134680364Y-112970079D01*
X134680367Y-112970073D01*
X134682489Y-112966039D01*
X134722799Y-112851893D01*
X134770776Y-112716033D01*
X134770776Y-112716032D01*
X134772299Y-112711720D01*
X134824455Y-112447100D01*
X134824900Y-112438156D01*
X134833656Y-112262277D01*
X214137009Y-112262277D01*
X214162625Y-112530769D01*
X214163710Y-112535203D01*
X214163711Y-112535209D01*
X214225645Y-112788312D01*
X214226731Y-112792750D01*
X214327985Y-113042733D01*
X214464265Y-113275482D01*
X214576377Y-113415671D01*
X214584686Y-113426060D01*
X214632716Y-113486119D01*
X214829809Y-113670234D01*
X215051416Y-113823968D01*
X215055499Y-113825999D01*
X215055502Y-113826001D01*
X215116458Y-113856326D01*
X215292894Y-113944101D01*
X215297228Y-113945522D01*
X215297231Y-113945523D01*
X215544853Y-114026698D01*
X215544859Y-114026699D01*
X215549186Y-114028118D01*
X215553677Y-114028898D01*
X215553678Y-114028898D01*
X215811140Y-114073601D01*
X215811148Y-114073602D01*
X215814921Y-114074257D01*
X215818758Y-114074448D01*
X215898578Y-114078422D01*
X215898586Y-114078422D01*
X215900149Y-114078500D01*
X216068512Y-114078500D01*
X216070780Y-114078335D01*
X216070792Y-114078335D01*
X216201884Y-114068823D01*
X216269004Y-114063953D01*
X216273459Y-114062969D01*
X216273462Y-114062969D01*
X216527912Y-114006791D01*
X216527916Y-114006790D01*
X216532372Y-114005806D01*
X216658480Y-113958028D01*
X216780318Y-113911868D01*
X216780321Y-113911867D01*
X216784588Y-113910250D01*
X217020368Y-113779286D01*
X217234773Y-113615657D01*
X217245260Y-113604930D01*
X217347836Y-113500000D01*
X217423312Y-113422792D01*
X217582034Y-113204730D01*
X217665190Y-113046676D01*
X217705490Y-112970079D01*
X217705493Y-112970073D01*
X217707615Y-112966039D01*
X217747925Y-112851893D01*
X217795902Y-112716033D01*
X217795902Y-112716032D01*
X217797425Y-112711720D01*
X217849581Y-112447100D01*
X217850026Y-112438156D01*
X217862764Y-112182292D01*
X217862764Y-112182286D01*
X217862991Y-112177723D01*
X217837375Y-111909231D01*
X217835309Y-111900785D01*
X217774355Y-111651688D01*
X217773269Y-111647250D01*
X217672015Y-111397267D01*
X217535735Y-111164518D01*
X217417928Y-111017208D01*
X217370136Y-110957447D01*
X217370135Y-110957445D01*
X217367284Y-110953881D01*
X217170191Y-110769766D01*
X216948584Y-110616032D01*
X216944501Y-110614001D01*
X216944498Y-110613999D01*
X216775270Y-110529810D01*
X216707106Y-110495899D01*
X216702772Y-110494478D01*
X216702769Y-110494477D01*
X216455147Y-110413302D01*
X216455141Y-110413301D01*
X216450814Y-110411882D01*
X216446322Y-110411102D01*
X216188860Y-110366399D01*
X216188852Y-110366398D01*
X216185079Y-110365743D01*
X216173817Y-110365182D01*
X216101422Y-110361578D01*
X216101414Y-110361578D01*
X216099851Y-110361500D01*
X215931488Y-110361500D01*
X215929220Y-110361665D01*
X215929208Y-110361665D01*
X215798116Y-110371177D01*
X215730996Y-110376047D01*
X215726541Y-110377031D01*
X215726538Y-110377031D01*
X215472088Y-110433209D01*
X215472084Y-110433210D01*
X215467628Y-110434194D01*
X215380576Y-110467175D01*
X215219682Y-110528132D01*
X215219679Y-110528133D01*
X215215412Y-110529750D01*
X214979632Y-110660714D01*
X214765227Y-110824343D01*
X214762034Y-110827609D01*
X214762032Y-110827611D01*
X214719073Y-110871556D01*
X214576688Y-111017208D01*
X214417966Y-111235270D01*
X214365479Y-111335031D01*
X214294510Y-111469921D01*
X214294507Y-111469927D01*
X214292385Y-111473961D01*
X214290865Y-111478266D01*
X214290863Y-111478270D01*
X214220953Y-111676239D01*
X214202575Y-111728280D01*
X214150419Y-111992900D01*
X214150192Y-111997453D01*
X214150192Y-111997456D01*
X214137450Y-112253421D01*
X214137009Y-112262277D01*
X134833656Y-112262277D01*
X134837638Y-112182292D01*
X134837638Y-112182286D01*
X134837865Y-112177723D01*
X134812249Y-111909231D01*
X134810183Y-111900785D01*
X134749229Y-111651688D01*
X134748143Y-111647250D01*
X134646889Y-111397267D01*
X134510609Y-111164518D01*
X134392802Y-111017208D01*
X134345010Y-110957447D01*
X134345009Y-110957445D01*
X134342158Y-110953881D01*
X134145065Y-110769766D01*
X133923458Y-110616032D01*
X133919375Y-110614001D01*
X133919372Y-110613999D01*
X133750144Y-110529810D01*
X133681980Y-110495899D01*
X133677646Y-110494478D01*
X133677643Y-110494477D01*
X133430021Y-110413302D01*
X133430015Y-110413301D01*
X133425688Y-110411882D01*
X133421196Y-110411102D01*
X133163734Y-110366399D01*
X133163726Y-110366398D01*
X133159953Y-110365743D01*
X133148691Y-110365182D01*
X133076296Y-110361578D01*
X133076288Y-110361578D01*
X133074725Y-110361500D01*
X132906362Y-110361500D01*
X132904094Y-110361665D01*
X132904082Y-110361665D01*
X132772990Y-110371177D01*
X132705870Y-110376047D01*
X132701415Y-110377031D01*
X132701412Y-110377031D01*
X132446962Y-110433209D01*
X132446958Y-110433210D01*
X132442502Y-110434194D01*
X132355450Y-110467175D01*
X132194556Y-110528132D01*
X132194553Y-110528133D01*
X132190286Y-110529750D01*
X131954506Y-110660714D01*
X131740101Y-110824343D01*
X131736908Y-110827609D01*
X131736906Y-110827611D01*
X131693947Y-110871556D01*
X131551562Y-111017208D01*
X131392840Y-111235270D01*
X131340353Y-111335031D01*
X131269384Y-111469921D01*
X131269381Y-111469927D01*
X131267259Y-111473961D01*
X131265739Y-111478266D01*
X131265737Y-111478270D01*
X131195827Y-111676239D01*
X131177449Y-111728280D01*
X131125293Y-111992900D01*
X131125066Y-111997453D01*
X131125066Y-111997456D01*
X131112324Y-112253421D01*
X131111883Y-112262277D01*
X26469382Y-112262277D01*
X26456332Y-112242286D01*
X26455824Y-112171291D01*
X26467036Y-112144359D01*
X26560056Y-111978258D01*
X26562876Y-111973223D01*
X26631316Y-111771605D01*
X26638224Y-111723967D01*
X26661337Y-111564561D01*
X26661337Y-111564559D01*
X26661869Y-111560891D01*
X26663463Y-111500000D01*
X26651160Y-111366109D01*
X26644510Y-111293730D01*
X26644509Y-111293727D01*
X26643981Y-111287976D01*
X26613209Y-111178866D01*
X26587754Y-111088611D01*
X26587753Y-111088609D01*
X26586186Y-111083052D01*
X26565869Y-111041852D01*
X26494570Y-110897273D01*
X26492015Y-110892092D01*
X26364622Y-110721491D01*
X26233193Y-110600000D01*
X52686496Y-110600000D01*
X52687186Y-110606565D01*
X52696608Y-110696206D01*
X52706458Y-110789928D01*
X52765473Y-110971556D01*
X52860960Y-111136944D01*
X52988747Y-111278866D01*
X53143248Y-111391118D01*
X53149276Y-111393802D01*
X53149278Y-111393803D01*
X53306513Y-111463808D01*
X53317712Y-111468794D01*
X53411113Y-111488647D01*
X53498056Y-111507128D01*
X53498061Y-111507128D01*
X53504513Y-111508500D01*
X53695487Y-111508500D01*
X53701939Y-111507128D01*
X53701944Y-111507128D01*
X53788887Y-111488647D01*
X53882288Y-111468794D01*
X53893487Y-111463808D01*
X54050722Y-111393803D01*
X54050724Y-111393802D01*
X54056752Y-111391118D01*
X54211253Y-111278866D01*
X54339040Y-111136944D01*
X54434527Y-110971556D01*
X54493542Y-110789928D01*
X54503393Y-110696206D01*
X54512814Y-110606565D01*
X54513504Y-110600000D01*
X54506121Y-110529750D01*
X54494232Y-110416635D01*
X54494232Y-110416633D01*
X54493542Y-110410072D01*
X54434527Y-110228444D01*
X54339040Y-110063056D01*
X54211253Y-109921134D01*
X54080375Y-109826045D01*
X54062094Y-109812763D01*
X54062093Y-109812762D01*
X54056752Y-109808882D01*
X54050724Y-109806198D01*
X54050722Y-109806197D01*
X53888319Y-109733891D01*
X53888318Y-109733891D01*
X53882288Y-109731206D01*
X53788887Y-109711353D01*
X53701944Y-109692872D01*
X53701939Y-109692872D01*
X53695487Y-109691500D01*
X53504513Y-109691500D01*
X53498061Y-109692872D01*
X53498056Y-109692872D01*
X53411113Y-109711353D01*
X53317712Y-109731206D01*
X53311682Y-109733891D01*
X53311681Y-109733891D01*
X53149278Y-109806197D01*
X53149276Y-109806198D01*
X53143248Y-109808882D01*
X53137907Y-109812762D01*
X53137906Y-109812763D01*
X53119625Y-109826045D01*
X52988747Y-109921134D01*
X52860960Y-110063056D01*
X52765473Y-110228444D01*
X52706458Y-110410072D01*
X52705768Y-110416633D01*
X52705768Y-110416635D01*
X52693879Y-110529750D01*
X52686496Y-110600000D01*
X26233193Y-110600000D01*
X26223171Y-110590736D01*
X26186726Y-110529810D01*
X26189006Y-110458850D01*
X26228131Y-110401339D01*
X26318255Y-110326384D01*
X26322693Y-110322693D01*
X26409519Y-110218296D01*
X26455149Y-110163431D01*
X26458840Y-110158993D01*
X26562876Y-109973223D01*
X26631316Y-109771605D01*
X26636785Y-109733891D01*
X26661337Y-109564561D01*
X26661337Y-109564559D01*
X26661869Y-109560891D01*
X26663463Y-109500000D01*
X26648864Y-109341118D01*
X26644510Y-109293730D01*
X26644509Y-109293727D01*
X26643981Y-109287976D01*
X26627634Y-109230013D01*
X26587754Y-109088611D01*
X26587753Y-109088609D01*
X26586186Y-109083052D01*
X26553974Y-109017731D01*
X26494570Y-108897273D01*
X26492015Y-108892092D01*
X26439029Y-108821134D01*
X26368074Y-108726114D01*
X26364622Y-108721491D01*
X26223171Y-108590736D01*
X26198803Y-108550000D01*
X48086496Y-108550000D01*
X48087186Y-108556565D01*
X48102646Y-108703655D01*
X48106458Y-108739928D01*
X48165473Y-108921556D01*
X48168776Y-108927278D01*
X48168777Y-108927279D01*
X48186599Y-108958148D01*
X48260960Y-109086944D01*
X48265378Y-109091851D01*
X48265379Y-109091852D01*
X48272346Y-109099590D01*
X48388747Y-109228866D01*
X48543248Y-109341118D01*
X48549276Y-109343802D01*
X48549278Y-109343803D01*
X48711681Y-109416109D01*
X48717712Y-109418794D01*
X48811113Y-109438647D01*
X48898056Y-109457128D01*
X48898061Y-109457128D01*
X48904513Y-109458500D01*
X49095487Y-109458500D01*
X49101939Y-109457128D01*
X49101944Y-109457128D01*
X49188888Y-109438647D01*
X49282288Y-109418794D01*
X49288319Y-109416109D01*
X49450722Y-109343803D01*
X49450724Y-109343802D01*
X49456752Y-109341118D01*
X49611253Y-109228866D01*
X49727654Y-109099590D01*
X49734621Y-109091852D01*
X49734622Y-109091851D01*
X49739040Y-109086944D01*
X49813401Y-108958148D01*
X49831223Y-108927279D01*
X49831224Y-108927278D01*
X49834527Y-108921556D01*
X49893542Y-108739928D01*
X49897355Y-108703655D01*
X49912814Y-108556565D01*
X49913504Y-108550000D01*
X49904539Y-108464706D01*
X49894232Y-108366635D01*
X49894232Y-108366633D01*
X49893542Y-108360072D01*
X49855421Y-108242750D01*
X63306524Y-108242750D01*
X63324894Y-108444596D01*
X63326632Y-108450502D01*
X63326633Y-108450506D01*
X63380380Y-108633121D01*
X63380788Y-108634507D01*
X63382119Y-108639029D01*
X63381260Y-108639282D01*
X63387714Y-108704662D01*
X63374548Y-108741406D01*
X63369385Y-108748295D01*
X63366236Y-108756696D01*
X63366234Y-108756699D01*
X63342079Y-108821134D01*
X63318255Y-108884684D01*
X63311500Y-108946866D01*
X63311500Y-110093134D01*
X63318255Y-110155316D01*
X63369385Y-110291705D01*
X63456739Y-110408261D01*
X63573295Y-110495615D01*
X63709684Y-110546745D01*
X63771866Y-110553500D01*
X65368134Y-110553500D01*
X65430316Y-110546745D01*
X65555008Y-110500000D01*
X66336496Y-110500000D01*
X66337186Y-110506565D01*
X66353388Y-110660714D01*
X66356458Y-110689928D01*
X66415473Y-110871556D01*
X66510960Y-111036944D01*
X66515378Y-111041851D01*
X66515379Y-111041852D01*
X66595852Y-111131226D01*
X66638747Y-111178866D01*
X66737843Y-111250864D01*
X66776385Y-111278866D01*
X66793248Y-111291118D01*
X66799276Y-111293802D01*
X66799278Y-111293803D01*
X66961681Y-111366109D01*
X66967712Y-111368794D01*
X67054479Y-111387237D01*
X67148056Y-111407128D01*
X67148061Y-111407128D01*
X67154513Y-111408500D01*
X67345487Y-111408500D01*
X67351939Y-111407128D01*
X67351944Y-111407128D01*
X67445521Y-111387237D01*
X67532288Y-111368794D01*
X67538319Y-111366109D01*
X67700722Y-111293803D01*
X67700724Y-111293802D01*
X67706752Y-111291118D01*
X67723616Y-111278866D01*
X67762157Y-111250864D01*
X67861253Y-111178866D01*
X67904148Y-111131226D01*
X67984621Y-111041852D01*
X67984622Y-111041851D01*
X67989040Y-111036944D01*
X68084527Y-110871556D01*
X68143542Y-110689928D01*
X68146613Y-110660714D01*
X68162814Y-110506565D01*
X68163504Y-110500000D01*
X68153433Y-110404181D01*
X68144232Y-110316635D01*
X68144232Y-110316633D01*
X68143542Y-110310072D01*
X68084527Y-110128444D01*
X67989040Y-109963056D01*
X67861253Y-109821134D01*
X67706752Y-109708882D01*
X67700724Y-109706198D01*
X67700722Y-109706197D01*
X67538319Y-109633891D01*
X67538318Y-109633891D01*
X67532288Y-109631206D01*
X67438887Y-109611353D01*
X67351944Y-109592872D01*
X67351939Y-109592872D01*
X67345487Y-109591500D01*
X67154513Y-109591500D01*
X67148061Y-109592872D01*
X67148056Y-109592872D01*
X67061113Y-109611353D01*
X66967712Y-109631206D01*
X66961682Y-109633891D01*
X66961681Y-109633891D01*
X66799278Y-109706197D01*
X66799276Y-109706198D01*
X66793248Y-109708882D01*
X66638747Y-109821134D01*
X66510960Y-109963056D01*
X66415473Y-110128444D01*
X66356458Y-110310072D01*
X66355768Y-110316633D01*
X66355768Y-110316635D01*
X66346567Y-110404181D01*
X66336496Y-110500000D01*
X65555008Y-110500000D01*
X65566705Y-110495615D01*
X65683261Y-110408261D01*
X65770615Y-110291705D01*
X65821745Y-110155316D01*
X65828500Y-110093134D01*
X65828500Y-109500000D01*
X83836496Y-109500000D01*
X83837186Y-109506565D01*
X83843282Y-109564561D01*
X83856458Y-109689928D01*
X83915473Y-109871556D01*
X84010960Y-110036944D01*
X84015378Y-110041851D01*
X84015379Y-110041852D01*
X84124849Y-110163431D01*
X84138747Y-110178866D01*
X84293248Y-110291118D01*
X84299276Y-110293802D01*
X84299278Y-110293803D01*
X84451700Y-110361665D01*
X84467712Y-110368794D01*
X84561112Y-110388647D01*
X84648056Y-110407128D01*
X84648061Y-110407128D01*
X84654513Y-110408500D01*
X84845487Y-110408500D01*
X84851939Y-110407128D01*
X84851944Y-110407128D01*
X84938887Y-110388647D01*
X85032288Y-110368794D01*
X85048300Y-110361665D01*
X85200722Y-110293803D01*
X85200724Y-110293802D01*
X85206752Y-110291118D01*
X85361253Y-110178866D01*
X85375151Y-110163431D01*
X85484621Y-110041852D01*
X85484622Y-110041851D01*
X85489040Y-110036944D01*
X85584527Y-109871556D01*
X85643542Y-109689928D01*
X85656719Y-109564561D01*
X85662814Y-109506565D01*
X85663504Y-109500000D01*
X85650357Y-109374914D01*
X85644232Y-109316635D01*
X85644232Y-109316633D01*
X85643542Y-109310072D01*
X85584527Y-109128444D01*
X85489040Y-108963056D01*
X85474463Y-108946866D01*
X85365675Y-108826045D01*
X85365674Y-108826044D01*
X85361253Y-108821134D01*
X85206752Y-108708882D01*
X85200724Y-108706198D01*
X85200722Y-108706197D01*
X85038319Y-108633891D01*
X85038318Y-108633891D01*
X85032288Y-108631206D01*
X84938887Y-108611353D01*
X84851944Y-108592872D01*
X84851939Y-108592872D01*
X84845487Y-108591500D01*
X84654513Y-108591500D01*
X84648061Y-108592872D01*
X84648056Y-108592872D01*
X84561113Y-108611353D01*
X84467712Y-108631206D01*
X84461682Y-108633891D01*
X84461681Y-108633891D01*
X84299278Y-108706197D01*
X84299276Y-108706198D01*
X84293248Y-108708882D01*
X84138747Y-108821134D01*
X84134326Y-108826044D01*
X84134325Y-108826045D01*
X84025538Y-108946866D01*
X84010960Y-108963056D01*
X83915473Y-109128444D01*
X83856458Y-109310072D01*
X83855768Y-109316633D01*
X83855768Y-109316635D01*
X83849643Y-109374914D01*
X83836496Y-109500000D01*
X65828500Y-109500000D01*
X65828500Y-108946866D01*
X65821745Y-108884684D01*
X65797921Y-108821134D01*
X65773768Y-108756704D01*
X65773766Y-108756701D01*
X65770615Y-108748295D01*
X65765227Y-108741106D01*
X65765094Y-108740863D01*
X65749924Y-108671506D01*
X65755248Y-108643092D01*
X65756428Y-108639282D01*
X65812290Y-108458820D01*
X65813859Y-108443898D01*
X65832832Y-108263378D01*
X65832832Y-108263377D01*
X65833476Y-108257250D01*
X65824534Y-108158993D01*
X65815665Y-108061543D01*
X65815664Y-108061540D01*
X65815106Y-108055404D01*
X65802643Y-108013056D01*
X65764299Y-107882777D01*
X65757881Y-107860971D01*
X65753951Y-107853452D01*
X65666835Y-107686815D01*
X65663981Y-107681355D01*
X65664016Y-107681337D01*
X65644111Y-107615559D01*
X65659271Y-107554591D01*
X65705256Y-107469544D01*
X65752356Y-107382435D01*
X65812290Y-107188820D01*
X65822823Y-107088611D01*
X65832832Y-106993378D01*
X65832832Y-106993377D01*
X65833476Y-106987250D01*
X65824395Y-106887466D01*
X65815665Y-106791543D01*
X65815664Y-106791540D01*
X65815106Y-106785404D01*
X65797510Y-106725616D01*
X65759620Y-106596880D01*
X65757881Y-106590971D01*
X65753951Y-106583452D01*
X65666835Y-106416815D01*
X65663981Y-106411355D01*
X65658630Y-106404699D01*
X65540840Y-106258199D01*
X65536981Y-106253399D01*
X65381719Y-106123119D01*
X65376327Y-106120155D01*
X65376323Y-106120152D01*
X65209506Y-106028444D01*
X65204109Y-106025477D01*
X65061301Y-105980176D01*
X65016789Y-105966056D01*
X65010916Y-105964193D01*
X65004799Y-105963507D01*
X65004795Y-105963506D01*
X64930652Y-105955190D01*
X64853183Y-105946500D01*
X64293996Y-105946500D01*
X64143287Y-105961277D01*
X63949258Y-106019858D01*
X63770302Y-106115010D01*
X63765528Y-106118904D01*
X63765526Y-106118905D01*
X63729721Y-106148107D01*
X63613237Y-106243110D01*
X63609310Y-106247857D01*
X63609308Y-106247859D01*
X63487973Y-106394528D01*
X63487971Y-106394531D01*
X63484044Y-106399278D01*
X63387644Y-106577565D01*
X63327710Y-106771180D01*
X63327066Y-106777305D01*
X63327066Y-106777306D01*
X63314457Y-106897273D01*
X63306524Y-106972750D01*
X63308854Y-106998352D01*
X63317069Y-107088611D01*
X63324894Y-107174596D01*
X63382119Y-107369029D01*
X63384972Y-107374486D01*
X63384973Y-107374489D01*
X63389127Y-107382435D01*
X63475923Y-107548460D01*
X63475923Y-107548462D01*
X63476019Y-107548645D01*
X63475984Y-107548663D01*
X63495889Y-107614441D01*
X63480729Y-107675409D01*
X63387644Y-107847565D01*
X63327710Y-108041180D01*
X63306524Y-108242750D01*
X49855421Y-108242750D01*
X49834527Y-108178444D01*
X49739040Y-108013056D01*
X49621737Y-107882777D01*
X49615675Y-107876045D01*
X49615674Y-107876044D01*
X49611253Y-107871134D01*
X49512157Y-107799136D01*
X49462094Y-107762763D01*
X49462093Y-107762762D01*
X49456752Y-107758882D01*
X49450724Y-107756198D01*
X49450722Y-107756197D01*
X49288319Y-107683891D01*
X49288318Y-107683891D01*
X49282288Y-107681206D01*
X49183308Y-107660167D01*
X49101944Y-107642872D01*
X49101939Y-107642872D01*
X49095487Y-107641500D01*
X48904513Y-107641500D01*
X48898061Y-107642872D01*
X48898056Y-107642872D01*
X48816692Y-107660167D01*
X48717712Y-107681206D01*
X48711682Y-107683891D01*
X48711681Y-107683891D01*
X48549278Y-107756197D01*
X48549276Y-107756198D01*
X48543248Y-107758882D01*
X48537907Y-107762762D01*
X48537906Y-107762763D01*
X48487843Y-107799136D01*
X48388747Y-107871134D01*
X48384326Y-107876044D01*
X48384325Y-107876045D01*
X48378264Y-107882777D01*
X48260960Y-108013056D01*
X48165473Y-108178444D01*
X48106458Y-108360072D01*
X48105768Y-108366633D01*
X48105768Y-108366635D01*
X48095461Y-108464706D01*
X48086496Y-108550000D01*
X26198803Y-108550000D01*
X26186726Y-108529810D01*
X26189006Y-108458850D01*
X26228131Y-108401339D01*
X26318255Y-108326384D01*
X26322693Y-108322693D01*
X26458840Y-108158993D01*
X26562876Y-107973223D01*
X26631316Y-107771605D01*
X26643496Y-107687607D01*
X26661337Y-107564561D01*
X26661337Y-107564559D01*
X26661869Y-107560891D01*
X26663463Y-107500000D01*
X26643981Y-107287976D01*
X26586186Y-107083052D01*
X26559355Y-107028643D01*
X26494570Y-106897273D01*
X26492015Y-106892092D01*
X26475466Y-106869930D01*
X26450735Y-106803380D01*
X26465910Y-106734024D01*
X26494595Y-106698731D01*
X26654869Y-106561844D01*
X26658631Y-106558631D01*
X26825616Y-106363116D01*
X26959960Y-106143887D01*
X26968563Y-106123119D01*
X27056461Y-105910913D01*
X27056462Y-105910911D01*
X27058355Y-105906340D01*
X27114722Y-105671556D01*
X27117223Y-105661139D01*
X27117224Y-105661133D01*
X27118378Y-105656326D01*
X27138551Y-105400000D01*
X27130681Y-105300000D01*
X53086496Y-105300000D01*
X53106458Y-105489928D01*
X53165473Y-105671556D01*
X53260960Y-105836944D01*
X53265378Y-105841851D01*
X53265379Y-105841852D01*
X53359958Y-105946893D01*
X53388747Y-105978866D01*
X53543248Y-106091118D01*
X53549276Y-106093802D01*
X53549278Y-106093803D01*
X53711681Y-106166109D01*
X53717712Y-106168794D01*
X53811113Y-106188647D01*
X53898056Y-106207128D01*
X53898061Y-106207128D01*
X53904513Y-106208500D01*
X54095487Y-106208500D01*
X54101939Y-106207128D01*
X54101944Y-106207128D01*
X54188887Y-106188647D01*
X54282288Y-106168794D01*
X54288319Y-106166109D01*
X54450722Y-106093803D01*
X54450724Y-106093802D01*
X54456752Y-106091118D01*
X54611253Y-105978866D01*
X54640042Y-105946893D01*
X54734621Y-105841852D01*
X54734622Y-105841851D01*
X54739040Y-105836944D01*
X54834527Y-105671556D01*
X54893542Y-105489928D01*
X54913504Y-105300000D01*
X54901181Y-105182749D01*
X54894232Y-105116635D01*
X54894232Y-105116633D01*
X54893542Y-105110072D01*
X54834527Y-104928444D01*
X54739040Y-104763056D01*
X54638949Y-104651893D01*
X54615675Y-104626045D01*
X54615674Y-104626044D01*
X54611253Y-104621134D01*
X54502493Y-104542115D01*
X54462094Y-104512763D01*
X54462093Y-104512762D01*
X54456752Y-104508882D01*
X54450724Y-104506198D01*
X54450722Y-104506197D01*
X54436803Y-104500000D01*
X105336496Y-104500000D01*
X105337186Y-104506565D01*
X105349228Y-104621134D01*
X105356458Y-104689928D01*
X105415473Y-104871556D01*
X105418776Y-104877278D01*
X105418777Y-104877279D01*
X105428235Y-104893660D01*
X105510960Y-105036944D01*
X105515378Y-105041851D01*
X105515379Y-105041852D01*
X105634325Y-105173955D01*
X105638747Y-105178866D01*
X105793248Y-105291118D01*
X105799276Y-105293802D01*
X105799278Y-105293803D01*
X105961681Y-105366109D01*
X105967712Y-105368794D01*
X106061113Y-105388647D01*
X106148056Y-105407128D01*
X106148061Y-105407128D01*
X106154513Y-105408500D01*
X106345487Y-105408500D01*
X106351939Y-105407128D01*
X106351944Y-105407128D01*
X106438887Y-105388647D01*
X106532288Y-105368794D01*
X106538319Y-105366109D01*
X106700722Y-105293803D01*
X106700724Y-105293802D01*
X106706752Y-105291118D01*
X106861253Y-105178866D01*
X106865675Y-105173955D01*
X106984621Y-105041852D01*
X106984622Y-105041851D01*
X106989040Y-105036944D01*
X107071765Y-104893660D01*
X107081223Y-104877279D01*
X107081224Y-104877278D01*
X107084527Y-104871556D01*
X107143542Y-104689928D01*
X107150773Y-104621134D01*
X107162814Y-104506565D01*
X107163504Y-104500000D01*
X107145477Y-104328483D01*
X107144232Y-104316635D01*
X107144232Y-104316633D01*
X107143542Y-104310072D01*
X107084527Y-104128444D01*
X106989040Y-103963056D01*
X106932625Y-103900400D01*
X127891374Y-103900400D01*
X127891711Y-103903646D01*
X127891711Y-103903650D01*
X127897366Y-103958148D01*
X127902348Y-104006166D01*
X127958324Y-104173946D01*
X128051396Y-104324348D01*
X128176571Y-104449305D01*
X128182801Y-104453145D01*
X128182802Y-104453146D01*
X128319964Y-104537694D01*
X128327136Y-104542115D01*
X128406879Y-104568564D01*
X128488485Y-104595632D01*
X128488487Y-104595632D01*
X128495013Y-104597797D01*
X128501849Y-104598497D01*
X128501852Y-104598498D01*
X128544905Y-104602909D01*
X128599474Y-104608500D01*
X129950274Y-104608500D01*
X129953520Y-104608163D01*
X129953524Y-104608163D01*
X130049182Y-104598238D01*
X130049186Y-104598237D01*
X130056040Y-104597526D01*
X130062576Y-104595345D01*
X130062578Y-104595345D01*
X130194680Y-104551272D01*
X130223820Y-104541550D01*
X130374222Y-104448478D01*
X130499179Y-104323303D01*
X130591989Y-104172738D01*
X130624611Y-104074384D01*
X130645506Y-104011389D01*
X130645506Y-104011387D01*
X130647671Y-104004861D01*
X130651369Y-103968774D01*
X130652783Y-103954969D01*
X130658374Y-103900400D01*
X130658374Y-103099600D01*
X130647400Y-102993834D01*
X130608624Y-102877607D01*
X130593742Y-102833002D01*
X130591424Y-102826054D01*
X130498352Y-102675652D01*
X130373177Y-102550695D01*
X130366943Y-102546852D01*
X130321184Y-102518645D01*
X130273691Y-102465873D01*
X130262269Y-102395801D01*
X130290543Y-102330677D01*
X130309471Y-102312298D01*
X130312730Y-102309738D01*
X130321380Y-102301501D01*
X130452086Y-102150877D01*
X130459021Y-102141153D01*
X130558884Y-101968533D01*
X130563858Y-101957669D01*
X130629281Y-101769273D01*
X130629522Y-101768284D01*
X130628054Y-101757992D01*
X130614489Y-101754000D01*
X127939472Y-101754000D01*
X127925941Y-101757973D01*
X127924586Y-101767399D01*
X127946068Y-101856537D01*
X127949957Y-101867832D01*
X128032503Y-102049382D01*
X128038450Y-102059724D01*
X128153842Y-102222397D01*
X128161635Y-102231425D01*
X128252631Y-102318535D01*
X128288007Y-102380090D01*
X128284488Y-102451000D01*
X128243191Y-102508750D01*
X128231821Y-102516685D01*
X128175526Y-102551522D01*
X128050569Y-102676697D01*
X128046729Y-102682927D01*
X128046728Y-102682928D01*
X127974559Y-102800008D01*
X127957759Y-102827262D01*
X127902077Y-102995139D01*
X127891374Y-103099600D01*
X127891374Y-103900400D01*
X106932625Y-103900400D01*
X106865675Y-103826045D01*
X106865674Y-103826044D01*
X106861253Y-103821134D01*
X106706752Y-103708882D01*
X106700724Y-103706198D01*
X106700722Y-103706197D01*
X106538319Y-103633891D01*
X106538318Y-103633891D01*
X106532288Y-103631206D01*
X106438887Y-103611353D01*
X106351944Y-103592872D01*
X106351939Y-103592872D01*
X106345487Y-103591500D01*
X106154513Y-103591500D01*
X106148061Y-103592872D01*
X106148056Y-103592872D01*
X106061112Y-103611353D01*
X105967712Y-103631206D01*
X105961682Y-103633891D01*
X105961681Y-103633891D01*
X105799278Y-103706197D01*
X105799276Y-103706198D01*
X105793248Y-103708882D01*
X105638747Y-103821134D01*
X105634326Y-103826044D01*
X105634325Y-103826045D01*
X105567376Y-103900400D01*
X105510960Y-103963056D01*
X105415473Y-104128444D01*
X105356458Y-104310072D01*
X105355768Y-104316633D01*
X105355768Y-104316635D01*
X105354523Y-104328483D01*
X105336496Y-104500000D01*
X54436803Y-104500000D01*
X54288319Y-104433891D01*
X54288318Y-104433891D01*
X54282288Y-104431206D01*
X54188887Y-104411353D01*
X54101944Y-104392872D01*
X54101939Y-104392872D01*
X54095487Y-104391500D01*
X53904513Y-104391500D01*
X53898061Y-104392872D01*
X53898056Y-104392872D01*
X53811113Y-104411353D01*
X53717712Y-104431206D01*
X53711682Y-104433891D01*
X53711681Y-104433891D01*
X53549278Y-104506197D01*
X53549276Y-104506198D01*
X53543248Y-104508882D01*
X53537907Y-104512762D01*
X53537906Y-104512763D01*
X53497507Y-104542115D01*
X53388747Y-104621134D01*
X53384326Y-104626044D01*
X53384325Y-104626045D01*
X53361052Y-104651893D01*
X53260960Y-104763056D01*
X53165473Y-104928444D01*
X53106458Y-105110072D01*
X53105768Y-105116633D01*
X53105768Y-105116635D01*
X53098819Y-105182749D01*
X53086496Y-105300000D01*
X27130681Y-105300000D01*
X27118378Y-105143674D01*
X27092755Y-105036944D01*
X27059510Y-104898472D01*
X27058355Y-104893660D01*
X27004257Y-104763056D01*
X26961855Y-104660687D01*
X26961853Y-104660683D01*
X26959960Y-104656113D01*
X26825616Y-104436884D01*
X26658631Y-104241369D01*
X26463116Y-104074384D01*
X26243887Y-103940040D01*
X26239317Y-103938147D01*
X26239313Y-103938145D01*
X26010913Y-103843539D01*
X26010911Y-103843538D01*
X26006340Y-103841645D01*
X25904732Y-103817251D01*
X25761139Y-103782777D01*
X25761133Y-103782776D01*
X25756326Y-103781622D01*
X25500000Y-103761449D01*
X25243674Y-103781622D01*
X25238867Y-103782776D01*
X25238861Y-103782777D01*
X25095268Y-103817251D01*
X24993660Y-103841645D01*
X24989089Y-103843538D01*
X24989087Y-103843539D01*
X24760687Y-103938145D01*
X24760683Y-103938147D01*
X24756113Y-103940040D01*
X24536884Y-104074384D01*
X24341369Y-104241369D01*
X24174384Y-104436884D01*
X24040040Y-104656113D01*
X24038147Y-104660683D01*
X24038145Y-104660687D01*
X23995743Y-104763056D01*
X23941645Y-104893660D01*
X23940490Y-104898472D01*
X23907246Y-105036944D01*
X23881622Y-105143674D01*
X23861449Y-105400000D01*
X23881622Y-105656326D01*
X23882776Y-105661133D01*
X23882777Y-105661139D01*
X23885278Y-105671556D01*
X23941645Y-105906340D01*
X23943538Y-105910911D01*
X23943539Y-105910913D01*
X24031438Y-106123119D01*
X24040040Y-106143887D01*
X24174384Y-106363116D01*
X24341369Y-106558631D01*
X24503912Y-106697455D01*
X24542720Y-106756904D01*
X24543228Y-106827899D01*
X24527771Y-106861851D01*
X24524238Y-106866333D01*
X24425100Y-107054762D01*
X24423386Y-107060283D01*
X24423384Y-107060287D01*
X24387890Y-107174596D01*
X24361961Y-107258102D01*
X24336936Y-107469544D01*
X24350861Y-107682006D01*
X24352282Y-107687602D01*
X24352283Y-107687607D01*
X24388627Y-107830708D01*
X24403272Y-107888372D01*
X24405689Y-107893615D01*
X24442389Y-107973223D01*
X24492411Y-108081731D01*
X24615296Y-108255609D01*
X24767809Y-108404181D01*
X24769477Y-108405295D01*
X24809136Y-108462699D01*
X24811506Y-108533656D01*
X24772571Y-108596943D01*
X24656054Y-108699125D01*
X24524238Y-108866333D01*
X24521549Y-108871444D01*
X24521547Y-108871447D01*
X24483654Y-108943469D01*
X24425100Y-109054762D01*
X24423386Y-109060283D01*
X24423384Y-109060287D01*
X24403998Y-109122721D01*
X24361961Y-109258102D01*
X24336936Y-109469544D01*
X24350861Y-109682006D01*
X24352282Y-109687602D01*
X24352283Y-109687607D01*
X24379871Y-109796231D01*
X24403272Y-109888372D01*
X24405689Y-109893615D01*
X24442389Y-109973223D01*
X24492411Y-110081731D01*
X24615296Y-110255609D01*
X24767809Y-110404181D01*
X24769477Y-110405295D01*
X24809136Y-110462699D01*
X24811506Y-110533656D01*
X24772571Y-110596943D01*
X24656054Y-110699125D01*
X24524238Y-110866333D01*
X24521549Y-110871444D01*
X24521547Y-110871447D01*
X24479818Y-110950760D01*
X24425100Y-111054762D01*
X24423386Y-111060283D01*
X24423384Y-111060287D01*
X24385359Y-111182749D01*
X24361961Y-111258102D01*
X24336936Y-111469544D01*
X24350861Y-111682006D01*
X24352282Y-111687602D01*
X24352283Y-111687607D01*
X24393462Y-111849747D01*
X24403272Y-111888372D01*
X24405689Y-111893615D01*
X24442389Y-111973223D01*
X24492411Y-112081731D01*
X24495741Y-112086443D01*
X24495744Y-112086448D01*
X24527711Y-112131680D01*
X24550692Y-112198855D01*
X24533707Y-112267790D01*
X24506644Y-112300211D01*
X24363734Y-112422267D01*
X24341369Y-112441369D01*
X24174384Y-112636884D01*
X24040040Y-112856113D01*
X24038147Y-112860683D01*
X24038145Y-112860687D01*
X23961106Y-113046676D01*
X23941645Y-113093660D01*
X23940490Y-113098472D01*
X23898941Y-113271537D01*
X23881622Y-113343674D01*
X23861449Y-113600000D01*
X23008500Y-113600000D01*
X23008500Y-102085768D01*
X24275302Y-102085768D01*
X24312554Y-102212342D01*
X24317147Y-102223710D01*
X24407566Y-102396666D01*
X24414282Y-102406928D01*
X24536568Y-102559020D01*
X24545152Y-102567786D01*
X24694656Y-102693236D01*
X24704767Y-102700160D01*
X24875798Y-102794184D01*
X24887062Y-102799012D01*
X25073095Y-102858025D01*
X25085084Y-102860573D01*
X25236947Y-102877607D01*
X25243971Y-102878000D01*
X25327885Y-102878000D01*
X25343124Y-102873525D01*
X25344329Y-102872135D01*
X25346000Y-102864452D01*
X25346000Y-102859885D01*
X25854000Y-102859885D01*
X25858475Y-102875124D01*
X25859865Y-102876329D01*
X25867548Y-102878000D01*
X25949124Y-102878000D01*
X25955272Y-102877699D01*
X26100361Y-102863473D01*
X26112396Y-102861090D01*
X26299223Y-102804683D01*
X26310565Y-102800008D01*
X26482879Y-102708388D01*
X26493095Y-102701601D01*
X26644335Y-102578253D01*
X26653039Y-102569609D01*
X26777438Y-102419237D01*
X26784297Y-102409069D01*
X26877121Y-102237393D01*
X26881871Y-102226093D01*
X26923595Y-102091307D01*
X26923676Y-102085768D01*
X28075302Y-102085768D01*
X28112554Y-102212342D01*
X28117147Y-102223710D01*
X28207566Y-102396666D01*
X28214282Y-102406928D01*
X28336568Y-102559020D01*
X28345152Y-102567786D01*
X28494656Y-102693236D01*
X28504767Y-102700160D01*
X28675798Y-102794184D01*
X28687062Y-102799012D01*
X28873095Y-102858025D01*
X28885084Y-102860573D01*
X29036947Y-102877607D01*
X29043971Y-102878000D01*
X29127885Y-102878000D01*
X29143124Y-102873525D01*
X29144329Y-102872135D01*
X29146000Y-102864452D01*
X29146000Y-102859885D01*
X29654000Y-102859885D01*
X29658475Y-102875124D01*
X29659865Y-102876329D01*
X29667548Y-102878000D01*
X29749124Y-102878000D01*
X29755272Y-102877699D01*
X29900361Y-102863473D01*
X29912396Y-102861090D01*
X30099223Y-102804683D01*
X30110565Y-102800008D01*
X30282879Y-102708388D01*
X30293095Y-102701601D01*
X30444335Y-102578253D01*
X30453039Y-102569609D01*
X30577438Y-102419237D01*
X30584297Y-102409069D01*
X30677121Y-102237393D01*
X30681871Y-102226093D01*
X30723595Y-102091307D01*
X30723801Y-102077205D01*
X30717045Y-102074000D01*
X29672115Y-102074000D01*
X29656876Y-102078475D01*
X29655671Y-102079865D01*
X29654000Y-102087548D01*
X29654000Y-102859885D01*
X29146000Y-102859885D01*
X29146000Y-102092115D01*
X29141525Y-102076876D01*
X29140135Y-102075671D01*
X29132452Y-102074000D01*
X28089953Y-102074000D01*
X28076422Y-102077973D01*
X28075302Y-102085768D01*
X26923676Y-102085768D01*
X26923801Y-102077205D01*
X26917045Y-102074000D01*
X25872115Y-102074000D01*
X25856876Y-102078475D01*
X25855671Y-102079865D01*
X25854000Y-102087548D01*
X25854000Y-102859885D01*
X25346000Y-102859885D01*
X25346000Y-102092115D01*
X25341525Y-102076876D01*
X25340135Y-102075671D01*
X25332452Y-102074000D01*
X24289953Y-102074000D01*
X24276422Y-102077973D01*
X24275302Y-102085768D01*
X23008500Y-102085768D01*
X23008500Y-101562795D01*
X24276199Y-101562795D01*
X24282955Y-101566000D01*
X25327885Y-101566000D01*
X25343124Y-101561525D01*
X25344329Y-101560135D01*
X25346000Y-101552452D01*
X25346000Y-101547885D01*
X25854000Y-101547885D01*
X25858475Y-101563124D01*
X25859865Y-101564329D01*
X25867548Y-101566000D01*
X26910047Y-101566000D01*
X26920962Y-101562795D01*
X28076199Y-101562795D01*
X28082955Y-101566000D01*
X29127885Y-101566000D01*
X29143124Y-101561525D01*
X29144329Y-101560135D01*
X29146000Y-101552452D01*
X29146000Y-101547885D01*
X29654000Y-101547885D01*
X29658475Y-101563124D01*
X29659865Y-101564329D01*
X29667548Y-101566000D01*
X30710047Y-101566000D01*
X30723578Y-101562027D01*
X30724698Y-101554232D01*
X30687446Y-101427658D01*
X30682853Y-101416290D01*
X30592434Y-101243334D01*
X30585718Y-101233072D01*
X30463432Y-101080980D01*
X30454848Y-101072214D01*
X30305344Y-100946764D01*
X30295233Y-100939840D01*
X30124202Y-100845816D01*
X30112938Y-100840988D01*
X29926905Y-100781975D01*
X29914916Y-100779427D01*
X29763053Y-100762393D01*
X29756029Y-100762000D01*
X29672115Y-100762000D01*
X29656876Y-100766475D01*
X29655671Y-100767865D01*
X29654000Y-100775548D01*
X29654000Y-101547885D01*
X29146000Y-101547885D01*
X29146000Y-100780115D01*
X29141525Y-100764876D01*
X29140135Y-100763671D01*
X29132452Y-100762000D01*
X29050876Y-100762000D01*
X29044728Y-100762301D01*
X28899639Y-100776527D01*
X28887604Y-100778910D01*
X28700777Y-100835317D01*
X28689435Y-100839992D01*
X28517121Y-100931612D01*
X28506905Y-100938399D01*
X28355665Y-101061747D01*
X28346961Y-101070391D01*
X28222562Y-101220763D01*
X28215703Y-101230931D01*
X28122879Y-101402607D01*
X28118129Y-101413907D01*
X28076405Y-101548693D01*
X28076199Y-101562795D01*
X26920962Y-101562795D01*
X26923578Y-101562027D01*
X26924698Y-101554232D01*
X26887446Y-101427658D01*
X26882853Y-101416290D01*
X26792434Y-101243334D01*
X26785718Y-101233072D01*
X26663432Y-101080980D01*
X26654848Y-101072214D01*
X26505344Y-100946764D01*
X26495233Y-100939840D01*
X26324202Y-100845816D01*
X26312938Y-100840988D01*
X26126905Y-100781975D01*
X26114916Y-100779427D01*
X25963053Y-100762393D01*
X25956029Y-100762000D01*
X25872115Y-100762000D01*
X25856876Y-100766475D01*
X25855671Y-100767865D01*
X25854000Y-100775548D01*
X25854000Y-101547885D01*
X25346000Y-101547885D01*
X25346000Y-100780115D01*
X25341525Y-100764876D01*
X25340135Y-100763671D01*
X25332452Y-100762000D01*
X25250876Y-100762000D01*
X25244728Y-100762301D01*
X25099639Y-100776527D01*
X25087604Y-100778910D01*
X24900777Y-100835317D01*
X24889435Y-100839992D01*
X24717121Y-100931612D01*
X24706905Y-100938399D01*
X24555665Y-101061747D01*
X24546961Y-101070391D01*
X24422562Y-101220763D01*
X24415703Y-101230931D01*
X24322879Y-101402607D01*
X24318129Y-101413907D01*
X24276405Y-101548693D01*
X24276199Y-101562795D01*
X23008500Y-101562795D01*
X23008500Y-100050000D01*
X57836496Y-100050000D01*
X57837186Y-100056565D01*
X57848174Y-100161106D01*
X57856458Y-100239928D01*
X57915473Y-100421556D01*
X57918776Y-100427278D01*
X57918777Y-100427279D01*
X57943039Y-100469302D01*
X58010960Y-100586944D01*
X58138747Y-100728866D01*
X58208338Y-100779427D01*
X58285264Y-100835317D01*
X58293248Y-100841118D01*
X58299276Y-100843802D01*
X58299278Y-100843803D01*
X58461681Y-100916109D01*
X58467712Y-100918794D01*
X58528016Y-100931612D01*
X58648056Y-100957128D01*
X58648061Y-100957128D01*
X58654513Y-100958500D01*
X58845487Y-100958500D01*
X58851939Y-100957128D01*
X58851944Y-100957128D01*
X58971984Y-100931612D01*
X59032288Y-100918794D01*
X59038319Y-100916109D01*
X59200722Y-100843803D01*
X59200724Y-100843802D01*
X59206752Y-100841118D01*
X59214737Y-100835317D01*
X59291662Y-100779427D01*
X59361253Y-100728866D01*
X59489040Y-100586944D01*
X59556961Y-100469302D01*
X59581223Y-100427279D01*
X59581224Y-100427278D01*
X59584527Y-100421556D01*
X59599654Y-100375000D01*
X89986693Y-100375000D01*
X90005885Y-100594371D01*
X90062880Y-100807076D01*
X90080945Y-100845816D01*
X90153618Y-101001666D01*
X90153621Y-101001671D01*
X90155944Y-101006653D01*
X90159100Y-101011160D01*
X90159101Y-101011162D01*
X90277310Y-101179981D01*
X90282251Y-101187038D01*
X90437962Y-101342749D01*
X90618346Y-101469056D01*
X90817924Y-101562120D01*
X91030629Y-101619115D01*
X91250000Y-101638307D01*
X91469371Y-101619115D01*
X91682076Y-101562120D01*
X91881654Y-101469056D01*
X91944342Y-101425161D01*
X93064393Y-101425161D01*
X93073687Y-101437175D01*
X93114088Y-101465464D01*
X93123584Y-101470947D01*
X93313113Y-101559326D01*
X93323405Y-101563072D01*
X93525401Y-101617196D01*
X93536196Y-101619099D01*
X93744525Y-101637326D01*
X93755475Y-101637326D01*
X93963804Y-101619099D01*
X93974599Y-101617196D01*
X94176595Y-101563072D01*
X94186887Y-101559326D01*
X94376416Y-101470947D01*
X94385912Y-101465464D01*
X94427148Y-101436590D01*
X94435523Y-101426112D01*
X94428457Y-101412668D01*
X93762811Y-100747021D01*
X93748868Y-100739408D01*
X93747034Y-100739539D01*
X93740420Y-100743790D01*
X93070820Y-101413391D01*
X93064393Y-101425161D01*
X91944342Y-101425161D01*
X92062038Y-101342749D01*
X92217749Y-101187038D01*
X92222691Y-101179981D01*
X92340899Y-101011162D01*
X92340900Y-101011160D01*
X92344056Y-101006653D01*
X92346379Y-101001671D01*
X92346382Y-101001666D01*
X92386081Y-100916530D01*
X92432998Y-100863245D01*
X92501276Y-100843784D01*
X92569235Y-100864326D01*
X92614471Y-100916530D01*
X92654054Y-101001417D01*
X92659534Y-101010907D01*
X92688411Y-101052149D01*
X92698887Y-101060523D01*
X92712334Y-101053455D01*
X93377979Y-100387811D01*
X93384356Y-100376132D01*
X94114408Y-100376132D01*
X94114539Y-100377966D01*
X94118790Y-100384580D01*
X94788391Y-101054180D01*
X94800161Y-101060607D01*
X94812176Y-101051311D01*
X94840466Y-101010907D01*
X94845946Y-101001417D01*
X94885529Y-100916530D01*
X94932446Y-100863245D01*
X95000724Y-100843784D01*
X95068684Y-100864326D01*
X95113919Y-100916530D01*
X95153618Y-101001666D01*
X95153621Y-101001671D01*
X95155944Y-101006653D01*
X95159100Y-101011160D01*
X95159101Y-101011162D01*
X95277310Y-101179981D01*
X95282251Y-101187038D01*
X95437962Y-101342749D01*
X95618346Y-101469056D01*
X95817924Y-101562120D01*
X96030629Y-101619115D01*
X96250000Y-101638307D01*
X96469371Y-101619115D01*
X96682076Y-101562120D01*
X96881654Y-101469056D01*
X97062038Y-101342749D01*
X97217749Y-101187038D01*
X97222691Y-101179981D01*
X97227485Y-101173134D01*
X105741500Y-101173134D01*
X105748255Y-101235316D01*
X105799385Y-101371705D01*
X105886739Y-101488261D01*
X106003295Y-101575615D01*
X106139684Y-101626745D01*
X106201866Y-101633500D01*
X107798134Y-101633500D01*
X107860316Y-101626745D01*
X107996705Y-101575615D01*
X108113261Y-101488261D01*
X108200615Y-101371705D01*
X108251745Y-101235316D01*
X108252598Y-101227464D01*
X108252599Y-101227460D01*
X108256566Y-101190935D01*
X108257756Y-101179980D01*
X108284997Y-101114419D01*
X108343360Y-101073992D01*
X108414314Y-101071536D01*
X108475332Y-101107831D01*
X108486232Y-101121317D01*
X108529092Y-101182527D01*
X108532251Y-101187038D01*
X108687962Y-101342749D01*
X108868346Y-101469056D01*
X109067924Y-101562120D01*
X109280629Y-101619115D01*
X109500000Y-101638307D01*
X109719371Y-101619115D01*
X109932076Y-101562120D01*
X110131654Y-101469056D01*
X110312038Y-101342749D01*
X110467749Y-101187038D01*
X110472691Y-101179981D01*
X110590899Y-101011162D01*
X110590900Y-101011160D01*
X110594056Y-101006653D01*
X110596379Y-101001671D01*
X110596382Y-101001666D01*
X110635805Y-100917122D01*
X110682722Y-100863837D01*
X110751000Y-100844376D01*
X110818960Y-100864918D01*
X110864195Y-100917122D01*
X110903618Y-101001666D01*
X110903621Y-101001671D01*
X110905944Y-101006653D01*
X110909100Y-101011160D01*
X110909101Y-101011162D01*
X111027310Y-101179981D01*
X111032251Y-101187038D01*
X111187962Y-101342749D01*
X111368346Y-101469056D01*
X111567924Y-101562120D01*
X111780629Y-101619115D01*
X112000000Y-101638307D01*
X112219371Y-101619115D01*
X112432076Y-101562120D01*
X112631654Y-101469056D01*
X112812038Y-101342749D01*
X112923071Y-101231716D01*
X127920226Y-101231716D01*
X127921694Y-101242008D01*
X127935259Y-101246000D01*
X129002759Y-101246000D01*
X129017998Y-101241525D01*
X129019203Y-101240135D01*
X129020874Y-101232452D01*
X129020874Y-101227885D01*
X129528874Y-101227885D01*
X129533349Y-101243124D01*
X129534739Y-101244329D01*
X129542422Y-101246000D01*
X130610276Y-101246000D01*
X130623807Y-101242027D01*
X130625162Y-101232601D01*
X130603680Y-101143463D01*
X130599791Y-101132168D01*
X130517245Y-100950618D01*
X130511298Y-100940276D01*
X130395906Y-100777603D01*
X130388113Y-100768575D01*
X130244043Y-100630658D01*
X130234678Y-100623262D01*
X130067133Y-100515079D01*
X130056529Y-100509583D01*
X129871562Y-100435039D01*
X129860104Y-100431645D01*
X129662946Y-100393143D01*
X129654083Y-100392066D01*
X129651374Y-100392000D01*
X129546989Y-100392000D01*
X129531750Y-100396475D01*
X129530545Y-100397865D01*
X129528874Y-100405548D01*
X129528874Y-101227885D01*
X129020874Y-101227885D01*
X129020874Y-100410115D01*
X129016399Y-100394876D01*
X129015009Y-100393671D01*
X129007326Y-100392000D01*
X128950042Y-100392000D01*
X128944066Y-100392285D01*
X128795380Y-100406471D01*
X128783646Y-100408730D01*
X128592275Y-100464872D01*
X128581199Y-100469302D01*
X128403896Y-100560619D01*
X128393850Y-100567069D01*
X128237017Y-100690262D01*
X128228368Y-100698499D01*
X128097662Y-100849123D01*
X128090727Y-100858847D01*
X127990864Y-101031467D01*
X127985890Y-101042331D01*
X127920467Y-101230727D01*
X127920226Y-101231716D01*
X112923071Y-101231716D01*
X112967749Y-101187038D01*
X112972691Y-101179981D01*
X113090899Y-101011162D01*
X113090900Y-101011160D01*
X113094056Y-101006653D01*
X113096379Y-101001671D01*
X113096382Y-101001666D01*
X113169055Y-100845816D01*
X113187120Y-100807076D01*
X113244115Y-100594371D01*
X113263307Y-100375000D01*
X113244115Y-100155629D01*
X113187120Y-99942924D01*
X113096498Y-99748583D01*
X113096382Y-99748334D01*
X113096379Y-99748329D01*
X113094056Y-99743347D01*
X113062786Y-99698689D01*
X112970908Y-99567473D01*
X112970906Y-99567470D01*
X112967749Y-99562962D01*
X112812038Y-99407251D01*
X112767472Y-99376045D01*
X112694342Y-99324839D01*
X112631654Y-99280944D01*
X112432076Y-99187880D01*
X112219371Y-99130885D01*
X112000000Y-99111693D01*
X111780629Y-99130885D01*
X111567924Y-99187880D01*
X111474562Y-99231415D01*
X111373334Y-99278618D01*
X111373329Y-99278621D01*
X111368347Y-99280944D01*
X111363840Y-99284100D01*
X111363838Y-99284101D01*
X111192473Y-99404092D01*
X111192470Y-99404094D01*
X111187962Y-99407251D01*
X111032251Y-99562962D01*
X111029094Y-99567470D01*
X111029092Y-99567473D01*
X110937214Y-99698689D01*
X110905944Y-99743347D01*
X110903621Y-99748329D01*
X110903618Y-99748334D01*
X110864195Y-99832878D01*
X110817278Y-99886163D01*
X110749000Y-99905624D01*
X110681040Y-99885082D01*
X110635805Y-99832878D01*
X110596382Y-99748334D01*
X110596379Y-99748329D01*
X110594056Y-99743347D01*
X110562786Y-99698689D01*
X110470908Y-99567473D01*
X110470906Y-99567470D01*
X110467749Y-99562962D01*
X110312038Y-99407251D01*
X110267472Y-99376045D01*
X110194342Y-99324839D01*
X110131654Y-99280944D01*
X109932076Y-99187880D01*
X109719371Y-99130885D01*
X109500000Y-99111693D01*
X109280629Y-99130885D01*
X109067924Y-99187880D01*
X108974562Y-99231415D01*
X108873334Y-99278618D01*
X108873329Y-99278621D01*
X108868347Y-99280944D01*
X108863840Y-99284100D01*
X108863838Y-99284101D01*
X108692473Y-99404092D01*
X108692470Y-99404094D01*
X108687962Y-99407251D01*
X108532251Y-99562962D01*
X108529094Y-99567470D01*
X108529092Y-99567473D01*
X108486232Y-99628683D01*
X108430774Y-99673011D01*
X108360155Y-99680320D01*
X108296795Y-99648289D01*
X108260810Y-99587087D01*
X108257756Y-99570019D01*
X108257480Y-99567473D01*
X108256477Y-99558243D01*
X108252599Y-99522540D01*
X108252598Y-99522536D01*
X108251745Y-99514684D01*
X108200615Y-99378295D01*
X108113261Y-99261739D01*
X107996705Y-99174385D01*
X107860316Y-99123255D01*
X107798134Y-99116500D01*
X106201866Y-99116500D01*
X106139684Y-99123255D01*
X106003295Y-99174385D01*
X105886739Y-99261739D01*
X105799385Y-99378295D01*
X105748255Y-99514684D01*
X105741500Y-99576866D01*
X105741500Y-101173134D01*
X97227485Y-101173134D01*
X97340899Y-101011162D01*
X97340900Y-101011160D01*
X97344056Y-101006653D01*
X97346379Y-101001671D01*
X97346382Y-101001666D01*
X97419055Y-100845816D01*
X97437120Y-100807076D01*
X97494115Y-100594371D01*
X97513307Y-100375000D01*
X97494115Y-100155629D01*
X97437120Y-99942924D01*
X97346498Y-99748583D01*
X97346382Y-99748334D01*
X97346379Y-99748329D01*
X97344056Y-99743347D01*
X97312786Y-99698689D01*
X97220908Y-99567473D01*
X97220906Y-99567470D01*
X97217749Y-99562962D01*
X97062038Y-99407251D01*
X97017472Y-99376045D01*
X96944342Y-99324839D01*
X96881654Y-99280944D01*
X96682076Y-99187880D01*
X96469371Y-99130885D01*
X96250000Y-99111693D01*
X96030629Y-99130885D01*
X95817924Y-99187880D01*
X95724562Y-99231415D01*
X95623334Y-99278618D01*
X95623329Y-99278621D01*
X95618347Y-99280944D01*
X95613840Y-99284100D01*
X95613838Y-99284101D01*
X95442473Y-99404092D01*
X95442470Y-99404094D01*
X95437962Y-99407251D01*
X95282251Y-99562962D01*
X95279094Y-99567470D01*
X95279092Y-99567473D01*
X95187214Y-99698689D01*
X95155944Y-99743347D01*
X95153621Y-99748329D01*
X95153618Y-99748334D01*
X95113919Y-99833470D01*
X95067002Y-99886755D01*
X94998724Y-99906216D01*
X94930765Y-99885674D01*
X94885529Y-99833470D01*
X94845946Y-99748583D01*
X94840466Y-99739093D01*
X94811589Y-99697851D01*
X94801113Y-99689477D01*
X94787666Y-99696545D01*
X94122021Y-100362189D01*
X94114408Y-100376132D01*
X93384356Y-100376132D01*
X93385592Y-100373868D01*
X93385461Y-100372034D01*
X93381210Y-100365420D01*
X92711609Y-99695820D01*
X92699839Y-99689393D01*
X92687824Y-99698689D01*
X92659534Y-99739093D01*
X92654054Y-99748583D01*
X92614471Y-99833470D01*
X92567554Y-99886755D01*
X92499276Y-99906216D01*
X92431316Y-99885674D01*
X92386081Y-99833470D01*
X92346382Y-99748334D01*
X92346379Y-99748329D01*
X92344056Y-99743347D01*
X92312786Y-99698689D01*
X92220908Y-99567473D01*
X92220906Y-99567470D01*
X92217749Y-99562962D01*
X92062038Y-99407251D01*
X92017472Y-99376045D01*
X91944342Y-99324839D01*
X91942982Y-99323887D01*
X93064477Y-99323887D01*
X93071545Y-99337334D01*
X93737189Y-100002979D01*
X93751132Y-100010592D01*
X93752966Y-100010461D01*
X93759580Y-100006210D01*
X94429180Y-99336609D01*
X94435607Y-99324839D01*
X94426313Y-99312825D01*
X94385912Y-99284536D01*
X94376416Y-99279053D01*
X94186887Y-99190674D01*
X94176595Y-99186928D01*
X93974599Y-99132804D01*
X93963804Y-99130901D01*
X93755475Y-99112674D01*
X93744525Y-99112674D01*
X93536196Y-99130901D01*
X93525401Y-99132804D01*
X93323405Y-99186928D01*
X93313113Y-99190674D01*
X93123583Y-99279054D01*
X93114093Y-99284534D01*
X93072851Y-99313411D01*
X93064477Y-99323887D01*
X91942982Y-99323887D01*
X91881654Y-99280944D01*
X91682076Y-99187880D01*
X91469371Y-99130885D01*
X91250000Y-99111693D01*
X91030629Y-99130885D01*
X90817924Y-99187880D01*
X90724562Y-99231415D01*
X90623334Y-99278618D01*
X90623329Y-99278621D01*
X90618347Y-99280944D01*
X90613840Y-99284100D01*
X90613838Y-99284101D01*
X90442473Y-99404092D01*
X90442470Y-99404094D01*
X90437962Y-99407251D01*
X90282251Y-99562962D01*
X90279094Y-99567470D01*
X90279092Y-99567473D01*
X90187214Y-99698689D01*
X90155944Y-99743347D01*
X90153621Y-99748329D01*
X90153618Y-99748334D01*
X90153502Y-99748583D01*
X90062880Y-99942924D01*
X90005885Y-100155629D01*
X89986693Y-100375000D01*
X59599654Y-100375000D01*
X59643542Y-100239928D01*
X59651827Y-100161106D01*
X59662814Y-100056565D01*
X59663504Y-100050000D01*
X59648330Y-99905624D01*
X59644232Y-99866635D01*
X59644232Y-99866633D01*
X59643542Y-99860072D01*
X59584527Y-99678444D01*
X59489040Y-99513056D01*
X59390929Y-99404092D01*
X59365675Y-99376045D01*
X59365674Y-99376044D01*
X59361253Y-99371134D01*
X59206752Y-99258882D01*
X59200724Y-99256198D01*
X59200722Y-99256197D01*
X59038319Y-99183891D01*
X59038318Y-99183891D01*
X59032288Y-99181206D01*
X58938888Y-99161353D01*
X58851944Y-99142872D01*
X58851939Y-99142872D01*
X58845487Y-99141500D01*
X58654513Y-99141500D01*
X58648061Y-99142872D01*
X58648056Y-99142872D01*
X58561112Y-99161353D01*
X58467712Y-99181206D01*
X58461682Y-99183891D01*
X58461681Y-99183891D01*
X58299278Y-99256197D01*
X58299276Y-99256198D01*
X58293248Y-99258882D01*
X58138747Y-99371134D01*
X58134326Y-99376044D01*
X58134325Y-99376045D01*
X58109072Y-99404092D01*
X58010960Y-99513056D01*
X57915473Y-99678444D01*
X57856458Y-99860072D01*
X57855768Y-99866633D01*
X57855768Y-99866635D01*
X57851670Y-99905624D01*
X57836496Y-100050000D01*
X23008500Y-100050000D01*
X23008500Y-96242490D01*
X122174346Y-96242490D01*
X122193373Y-96451562D01*
X122252647Y-96652957D01*
X122349909Y-96839003D01*
X122481456Y-97002614D01*
X122642276Y-97137558D01*
X122647668Y-97140522D01*
X122647672Y-97140525D01*
X122662821Y-97148853D01*
X122826245Y-97238696D01*
X123026354Y-97302174D01*
X123032471Y-97302860D01*
X123032475Y-97302861D01*
X123110392Y-97311600D01*
X123189736Y-97320500D01*
X123302830Y-97320500D01*
X123458934Y-97305194D01*
X123659910Y-97244516D01*
X123676436Y-97235729D01*
X123839826Y-97148853D01*
X123839828Y-97148851D01*
X123845272Y-97145957D01*
X123905308Y-97096993D01*
X124003186Y-97017166D01*
X124003189Y-97017163D01*
X124007961Y-97013271D01*
X124011890Y-97008522D01*
X124137850Y-96856263D01*
X124137852Y-96856259D01*
X124141779Y-96851513D01*
X124241630Y-96666843D01*
X124303710Y-96466295D01*
X124305259Y-96451562D01*
X124325010Y-96263638D01*
X124325010Y-96263637D01*
X124325654Y-96257510D01*
X124306627Y-96048438D01*
X124297584Y-96017710D01*
X124251770Y-95862052D01*
X124247353Y-95847043D01*
X124150091Y-95660997D01*
X124018544Y-95497386D01*
X123857724Y-95362442D01*
X123852332Y-95359478D01*
X123852328Y-95359475D01*
X123679152Y-95264271D01*
X123673755Y-95261304D01*
X123473646Y-95197826D01*
X123467529Y-95197140D01*
X123467525Y-95197139D01*
X123389608Y-95188400D01*
X123310264Y-95179500D01*
X123197170Y-95179500D01*
X123041066Y-95194806D01*
X122840090Y-95255484D01*
X122834649Y-95258377D01*
X122660174Y-95351147D01*
X122660172Y-95351149D01*
X122654728Y-95354043D01*
X122649949Y-95357941D01*
X122496814Y-95482834D01*
X122496811Y-95482837D01*
X122492039Y-95486729D01*
X122488112Y-95491476D01*
X122488110Y-95491478D01*
X122362150Y-95643737D01*
X122362148Y-95643741D01*
X122358221Y-95648487D01*
X122258370Y-95833157D01*
X122196290Y-96033705D01*
X122195646Y-96039830D01*
X122195646Y-96039831D01*
X122194096Y-96054577D01*
X122174346Y-96242490D01*
X23008500Y-96242490D01*
X23008500Y-93445768D01*
X24275302Y-93445768D01*
X24312554Y-93572342D01*
X24317147Y-93583710D01*
X24407566Y-93756666D01*
X24414282Y-93766928D01*
X24536568Y-93919020D01*
X24545152Y-93927786D01*
X24694656Y-94053236D01*
X24704767Y-94060160D01*
X24875798Y-94154184D01*
X24887062Y-94159012D01*
X25073095Y-94218025D01*
X25085084Y-94220573D01*
X25236947Y-94237607D01*
X25243971Y-94238000D01*
X25327885Y-94238000D01*
X25343124Y-94233525D01*
X25344329Y-94232135D01*
X25346000Y-94224452D01*
X25346000Y-94219885D01*
X25854000Y-94219885D01*
X25858475Y-94235124D01*
X25859865Y-94236329D01*
X25867548Y-94238000D01*
X25949124Y-94238000D01*
X25955272Y-94237699D01*
X26100361Y-94223473D01*
X26112396Y-94221090D01*
X26299223Y-94164683D01*
X26310565Y-94160008D01*
X26482879Y-94068388D01*
X26493095Y-94061601D01*
X26644335Y-93938253D01*
X26653039Y-93929609D01*
X26777438Y-93779237D01*
X26784297Y-93769069D01*
X26877121Y-93597393D01*
X26881871Y-93586093D01*
X26923595Y-93451307D01*
X26923676Y-93445768D01*
X28075302Y-93445768D01*
X28112554Y-93572342D01*
X28117147Y-93583710D01*
X28207566Y-93756666D01*
X28214282Y-93766928D01*
X28336568Y-93919020D01*
X28345152Y-93927786D01*
X28494656Y-94053236D01*
X28504767Y-94060160D01*
X28675798Y-94154184D01*
X28687062Y-94159012D01*
X28873095Y-94218025D01*
X28885084Y-94220573D01*
X29036947Y-94237607D01*
X29043971Y-94238000D01*
X29127885Y-94238000D01*
X29143124Y-94233525D01*
X29144329Y-94232135D01*
X29146000Y-94224452D01*
X29146000Y-94219885D01*
X29654000Y-94219885D01*
X29658475Y-94235124D01*
X29659865Y-94236329D01*
X29667548Y-94238000D01*
X29749124Y-94238000D01*
X29755272Y-94237699D01*
X29900361Y-94223473D01*
X29912396Y-94221090D01*
X30099223Y-94164683D01*
X30110565Y-94160008D01*
X30282879Y-94068388D01*
X30293095Y-94061601D01*
X30444335Y-93938253D01*
X30453039Y-93929609D01*
X30577438Y-93779237D01*
X30584297Y-93769069D01*
X30677121Y-93597393D01*
X30681871Y-93586093D01*
X30723595Y-93451307D01*
X30723801Y-93437205D01*
X30717045Y-93434000D01*
X29672115Y-93434000D01*
X29656876Y-93438475D01*
X29655671Y-93439865D01*
X29654000Y-93447548D01*
X29654000Y-94219885D01*
X29146000Y-94219885D01*
X29146000Y-93452115D01*
X29141525Y-93436876D01*
X29140135Y-93435671D01*
X29132452Y-93434000D01*
X28089953Y-93434000D01*
X28076422Y-93437973D01*
X28075302Y-93445768D01*
X26923676Y-93445768D01*
X26923801Y-93437205D01*
X26917045Y-93434000D01*
X25872115Y-93434000D01*
X25856876Y-93438475D01*
X25855671Y-93439865D01*
X25854000Y-93447548D01*
X25854000Y-94219885D01*
X25346000Y-94219885D01*
X25346000Y-93452115D01*
X25341525Y-93436876D01*
X25340135Y-93435671D01*
X25332452Y-93434000D01*
X24289953Y-93434000D01*
X24276422Y-93437973D01*
X24275302Y-93445768D01*
X23008500Y-93445768D01*
X23008500Y-92922795D01*
X24276199Y-92922795D01*
X24282955Y-92926000D01*
X25327885Y-92926000D01*
X25343124Y-92921525D01*
X25344329Y-92920135D01*
X25346000Y-92912452D01*
X25346000Y-92907885D01*
X25854000Y-92907885D01*
X25858475Y-92923124D01*
X25859865Y-92924329D01*
X25867548Y-92926000D01*
X26910047Y-92926000D01*
X26920962Y-92922795D01*
X28076199Y-92922795D01*
X28082955Y-92926000D01*
X29127885Y-92926000D01*
X29143124Y-92921525D01*
X29144329Y-92920135D01*
X29146000Y-92912452D01*
X29146000Y-92907885D01*
X29654000Y-92907885D01*
X29658475Y-92923124D01*
X29659865Y-92924329D01*
X29667548Y-92926000D01*
X30710047Y-92926000D01*
X30723578Y-92922027D01*
X30724698Y-92914232D01*
X30687446Y-92787658D01*
X30682853Y-92776290D01*
X30669109Y-92750000D01*
X47836496Y-92750000D01*
X47837186Y-92756565D01*
X47854577Y-92922027D01*
X47856458Y-92939928D01*
X47915473Y-93121556D01*
X48010960Y-93286944D01*
X48015378Y-93291851D01*
X48015379Y-93291852D01*
X48037694Y-93316635D01*
X48138747Y-93428866D01*
X48293248Y-93541118D01*
X48299276Y-93543802D01*
X48299278Y-93543803D01*
X48394264Y-93586093D01*
X48467712Y-93618794D01*
X48561112Y-93638647D01*
X48648056Y-93657128D01*
X48648061Y-93657128D01*
X48654513Y-93658500D01*
X48845487Y-93658500D01*
X48851939Y-93657128D01*
X48851944Y-93657128D01*
X48938888Y-93638647D01*
X49032288Y-93618794D01*
X49105736Y-93586093D01*
X49200722Y-93543803D01*
X49200724Y-93543802D01*
X49206752Y-93541118D01*
X49263346Y-93500000D01*
X56086496Y-93500000D01*
X56087186Y-93506565D01*
X56104238Y-93668802D01*
X56106458Y-93689928D01*
X56165473Y-93871556D01*
X56260960Y-94036944D01*
X56265378Y-94041851D01*
X56265379Y-94041852D01*
X56384325Y-94173955D01*
X56388747Y-94178866D01*
X56462065Y-94232135D01*
X56532631Y-94283404D01*
X56543248Y-94291118D01*
X56549276Y-94293802D01*
X56549278Y-94293803D01*
X56691952Y-94357325D01*
X56717712Y-94368794D01*
X56811113Y-94388647D01*
X56898056Y-94407128D01*
X56898061Y-94407128D01*
X56904513Y-94408500D01*
X57095487Y-94408500D01*
X57101939Y-94407128D01*
X57101944Y-94407128D01*
X57188887Y-94388647D01*
X57282288Y-94368794D01*
X57308048Y-94357325D01*
X57450722Y-94293803D01*
X57450724Y-94293802D01*
X57456752Y-94291118D01*
X57467370Y-94283404D01*
X57537935Y-94232135D01*
X57611253Y-94178866D01*
X57615675Y-94173955D01*
X57734621Y-94041852D01*
X57734622Y-94041851D01*
X57739040Y-94036944D01*
X57834527Y-93871556D01*
X57893542Y-93689928D01*
X57895763Y-93668802D01*
X57912814Y-93506565D01*
X57913504Y-93500000D01*
X57906904Y-93437205D01*
X57897457Y-93347320D01*
X86706822Y-93347320D01*
X86707011Y-93351112D01*
X86720337Y-93618794D01*
X86722640Y-93665063D01*
X86723281Y-93668794D01*
X86723282Y-93668802D01*
X86767784Y-93927786D01*
X86776516Y-93978605D01*
X86777604Y-93982244D01*
X86777605Y-93982247D01*
X86853975Y-94237607D01*
X86867671Y-94283404D01*
X86869184Y-94286875D01*
X86869186Y-94286881D01*
X86903718Y-94366109D01*
X86994782Y-94575044D01*
X87156009Y-94849300D01*
X87158310Y-94852315D01*
X87346718Y-95099189D01*
X87346723Y-95099194D01*
X87349018Y-95102202D01*
X87351662Y-95104916D01*
X87502194Y-95259441D01*
X87571011Y-95330084D01*
X87697993Y-95432363D01*
X87815820Y-95527268D01*
X87815825Y-95527272D01*
X87818773Y-95529646D01*
X88088715Y-95697997D01*
X88376928Y-95832700D01*
X88404029Y-95841584D01*
X88675632Y-95930620D01*
X88675639Y-95930622D01*
X88679236Y-95931801D01*
X88991260Y-95993867D01*
X89149870Y-96005932D01*
X89304703Y-96017710D01*
X89304708Y-96017710D01*
X89308480Y-96017997D01*
X89626302Y-96003843D01*
X89630040Y-96003221D01*
X89630048Y-96003220D01*
X89936380Y-95952232D01*
X89936383Y-95952231D01*
X89940122Y-95951609D01*
X90245394Y-95862052D01*
X90248861Y-95860562D01*
X90248865Y-95860561D01*
X90534211Y-95737966D01*
X90534213Y-95737965D01*
X90537695Y-95736469D01*
X90812793Y-95576680D01*
X91066701Y-95384999D01*
X91295742Y-95164202D01*
X91496599Y-94917488D01*
X91498609Y-94914302D01*
X91498615Y-94914294D01*
X91664340Y-94651636D01*
X91664341Y-94651633D01*
X91666362Y-94648431D01*
X91802571Y-94360927D01*
X91845076Y-94233525D01*
X91863311Y-94178866D01*
X91903254Y-94059142D01*
X91966952Y-93747447D01*
X91992743Y-93430358D01*
X91993323Y-93375000D01*
X91991655Y-93347320D01*
X95506822Y-93347320D01*
X95507011Y-93351112D01*
X95520337Y-93618794D01*
X95522640Y-93665063D01*
X95523281Y-93668794D01*
X95523282Y-93668802D01*
X95567784Y-93927786D01*
X95576516Y-93978605D01*
X95577604Y-93982244D01*
X95577605Y-93982247D01*
X95653975Y-94237607D01*
X95667671Y-94283404D01*
X95669184Y-94286875D01*
X95669186Y-94286881D01*
X95703718Y-94366109D01*
X95794782Y-94575044D01*
X95956009Y-94849300D01*
X95958310Y-94852315D01*
X96146718Y-95099189D01*
X96146723Y-95099194D01*
X96149018Y-95102202D01*
X96151662Y-95104916D01*
X96302194Y-95259441D01*
X96371011Y-95330084D01*
X96497993Y-95432363D01*
X96615820Y-95527268D01*
X96615825Y-95527272D01*
X96618773Y-95529646D01*
X96888715Y-95697997D01*
X97176928Y-95832700D01*
X97204029Y-95841584D01*
X97475632Y-95930620D01*
X97475639Y-95930622D01*
X97479236Y-95931801D01*
X97791260Y-95993867D01*
X97949870Y-96005932D01*
X98104703Y-96017710D01*
X98104708Y-96017710D01*
X98108480Y-96017997D01*
X98426302Y-96003843D01*
X98430040Y-96003221D01*
X98430048Y-96003220D01*
X98736380Y-95952232D01*
X98736383Y-95952231D01*
X98740122Y-95951609D01*
X99045394Y-95862052D01*
X99048861Y-95860562D01*
X99048865Y-95860561D01*
X99334211Y-95737966D01*
X99334213Y-95737965D01*
X99337695Y-95736469D01*
X99612793Y-95576680D01*
X99866701Y-95384999D01*
X100095742Y-95164202D01*
X100296599Y-94917488D01*
X100298609Y-94914302D01*
X100298615Y-94914294D01*
X100464340Y-94651636D01*
X100464341Y-94651633D01*
X100466362Y-94648431D01*
X100602571Y-94360927D01*
X100645076Y-94233525D01*
X100663311Y-94178866D01*
X100703254Y-94059142D01*
X100766952Y-93747447D01*
X100792743Y-93430358D01*
X100793323Y-93375000D01*
X100791655Y-93347320D01*
X102456822Y-93347320D01*
X102457011Y-93351112D01*
X102470337Y-93618794D01*
X102472640Y-93665063D01*
X102473281Y-93668794D01*
X102473282Y-93668802D01*
X102517784Y-93927786D01*
X102526516Y-93978605D01*
X102527604Y-93982244D01*
X102527605Y-93982247D01*
X102603975Y-94237607D01*
X102617671Y-94283404D01*
X102619184Y-94286875D01*
X102619186Y-94286881D01*
X102653718Y-94366109D01*
X102744782Y-94575044D01*
X102906009Y-94849300D01*
X102908310Y-94852315D01*
X103096718Y-95099189D01*
X103096723Y-95099194D01*
X103099018Y-95102202D01*
X103101662Y-95104916D01*
X103252194Y-95259441D01*
X103321011Y-95330084D01*
X103447993Y-95432363D01*
X103565820Y-95527268D01*
X103565825Y-95527272D01*
X103568773Y-95529646D01*
X103838715Y-95697997D01*
X104126928Y-95832700D01*
X104154029Y-95841584D01*
X104425632Y-95930620D01*
X104425639Y-95930622D01*
X104429236Y-95931801D01*
X104741260Y-95993867D01*
X104899870Y-96005932D01*
X105054703Y-96017710D01*
X105054708Y-96017710D01*
X105058480Y-96017997D01*
X105376302Y-96003843D01*
X105380040Y-96003221D01*
X105380048Y-96003220D01*
X105686380Y-95952232D01*
X105686383Y-95952231D01*
X105690122Y-95951609D01*
X105995394Y-95862052D01*
X105998861Y-95860562D01*
X105998865Y-95860561D01*
X106284211Y-95737966D01*
X106284213Y-95737965D01*
X106287695Y-95736469D01*
X106562793Y-95576680D01*
X106816701Y-95384999D01*
X107045742Y-95164202D01*
X107246599Y-94917488D01*
X107248609Y-94914302D01*
X107248615Y-94914294D01*
X107414340Y-94651636D01*
X107414341Y-94651633D01*
X107416362Y-94648431D01*
X107552571Y-94360927D01*
X107595076Y-94233525D01*
X107613311Y-94178866D01*
X107653254Y-94059142D01*
X107716952Y-93747447D01*
X107742743Y-93430358D01*
X107743323Y-93375000D01*
X107741655Y-93347320D01*
X111256822Y-93347320D01*
X111257011Y-93351112D01*
X111270337Y-93618794D01*
X111272640Y-93665063D01*
X111273281Y-93668794D01*
X111273282Y-93668802D01*
X111317784Y-93927786D01*
X111326516Y-93978605D01*
X111327604Y-93982244D01*
X111327605Y-93982247D01*
X111403975Y-94237607D01*
X111417671Y-94283404D01*
X111419184Y-94286875D01*
X111419186Y-94286881D01*
X111453718Y-94366109D01*
X111544782Y-94575044D01*
X111706009Y-94849300D01*
X111708310Y-94852315D01*
X111896718Y-95099189D01*
X111896723Y-95099194D01*
X111899018Y-95102202D01*
X111901662Y-95104916D01*
X112052194Y-95259441D01*
X112121011Y-95330084D01*
X112247993Y-95432363D01*
X112365820Y-95527268D01*
X112365825Y-95527272D01*
X112368773Y-95529646D01*
X112638715Y-95697997D01*
X112926928Y-95832700D01*
X112954029Y-95841584D01*
X113225632Y-95930620D01*
X113225639Y-95930622D01*
X113229236Y-95931801D01*
X113541260Y-95993867D01*
X113699870Y-96005932D01*
X113854703Y-96017710D01*
X113854708Y-96017710D01*
X113858480Y-96017997D01*
X114176302Y-96003843D01*
X114180040Y-96003221D01*
X114180048Y-96003220D01*
X114486380Y-95952232D01*
X114486383Y-95952231D01*
X114490122Y-95951609D01*
X114795394Y-95862052D01*
X114798861Y-95860562D01*
X114798865Y-95860561D01*
X115084211Y-95737966D01*
X115084213Y-95737965D01*
X115087695Y-95736469D01*
X115362793Y-95576680D01*
X115616701Y-95384999D01*
X115845742Y-95164202D01*
X116046599Y-94917488D01*
X116048609Y-94914302D01*
X116048615Y-94914294D01*
X116214340Y-94651636D01*
X116214341Y-94651633D01*
X116216362Y-94648431D01*
X116352571Y-94360927D01*
X116395076Y-94233525D01*
X116413311Y-94178866D01*
X116453254Y-94059142D01*
X116516952Y-93747447D01*
X116542743Y-93430358D01*
X116543323Y-93375000D01*
X116541655Y-93347320D01*
X116524406Y-93061218D01*
X116524406Y-93061214D01*
X116524178Y-93057440D01*
X116519163Y-93029977D01*
X116474908Y-92787658D01*
X116467022Y-92744479D01*
X116372681Y-92440652D01*
X116362712Y-92418417D01*
X116244072Y-92153816D01*
X116242522Y-92150359D01*
X116237475Y-92141975D01*
X116080381Y-91881042D01*
X116080380Y-91881040D01*
X116078432Y-91877805D01*
X116076112Y-91874830D01*
X116076107Y-91874823D01*
X115885122Y-91629934D01*
X115885120Y-91629932D01*
X115882786Y-91626939D01*
X115658419Y-91401394D01*
X115408580Y-91204437D01*
X115136890Y-91038922D01*
X115021400Y-90986412D01*
X114850734Y-90908814D01*
X114850727Y-90908811D01*
X114847282Y-90907245D01*
X114543953Y-90811315D01*
X114330881Y-90771247D01*
X114235019Y-90753220D01*
X114235017Y-90753220D01*
X114231296Y-90752520D01*
X113913840Y-90731713D01*
X113910060Y-90731921D01*
X113910059Y-90731921D01*
X113815956Y-90737100D01*
X113596184Y-90749195D01*
X113592457Y-90749856D01*
X113592453Y-90749856D01*
X113481943Y-90769441D01*
X113282929Y-90804712D01*
X113279313Y-90805814D01*
X113279305Y-90805816D01*
X112982233Y-90896357D01*
X112978611Y-90897461D01*
X112687641Y-91026098D01*
X112414232Y-91188759D01*
X112162345Y-91383089D01*
X111935628Y-91606272D01*
X111737366Y-91855075D01*
X111570430Y-92125896D01*
X111437239Y-92414810D01*
X111436080Y-92418410D01*
X111436077Y-92418417D01*
X111366689Y-92633891D01*
X111339722Y-92717632D01*
X111339003Y-92721348D01*
X111339001Y-92721356D01*
X111280010Y-93026258D01*
X111280009Y-93026267D01*
X111279291Y-93029977D01*
X111279024Y-93033753D01*
X111279023Y-93033758D01*
X111257090Y-93343531D01*
X111256822Y-93347320D01*
X107741655Y-93347320D01*
X107724406Y-93061218D01*
X107724406Y-93061214D01*
X107724178Y-93057440D01*
X107719163Y-93029977D01*
X107674908Y-92787658D01*
X107667022Y-92744479D01*
X107572681Y-92440652D01*
X107562712Y-92418417D01*
X107444072Y-92153816D01*
X107442522Y-92150359D01*
X107437475Y-92141975D01*
X107280381Y-91881042D01*
X107280380Y-91881040D01*
X107278432Y-91877805D01*
X107276112Y-91874830D01*
X107276107Y-91874823D01*
X107085122Y-91629934D01*
X107085120Y-91629932D01*
X107082786Y-91626939D01*
X106858419Y-91401394D01*
X106608580Y-91204437D01*
X106336890Y-91038922D01*
X106221400Y-90986412D01*
X106050734Y-90908814D01*
X106050727Y-90908811D01*
X106047282Y-90907245D01*
X105743953Y-90811315D01*
X105530881Y-90771247D01*
X105435019Y-90753220D01*
X105435017Y-90753220D01*
X105431296Y-90752520D01*
X105113840Y-90731713D01*
X105110060Y-90731921D01*
X105110059Y-90731921D01*
X105015956Y-90737100D01*
X104796184Y-90749195D01*
X104792457Y-90749856D01*
X104792453Y-90749856D01*
X104681943Y-90769441D01*
X104482929Y-90804712D01*
X104479313Y-90805814D01*
X104479305Y-90805816D01*
X104182233Y-90896357D01*
X104178611Y-90897461D01*
X103887641Y-91026098D01*
X103614232Y-91188759D01*
X103362345Y-91383089D01*
X103135628Y-91606272D01*
X102937366Y-91855075D01*
X102770430Y-92125896D01*
X102637239Y-92414810D01*
X102636080Y-92418410D01*
X102636077Y-92418417D01*
X102566689Y-92633891D01*
X102539722Y-92717632D01*
X102539003Y-92721348D01*
X102539001Y-92721356D01*
X102480010Y-93026258D01*
X102480009Y-93026267D01*
X102479291Y-93029977D01*
X102479024Y-93033753D01*
X102479023Y-93033758D01*
X102457090Y-93343531D01*
X102456822Y-93347320D01*
X100791655Y-93347320D01*
X100774406Y-93061218D01*
X100774406Y-93061214D01*
X100774178Y-93057440D01*
X100769163Y-93029977D01*
X100724908Y-92787658D01*
X100717022Y-92744479D01*
X100622681Y-92440652D01*
X100612712Y-92418417D01*
X100494072Y-92153816D01*
X100492522Y-92150359D01*
X100487475Y-92141975D01*
X100330381Y-91881042D01*
X100330380Y-91881040D01*
X100328432Y-91877805D01*
X100326112Y-91874830D01*
X100326107Y-91874823D01*
X100135122Y-91629934D01*
X100135120Y-91629932D01*
X100132786Y-91626939D01*
X99908419Y-91401394D01*
X99658580Y-91204437D01*
X99386890Y-91038922D01*
X99271400Y-90986412D01*
X99100734Y-90908814D01*
X99100727Y-90908811D01*
X99097282Y-90907245D01*
X98793953Y-90811315D01*
X98580881Y-90771247D01*
X98485019Y-90753220D01*
X98485017Y-90753220D01*
X98481296Y-90752520D01*
X98163840Y-90731713D01*
X98160060Y-90731921D01*
X98160059Y-90731921D01*
X98065956Y-90737100D01*
X97846184Y-90749195D01*
X97842457Y-90749856D01*
X97842453Y-90749856D01*
X97731943Y-90769441D01*
X97532929Y-90804712D01*
X97529313Y-90805814D01*
X97529305Y-90805816D01*
X97232233Y-90896357D01*
X97228611Y-90897461D01*
X96937641Y-91026098D01*
X96664232Y-91188759D01*
X96412345Y-91383089D01*
X96185628Y-91606272D01*
X95987366Y-91855075D01*
X95820430Y-92125896D01*
X95687239Y-92414810D01*
X95686080Y-92418410D01*
X95686077Y-92418417D01*
X95616689Y-92633891D01*
X95589722Y-92717632D01*
X95589003Y-92721348D01*
X95589001Y-92721356D01*
X95530010Y-93026258D01*
X95530009Y-93026267D01*
X95529291Y-93029977D01*
X95529024Y-93033753D01*
X95529023Y-93033758D01*
X95507090Y-93343531D01*
X95506822Y-93347320D01*
X91991655Y-93347320D01*
X91974406Y-93061218D01*
X91974406Y-93061214D01*
X91974178Y-93057440D01*
X91969163Y-93029977D01*
X91924908Y-92787658D01*
X91917022Y-92744479D01*
X91822681Y-92440652D01*
X91812712Y-92418417D01*
X91694072Y-92153816D01*
X91692522Y-92150359D01*
X91687475Y-92141975D01*
X91530381Y-91881042D01*
X91530380Y-91881040D01*
X91528432Y-91877805D01*
X91526112Y-91874830D01*
X91526107Y-91874823D01*
X91335122Y-91629934D01*
X91335120Y-91629932D01*
X91332786Y-91626939D01*
X91108419Y-91401394D01*
X90858580Y-91204437D01*
X90586890Y-91038922D01*
X90471400Y-90986412D01*
X90300734Y-90908814D01*
X90300727Y-90908811D01*
X90297282Y-90907245D01*
X89993953Y-90811315D01*
X89780881Y-90771247D01*
X89685019Y-90753220D01*
X89685017Y-90753220D01*
X89681296Y-90752520D01*
X89363840Y-90731713D01*
X89360060Y-90731921D01*
X89360059Y-90731921D01*
X89265956Y-90737100D01*
X89046184Y-90749195D01*
X89042457Y-90749856D01*
X89042453Y-90749856D01*
X88931943Y-90769441D01*
X88732929Y-90804712D01*
X88729313Y-90805814D01*
X88729305Y-90805816D01*
X88432233Y-90896357D01*
X88428611Y-90897461D01*
X88137641Y-91026098D01*
X87864232Y-91188759D01*
X87612345Y-91383089D01*
X87385628Y-91606272D01*
X87187366Y-91855075D01*
X87020430Y-92125896D01*
X86887239Y-92414810D01*
X86886080Y-92418410D01*
X86886077Y-92418417D01*
X86816689Y-92633891D01*
X86789722Y-92717632D01*
X86789003Y-92721348D01*
X86789001Y-92721356D01*
X86730010Y-93026258D01*
X86730009Y-93026267D01*
X86729291Y-93029977D01*
X86729024Y-93033753D01*
X86729023Y-93033758D01*
X86707090Y-93343531D01*
X86706822Y-93347320D01*
X57897457Y-93347320D01*
X57894232Y-93316635D01*
X57894232Y-93316633D01*
X57893542Y-93310072D01*
X57834527Y-93128444D01*
X57739040Y-92963056D01*
X57718216Y-92939928D01*
X57615675Y-92826045D01*
X57615674Y-92826044D01*
X57611253Y-92821134D01*
X57473921Y-92721356D01*
X57462094Y-92712763D01*
X57462093Y-92712762D01*
X57456752Y-92708882D01*
X57450724Y-92706198D01*
X57450722Y-92706197D01*
X57288319Y-92633891D01*
X57288318Y-92633891D01*
X57282288Y-92631206D01*
X57188888Y-92611353D01*
X57101944Y-92592872D01*
X57101939Y-92592872D01*
X57095487Y-92591500D01*
X56904513Y-92591500D01*
X56898061Y-92592872D01*
X56898056Y-92592872D01*
X56811112Y-92611353D01*
X56717712Y-92631206D01*
X56711682Y-92633891D01*
X56711681Y-92633891D01*
X56549278Y-92706197D01*
X56549276Y-92706198D01*
X56543248Y-92708882D01*
X56537907Y-92712762D01*
X56537906Y-92712763D01*
X56526079Y-92721356D01*
X56388747Y-92821134D01*
X56384326Y-92826044D01*
X56384325Y-92826045D01*
X56281785Y-92939928D01*
X56260960Y-92963056D01*
X56165473Y-93128444D01*
X56106458Y-93310072D01*
X56105768Y-93316633D01*
X56105768Y-93316635D01*
X56093096Y-93437205D01*
X56086496Y-93500000D01*
X49263346Y-93500000D01*
X49361253Y-93428866D01*
X49462306Y-93316635D01*
X49484621Y-93291852D01*
X49484622Y-93291851D01*
X49489040Y-93286944D01*
X49584527Y-93121556D01*
X49643542Y-92939928D01*
X49645424Y-92922027D01*
X49662814Y-92756565D01*
X49663504Y-92750000D01*
X49651301Y-92633891D01*
X49644232Y-92566635D01*
X49644232Y-92566633D01*
X49643542Y-92560072D01*
X49584527Y-92378444D01*
X49489040Y-92213056D01*
X49432588Y-92150359D01*
X49365675Y-92076045D01*
X49365674Y-92076044D01*
X49361253Y-92071134D01*
X49206752Y-91958882D01*
X49200724Y-91956198D01*
X49200722Y-91956197D01*
X49038319Y-91883891D01*
X49038318Y-91883891D01*
X49032288Y-91881206D01*
X48924548Y-91858305D01*
X48851944Y-91842872D01*
X48851939Y-91842872D01*
X48845487Y-91841500D01*
X48654513Y-91841500D01*
X48648061Y-91842872D01*
X48648056Y-91842872D01*
X48575452Y-91858305D01*
X48467712Y-91881206D01*
X48461682Y-91883891D01*
X48461681Y-91883891D01*
X48299278Y-91956197D01*
X48299276Y-91956198D01*
X48293248Y-91958882D01*
X48138747Y-92071134D01*
X48134326Y-92076044D01*
X48134325Y-92076045D01*
X48067413Y-92150359D01*
X48010960Y-92213056D01*
X47915473Y-92378444D01*
X47856458Y-92560072D01*
X47855768Y-92566633D01*
X47855768Y-92566635D01*
X47848699Y-92633891D01*
X47836496Y-92750000D01*
X30669109Y-92750000D01*
X30592434Y-92603334D01*
X30585718Y-92593072D01*
X30463432Y-92440980D01*
X30454848Y-92432214D01*
X30305344Y-92306764D01*
X30295233Y-92299840D01*
X30124202Y-92205816D01*
X30112938Y-92200988D01*
X29926905Y-92141975D01*
X29914916Y-92139427D01*
X29763053Y-92122393D01*
X29756029Y-92122000D01*
X29672115Y-92122000D01*
X29656876Y-92126475D01*
X29655671Y-92127865D01*
X29654000Y-92135548D01*
X29654000Y-92907885D01*
X29146000Y-92907885D01*
X29146000Y-92140115D01*
X29141525Y-92124876D01*
X29140135Y-92123671D01*
X29132452Y-92122000D01*
X29050876Y-92122000D01*
X29044728Y-92122301D01*
X28899639Y-92136527D01*
X28887604Y-92138910D01*
X28700777Y-92195317D01*
X28689435Y-92199992D01*
X28517121Y-92291612D01*
X28506905Y-92298399D01*
X28355665Y-92421747D01*
X28346961Y-92430391D01*
X28222562Y-92580763D01*
X28215703Y-92590931D01*
X28122879Y-92762607D01*
X28118129Y-92773907D01*
X28076405Y-92908693D01*
X28076199Y-92922795D01*
X26920962Y-92922795D01*
X26923578Y-92922027D01*
X26924698Y-92914232D01*
X26887446Y-92787658D01*
X26882853Y-92776290D01*
X26792434Y-92603334D01*
X26785718Y-92593072D01*
X26663432Y-92440980D01*
X26654848Y-92432214D01*
X26505344Y-92306764D01*
X26495233Y-92299840D01*
X26324202Y-92205816D01*
X26312938Y-92200988D01*
X26126905Y-92141975D01*
X26114916Y-92139427D01*
X25963053Y-92122393D01*
X25956029Y-92122000D01*
X25872115Y-92122000D01*
X25856876Y-92126475D01*
X25855671Y-92127865D01*
X25854000Y-92135548D01*
X25854000Y-92907885D01*
X25346000Y-92907885D01*
X25346000Y-92140115D01*
X25341525Y-92124876D01*
X25340135Y-92123671D01*
X25332452Y-92122000D01*
X25250876Y-92122000D01*
X25244728Y-92122301D01*
X25099639Y-92136527D01*
X25087604Y-92138910D01*
X24900777Y-92195317D01*
X24889435Y-92199992D01*
X24717121Y-92291612D01*
X24706905Y-92298399D01*
X24555665Y-92421747D01*
X24546961Y-92430391D01*
X24422562Y-92580763D01*
X24415703Y-92590931D01*
X24322879Y-92762607D01*
X24318129Y-92773907D01*
X24276405Y-92908693D01*
X24276199Y-92922795D01*
X23008500Y-92922795D01*
X23008500Y-89053250D01*
X23009416Y-89042277D01*
X24137009Y-89042277D01*
X24162625Y-89310769D01*
X24163710Y-89315203D01*
X24163711Y-89315209D01*
X24215785Y-89528017D01*
X24226731Y-89572750D01*
X24327985Y-89822733D01*
X24464265Y-90055482D01*
X24467118Y-90059049D01*
X24615440Y-90244516D01*
X24632716Y-90266119D01*
X24829809Y-90450234D01*
X25051416Y-90603968D01*
X25055499Y-90605999D01*
X25055502Y-90606001D01*
X25171013Y-90663466D01*
X25292894Y-90724101D01*
X25297228Y-90725522D01*
X25297231Y-90725523D01*
X25544853Y-90806698D01*
X25544859Y-90806699D01*
X25549186Y-90808118D01*
X25553677Y-90808898D01*
X25553678Y-90808898D01*
X25811140Y-90853601D01*
X25811148Y-90853602D01*
X25814921Y-90854257D01*
X25818758Y-90854448D01*
X25898578Y-90858422D01*
X25898586Y-90858422D01*
X25900149Y-90858500D01*
X26068512Y-90858500D01*
X26070780Y-90858335D01*
X26070792Y-90858335D01*
X26201884Y-90848823D01*
X26269004Y-90843953D01*
X26273459Y-90842969D01*
X26273462Y-90842969D01*
X26527912Y-90786791D01*
X26527916Y-90786790D01*
X26532372Y-90785806D01*
X26675148Y-90731713D01*
X26780318Y-90691868D01*
X26780321Y-90691867D01*
X26784588Y-90690250D01*
X27020368Y-90559286D01*
X27234773Y-90395657D01*
X27308539Y-90320199D01*
X27420117Y-90206060D01*
X27423312Y-90202792D01*
X27582034Y-89984730D01*
X27654975Y-89846092D01*
X27705490Y-89750079D01*
X27705493Y-89750073D01*
X27707615Y-89746039D01*
X27717249Y-89718760D01*
X27795902Y-89496033D01*
X27795902Y-89496032D01*
X27797425Y-89491720D01*
X27837728Y-89287237D01*
X27848700Y-89231572D01*
X27848701Y-89231566D01*
X27849581Y-89227100D01*
X27853905Y-89140247D01*
X27862764Y-88962292D01*
X27862764Y-88962286D01*
X27862991Y-88957723D01*
X27837375Y-88689231D01*
X27835309Y-88680785D01*
X27774355Y-88431688D01*
X27773269Y-88427250D01*
X27672015Y-88177267D01*
X27553133Y-87974232D01*
X27538045Y-87948463D01*
X27538044Y-87948462D01*
X27535735Y-87944518D01*
X27417928Y-87797208D01*
X27380175Y-87750000D01*
X29856496Y-87750000D01*
X29857186Y-87756565D01*
X29871213Y-87890020D01*
X29876458Y-87939928D01*
X29935473Y-88121556D01*
X29938776Y-88127278D01*
X29938777Y-88127279D01*
X29954471Y-88154462D01*
X30030960Y-88286944D01*
X30035378Y-88291851D01*
X30035379Y-88291852D01*
X30133917Y-88401290D01*
X30158747Y-88428866D01*
X30247618Y-88493435D01*
X30268051Y-88508280D01*
X30313248Y-88541118D01*
X30319276Y-88543802D01*
X30319278Y-88543803D01*
X30481681Y-88616109D01*
X30487712Y-88618794D01*
X30581113Y-88638647D01*
X30668056Y-88657128D01*
X30668061Y-88657128D01*
X30674513Y-88658500D01*
X30865487Y-88658500D01*
X30871939Y-88657128D01*
X30871944Y-88657128D01*
X30958887Y-88638647D01*
X31052288Y-88618794D01*
X31058319Y-88616109D01*
X31220722Y-88543803D01*
X31220724Y-88543802D01*
X31226752Y-88541118D01*
X31271950Y-88508280D01*
X31292382Y-88493435D01*
X31381253Y-88428866D01*
X31406083Y-88401290D01*
X31410522Y-88396360D01*
X38011449Y-88396360D01*
X38031622Y-88652686D01*
X38032776Y-88657493D01*
X38032777Y-88657499D01*
X38061980Y-88779137D01*
X38091645Y-88902700D01*
X38093538Y-88907271D01*
X38093539Y-88907273D01*
X38183430Y-89124288D01*
X38190040Y-89140247D01*
X38324384Y-89359476D01*
X38491369Y-89554991D01*
X38686884Y-89721976D01*
X38906113Y-89856320D01*
X38910683Y-89858213D01*
X38910687Y-89858215D01*
X39139087Y-89952821D01*
X39143660Y-89954715D01*
X39230502Y-89975564D01*
X39388861Y-90013583D01*
X39388867Y-90013584D01*
X39393674Y-90014738D01*
X39650000Y-90034911D01*
X39906326Y-90014738D01*
X39911133Y-90013584D01*
X39911139Y-90013583D01*
X40069498Y-89975564D01*
X40156340Y-89954715D01*
X40160913Y-89952821D01*
X40389313Y-89858215D01*
X40389317Y-89858213D01*
X40393887Y-89856320D01*
X40613116Y-89721976D01*
X40808631Y-89554991D01*
X40855086Y-89500599D01*
X40950604Y-89388762D01*
X41010054Y-89349952D01*
X41081049Y-89349446D01*
X41116417Y-89365827D01*
X41190279Y-89415180D01*
X41200389Y-89420670D01*
X41385318Y-89500122D01*
X41396261Y-89503677D01*
X41592567Y-89548097D01*
X41603975Y-89549599D01*
X41805096Y-89557500D01*
X41816580Y-89556898D01*
X42015774Y-89528017D01*
X42026957Y-89525332D01*
X42217547Y-89460636D01*
X42228060Y-89455955D01*
X42354766Y-89384995D01*
X42364631Y-89374917D01*
X42361675Y-89367245D01*
X41479885Y-88485455D01*
X41445859Y-88423143D01*
X41447694Y-88397492D01*
X42114408Y-88397492D01*
X42114539Y-88399325D01*
X42118790Y-88405940D01*
X42716971Y-89004121D01*
X42762711Y-89029098D01*
X42805221Y-89066965D01*
X42865296Y-89151969D01*
X42929604Y-89214615D01*
X42973637Y-89257510D01*
X43017809Y-89300541D01*
X43022605Y-89303746D01*
X43022608Y-89303748D01*
X43115939Y-89366109D01*
X43194843Y-89418831D01*
X43200146Y-89421109D01*
X43200149Y-89421111D01*
X43384053Y-89500122D01*
X43390470Y-89502879D01*
X43466316Y-89520041D01*
X43592501Y-89548594D01*
X43592506Y-89548595D01*
X43598138Y-89549869D01*
X43603909Y-89550096D01*
X43603911Y-89550096D01*
X43665252Y-89552506D01*
X43810891Y-89558229D01*
X43816600Y-89557401D01*
X43816604Y-89557401D01*
X44015890Y-89528505D01*
X44015894Y-89528504D01*
X44021605Y-89527676D01*
X44223223Y-89459236D01*
X44408993Y-89355200D01*
X44415912Y-89349446D01*
X44568255Y-89222744D01*
X44572693Y-89219053D01*
X44642039Y-89135673D01*
X44651508Y-89124288D01*
X44710445Y-89084704D01*
X44781427Y-89083267D01*
X44841918Y-89120435D01*
X44851278Y-89132135D01*
X44859994Y-89144467D01*
X44865296Y-89151969D01*
X44929118Y-89214142D01*
X44973637Y-89257510D01*
X45017809Y-89300541D01*
X45022605Y-89303746D01*
X45022608Y-89303748D01*
X45115939Y-89366109D01*
X45194843Y-89418831D01*
X45200146Y-89421109D01*
X45200149Y-89421111D01*
X45384053Y-89500122D01*
X45390470Y-89502879D01*
X45466316Y-89520041D01*
X45592501Y-89548594D01*
X45592506Y-89548595D01*
X45598138Y-89549869D01*
X45603909Y-89550096D01*
X45603911Y-89550096D01*
X45665252Y-89552506D01*
X45810891Y-89558229D01*
X45816600Y-89557401D01*
X45816604Y-89557401D01*
X46015890Y-89528505D01*
X46015894Y-89528504D01*
X46021605Y-89527676D01*
X46223223Y-89459236D01*
X46292088Y-89420670D01*
X46394359Y-89363396D01*
X46463568Y-89347563D01*
X46530350Y-89371660D01*
X46551735Y-89391500D01*
X46691369Y-89554991D01*
X46886884Y-89721976D01*
X47106113Y-89856320D01*
X47110683Y-89858213D01*
X47110687Y-89858215D01*
X47339087Y-89952821D01*
X47343660Y-89954715D01*
X47430502Y-89975564D01*
X47588861Y-90013583D01*
X47588867Y-90013584D01*
X47593674Y-90014738D01*
X47850000Y-90034911D01*
X48106326Y-90014738D01*
X48111133Y-90013584D01*
X48111139Y-90013583D01*
X48269498Y-89975564D01*
X48356340Y-89954715D01*
X48360913Y-89952821D01*
X48589313Y-89858215D01*
X48589317Y-89858213D01*
X48593887Y-89856320D01*
X48813116Y-89721976D01*
X49008631Y-89554991D01*
X49175616Y-89359476D01*
X49309960Y-89140247D01*
X49316571Y-89124288D01*
X49406461Y-88907273D01*
X49406462Y-88907271D01*
X49408355Y-88902700D01*
X49438020Y-88779137D01*
X49467223Y-88657499D01*
X49467224Y-88657493D01*
X49468378Y-88652686D01*
X49480394Y-88500000D01*
X55586496Y-88500000D01*
X55587186Y-88506565D01*
X55604725Y-88673435D01*
X55606458Y-88689928D01*
X55665473Y-88871556D01*
X55760960Y-89036944D01*
X55765378Y-89041851D01*
X55765379Y-89041852D01*
X55884325Y-89173955D01*
X55888747Y-89178866D01*
X56043248Y-89291118D01*
X56049276Y-89293802D01*
X56049278Y-89293803D01*
X56211048Y-89365827D01*
X56217712Y-89368794D01*
X56311112Y-89388647D01*
X56398056Y-89407128D01*
X56398061Y-89407128D01*
X56404513Y-89408500D01*
X56595487Y-89408500D01*
X56601939Y-89407128D01*
X56601944Y-89407128D01*
X56688888Y-89388647D01*
X56782288Y-89368794D01*
X56788952Y-89365827D01*
X56950722Y-89293803D01*
X56950724Y-89293802D01*
X56956752Y-89291118D01*
X57111253Y-89178866D01*
X57115675Y-89173955D01*
X57234621Y-89041852D01*
X57234622Y-89041851D01*
X57239040Y-89036944D01*
X57334527Y-88871556D01*
X57393542Y-88689928D01*
X57395276Y-88673435D01*
X57412814Y-88506565D01*
X57413504Y-88500000D01*
X57405858Y-88427250D01*
X57402611Y-88396360D01*
X69261449Y-88396360D01*
X69281622Y-88652686D01*
X69282776Y-88657493D01*
X69282777Y-88657499D01*
X69311980Y-88779137D01*
X69341645Y-88902700D01*
X69343538Y-88907271D01*
X69343539Y-88907273D01*
X69433430Y-89124288D01*
X69440040Y-89140247D01*
X69574384Y-89359476D01*
X69741369Y-89554991D01*
X69936884Y-89721976D01*
X70156113Y-89856320D01*
X70160683Y-89858213D01*
X70160687Y-89858215D01*
X70389087Y-89952821D01*
X70393660Y-89954715D01*
X70480502Y-89975564D01*
X70638861Y-90013583D01*
X70638867Y-90013584D01*
X70643674Y-90014738D01*
X70900000Y-90034911D01*
X71156326Y-90014738D01*
X71161133Y-90013584D01*
X71161139Y-90013583D01*
X71319498Y-89975564D01*
X71406340Y-89954715D01*
X71410913Y-89952821D01*
X71639313Y-89858215D01*
X71639317Y-89858213D01*
X71643887Y-89856320D01*
X71863116Y-89721976D01*
X72058631Y-89554991D01*
X72105086Y-89500599D01*
X72200277Y-89389145D01*
X72259727Y-89350335D01*
X72330722Y-89349829D01*
X72366090Y-89366210D01*
X72444843Y-89418831D01*
X72450146Y-89421109D01*
X72450149Y-89421111D01*
X72634053Y-89500122D01*
X72640470Y-89502879D01*
X72716316Y-89520041D01*
X72842501Y-89548594D01*
X72842506Y-89548595D01*
X72848138Y-89549869D01*
X72853909Y-89550096D01*
X72853911Y-89550096D01*
X72915252Y-89552506D01*
X73060891Y-89558229D01*
X73066600Y-89557401D01*
X73066604Y-89557401D01*
X73265890Y-89528505D01*
X73265894Y-89528504D01*
X73271605Y-89527676D01*
X73473223Y-89459236D01*
X73658993Y-89355200D01*
X73665912Y-89349446D01*
X73818255Y-89222744D01*
X73822693Y-89219053D01*
X73892039Y-89135673D01*
X73901508Y-89124288D01*
X73960445Y-89084704D01*
X74031427Y-89083267D01*
X74091918Y-89120435D01*
X74101278Y-89132135D01*
X74109994Y-89144467D01*
X74115296Y-89151969D01*
X74179118Y-89214142D01*
X74223637Y-89257510D01*
X74267809Y-89300541D01*
X74272605Y-89303746D01*
X74272608Y-89303748D01*
X74365939Y-89366109D01*
X74444843Y-89418831D01*
X74450146Y-89421109D01*
X74450149Y-89421111D01*
X74634053Y-89500122D01*
X74640470Y-89502879D01*
X74716316Y-89520041D01*
X74842501Y-89548594D01*
X74842506Y-89548595D01*
X74848138Y-89549869D01*
X74853909Y-89550096D01*
X74853911Y-89550096D01*
X74915252Y-89552506D01*
X75060891Y-89558229D01*
X75066600Y-89557401D01*
X75066604Y-89557401D01*
X75265890Y-89528505D01*
X75265894Y-89528504D01*
X75271605Y-89527676D01*
X75473223Y-89459236D01*
X75658993Y-89355200D01*
X75665912Y-89349446D01*
X75818255Y-89222744D01*
X75822693Y-89219053D01*
X75892039Y-89135673D01*
X75901508Y-89124288D01*
X75960445Y-89084704D01*
X76031427Y-89083267D01*
X76091918Y-89120435D01*
X76101278Y-89132135D01*
X76109994Y-89144467D01*
X76115296Y-89151969D01*
X76179118Y-89214142D01*
X76223637Y-89257510D01*
X76267809Y-89300541D01*
X76272605Y-89303746D01*
X76272608Y-89303748D01*
X76365939Y-89366109D01*
X76444843Y-89418831D01*
X76450146Y-89421109D01*
X76450149Y-89421111D01*
X76634053Y-89500122D01*
X76640470Y-89502879D01*
X76716316Y-89520041D01*
X76842501Y-89548594D01*
X76842506Y-89548595D01*
X76848138Y-89549869D01*
X76853909Y-89550096D01*
X76853911Y-89550096D01*
X76915252Y-89552506D01*
X77060891Y-89558229D01*
X77066600Y-89557401D01*
X77066604Y-89557401D01*
X77265890Y-89528505D01*
X77265894Y-89528504D01*
X77271605Y-89527676D01*
X77473223Y-89459236D01*
X77658993Y-89355200D01*
X77665912Y-89349446D01*
X77818255Y-89222744D01*
X77822693Y-89219053D01*
X77958840Y-89055353D01*
X78062876Y-88869583D01*
X78131316Y-88667965D01*
X78132327Y-88660997D01*
X78161337Y-88460921D01*
X78161337Y-88460919D01*
X78161869Y-88457251D01*
X78163463Y-88396360D01*
X78160664Y-88365904D01*
X79836936Y-88365904D01*
X79850861Y-88578366D01*
X79852282Y-88583962D01*
X79852283Y-88583967D01*
X79880204Y-88693902D01*
X79903272Y-88784732D01*
X79905689Y-88789975D01*
X79942389Y-88869583D01*
X79992411Y-88978091D01*
X80115296Y-89151969D01*
X80179604Y-89214615D01*
X80223637Y-89257510D01*
X80267809Y-89300541D01*
X80272605Y-89303746D01*
X80272608Y-89303748D01*
X80365939Y-89366109D01*
X80444843Y-89418831D01*
X80450146Y-89421109D01*
X80450149Y-89421111D01*
X80634053Y-89500122D01*
X80640470Y-89502879D01*
X80716316Y-89520041D01*
X80842501Y-89548594D01*
X80842506Y-89548595D01*
X80848138Y-89549869D01*
X80853909Y-89550096D01*
X80853911Y-89550096D01*
X80915252Y-89552506D01*
X81060891Y-89558229D01*
X81066600Y-89557401D01*
X81066604Y-89557401D01*
X81265890Y-89528505D01*
X81265894Y-89528504D01*
X81271605Y-89527676D01*
X81473223Y-89459236D01*
X81542088Y-89420670D01*
X81644359Y-89363396D01*
X81713568Y-89347563D01*
X81780350Y-89371660D01*
X81801735Y-89391500D01*
X81941369Y-89554991D01*
X82136884Y-89721976D01*
X82356113Y-89856320D01*
X82360683Y-89858213D01*
X82360687Y-89858215D01*
X82589087Y-89952821D01*
X82593660Y-89954715D01*
X82680502Y-89975564D01*
X82838861Y-90013583D01*
X82838867Y-90013584D01*
X82843674Y-90014738D01*
X83100000Y-90034911D01*
X83356326Y-90014738D01*
X83361133Y-90013584D01*
X83361139Y-90013583D01*
X83519498Y-89975564D01*
X83606340Y-89954715D01*
X83610913Y-89952821D01*
X83839313Y-89858215D01*
X83839317Y-89858213D01*
X83843887Y-89856320D01*
X84063116Y-89721976D01*
X84258631Y-89554991D01*
X84425616Y-89359476D01*
X84497305Y-89242490D01*
X122174346Y-89242490D01*
X122179016Y-89293803D01*
X122190562Y-89420670D01*
X122193373Y-89451562D01*
X122195111Y-89457468D01*
X122195112Y-89457472D01*
X122229041Y-89572750D01*
X122252647Y-89652957D01*
X122349909Y-89839003D01*
X122481456Y-90002614D01*
X122642276Y-90137558D01*
X122647668Y-90140522D01*
X122647672Y-90140525D01*
X122662821Y-90148853D01*
X122826245Y-90238696D01*
X123026354Y-90302174D01*
X123032471Y-90302860D01*
X123032475Y-90302861D01*
X123110392Y-90311600D01*
X123189736Y-90320500D01*
X123302830Y-90320500D01*
X123458934Y-90305194D01*
X123659910Y-90244516D01*
X123745323Y-90199101D01*
X123839826Y-90148853D01*
X123839828Y-90148851D01*
X123845272Y-90145957D01*
X123951832Y-90059049D01*
X124003186Y-90017166D01*
X124003189Y-90017163D01*
X124007961Y-90013271D01*
X124011890Y-90008522D01*
X124137850Y-89856263D01*
X124137852Y-89856259D01*
X124141779Y-89851513D01*
X124241630Y-89666843D01*
X124303710Y-89466295D01*
X124305259Y-89451562D01*
X124325010Y-89263638D01*
X124325010Y-89263637D01*
X124325654Y-89257510D01*
X124313179Y-89120435D01*
X124307186Y-89054577D01*
X124307185Y-89054574D01*
X124306627Y-89048438D01*
X124304814Y-89042277D01*
X131111883Y-89042277D01*
X131137499Y-89310769D01*
X131138584Y-89315203D01*
X131138585Y-89315209D01*
X131190659Y-89528017D01*
X131201605Y-89572750D01*
X131302859Y-89822733D01*
X131439139Y-90055482D01*
X131441992Y-90059049D01*
X131590314Y-90244516D01*
X131607590Y-90266119D01*
X131804683Y-90450234D01*
X132026290Y-90603968D01*
X132030373Y-90605999D01*
X132030376Y-90606001D01*
X132145887Y-90663466D01*
X132267768Y-90724101D01*
X132272102Y-90725522D01*
X132272105Y-90725523D01*
X132519727Y-90806698D01*
X132519733Y-90806699D01*
X132524060Y-90808118D01*
X132528551Y-90808898D01*
X132528552Y-90808898D01*
X132786014Y-90853601D01*
X132786022Y-90853602D01*
X132789795Y-90854257D01*
X132793632Y-90854448D01*
X132873452Y-90858422D01*
X132873460Y-90858422D01*
X132875023Y-90858500D01*
X133043386Y-90858500D01*
X133045654Y-90858335D01*
X133045666Y-90858335D01*
X133176758Y-90848823D01*
X133243878Y-90843953D01*
X133248333Y-90842969D01*
X133248336Y-90842969D01*
X133502786Y-90786791D01*
X133502790Y-90786790D01*
X133507246Y-90785806D01*
X133650022Y-90731713D01*
X133755192Y-90691868D01*
X133755195Y-90691867D01*
X133759462Y-90690250D01*
X133995242Y-90559286D01*
X134209647Y-90395657D01*
X134283413Y-90320199D01*
X134394991Y-90206060D01*
X134398186Y-90202792D01*
X134556908Y-89984730D01*
X134629849Y-89846092D01*
X134680364Y-89750079D01*
X134680367Y-89750073D01*
X134682489Y-89746039D01*
X134692123Y-89718760D01*
X134770776Y-89496033D01*
X134770776Y-89496032D01*
X134772299Y-89491720D01*
X134812602Y-89287237D01*
X134823574Y-89231572D01*
X134823575Y-89231566D01*
X134824455Y-89227100D01*
X134828779Y-89140247D01*
X134837638Y-88962292D01*
X134837638Y-88962286D01*
X134837865Y-88957723D01*
X134812249Y-88689231D01*
X134810183Y-88680785D01*
X134749229Y-88431688D01*
X134748143Y-88427250D01*
X134646889Y-88177267D01*
X134528007Y-87974232D01*
X134512919Y-87948463D01*
X134512918Y-87948462D01*
X134510609Y-87944518D01*
X134392802Y-87797208D01*
X134345010Y-87737447D01*
X134345009Y-87737445D01*
X134342158Y-87733881D01*
X134145065Y-87549766D01*
X133923458Y-87396032D01*
X133919375Y-87394001D01*
X133919372Y-87393999D01*
X133754480Y-87311967D01*
X133681980Y-87275899D01*
X133677646Y-87274478D01*
X133677643Y-87274477D01*
X133430021Y-87193302D01*
X133430015Y-87193301D01*
X133425688Y-87191882D01*
X133421196Y-87191102D01*
X133163734Y-87146399D01*
X133163726Y-87146398D01*
X133159953Y-87145743D01*
X133148691Y-87145182D01*
X133076296Y-87141578D01*
X133076288Y-87141578D01*
X133074725Y-87141500D01*
X132906362Y-87141500D01*
X132904094Y-87141665D01*
X132904082Y-87141665D01*
X132772990Y-87151177D01*
X132705870Y-87156047D01*
X132701415Y-87157031D01*
X132701412Y-87157031D01*
X132446962Y-87213209D01*
X132446958Y-87213210D01*
X132442502Y-87214194D01*
X132355450Y-87247175D01*
X132194556Y-87308132D01*
X132194553Y-87308133D01*
X132190286Y-87309750D01*
X132127380Y-87344691D01*
X131960363Y-87437461D01*
X131954506Y-87440714D01*
X131878011Y-87499093D01*
X131755132Y-87592872D01*
X131740101Y-87604343D01*
X131736908Y-87607609D01*
X131736906Y-87607611D01*
X131678595Y-87667260D01*
X131551562Y-87797208D01*
X131392840Y-88015270D01*
X131340353Y-88115031D01*
X131269384Y-88249921D01*
X131269381Y-88249927D01*
X131267259Y-88253961D01*
X131265739Y-88258266D01*
X131265737Y-88258270D01*
X131183382Y-88491478D01*
X131177449Y-88508280D01*
X131164772Y-88572599D01*
X131141647Y-88689928D01*
X131125293Y-88772900D01*
X131125066Y-88777453D01*
X131125066Y-88777456D01*
X131112310Y-89033705D01*
X131111883Y-89042277D01*
X124304814Y-89042277D01*
X124303245Y-89036944D01*
X124252718Y-88865271D01*
X124247353Y-88847043D01*
X124160436Y-88680785D01*
X124152945Y-88666456D01*
X124152944Y-88666455D01*
X124150091Y-88660997D01*
X124018544Y-88497386D01*
X123857724Y-88362442D01*
X123852332Y-88359478D01*
X123852328Y-88359475D01*
X123679152Y-88264271D01*
X123673755Y-88261304D01*
X123473646Y-88197826D01*
X123467529Y-88197140D01*
X123467525Y-88197139D01*
X123389608Y-88188400D01*
X123310264Y-88179500D01*
X123197170Y-88179500D01*
X123041066Y-88194806D01*
X122840090Y-88255484D01*
X122834649Y-88258377D01*
X122660174Y-88351147D01*
X122660172Y-88351149D01*
X122654728Y-88354043D01*
X122594692Y-88403007D01*
X122496814Y-88482834D01*
X122496811Y-88482837D01*
X122492039Y-88486729D01*
X122488112Y-88491476D01*
X122488110Y-88491478D01*
X122362150Y-88643737D01*
X122362148Y-88643741D01*
X122358221Y-88648487D01*
X122258370Y-88833157D01*
X122196290Y-89033705D01*
X122195646Y-89039830D01*
X122195646Y-89039831D01*
X122174990Y-89236362D01*
X122174346Y-89242490D01*
X84497305Y-89242490D01*
X84559960Y-89140247D01*
X84566571Y-89124288D01*
X84656461Y-88907273D01*
X84656462Y-88907271D01*
X84658355Y-88902700D01*
X84688020Y-88779137D01*
X84717223Y-88657499D01*
X84717224Y-88657493D01*
X84718378Y-88652686D01*
X84738551Y-88396360D01*
X84718378Y-88140034D01*
X84717105Y-88134729D01*
X84671844Y-87946206D01*
X84658355Y-87890020D01*
X84628213Y-87817251D01*
X84561855Y-87657047D01*
X84561853Y-87657043D01*
X84559960Y-87652473D01*
X84425616Y-87433244D01*
X84258631Y-87237729D01*
X84063116Y-87070744D01*
X83843887Y-86936400D01*
X83839317Y-86934507D01*
X83839313Y-86934505D01*
X83610913Y-86839899D01*
X83610911Y-86839898D01*
X83606340Y-86838005D01*
X83519498Y-86817156D01*
X83361139Y-86779137D01*
X83361133Y-86779136D01*
X83356326Y-86777982D01*
X83100000Y-86757809D01*
X82843674Y-86777982D01*
X82838867Y-86779136D01*
X82838861Y-86779137D01*
X82680502Y-86817156D01*
X82593660Y-86838005D01*
X82589089Y-86839898D01*
X82589087Y-86839899D01*
X82360687Y-86934505D01*
X82360683Y-86934507D01*
X82356113Y-86936400D01*
X82136884Y-87070744D01*
X81941369Y-87237729D01*
X81807903Y-87393999D01*
X81799811Y-87403473D01*
X81740361Y-87442282D01*
X81669366Y-87442790D01*
X81636765Y-87428205D01*
X81533086Y-87362789D01*
X81533084Y-87362788D01*
X81528201Y-87359707D01*
X81330441Y-87280809D01*
X81324781Y-87279683D01*
X81324777Y-87279682D01*
X81127282Y-87240398D01*
X81127280Y-87240398D01*
X81121615Y-87239271D01*
X81115840Y-87239195D01*
X81115836Y-87239195D01*
X81009161Y-87237799D01*
X80908716Y-87236484D01*
X80903019Y-87237463D01*
X80903018Y-87237463D01*
X80704564Y-87271563D01*
X80704561Y-87271564D01*
X80698874Y-87272541D01*
X80499116Y-87346235D01*
X80316134Y-87455099D01*
X80156054Y-87595485D01*
X80024238Y-87762693D01*
X80021549Y-87767804D01*
X80021547Y-87767807D01*
X79967085Y-87871321D01*
X79925100Y-87951122D01*
X79923386Y-87956643D01*
X79923384Y-87956647D01*
X79906325Y-88011586D01*
X79861961Y-88154462D01*
X79836936Y-88365904D01*
X78160664Y-88365904D01*
X78150784Y-88258377D01*
X78144510Y-88190090D01*
X78144509Y-88190087D01*
X78143981Y-88184336D01*
X78132878Y-88144968D01*
X78087754Y-87984971D01*
X78087753Y-87984969D01*
X78086186Y-87979412D01*
X78078121Y-87963056D01*
X77994570Y-87793633D01*
X77992015Y-87788452D01*
X77864622Y-87617851D01*
X77708271Y-87473323D01*
X77528201Y-87359707D01*
X77330441Y-87280809D01*
X77324781Y-87279683D01*
X77324777Y-87279682D01*
X77127282Y-87240398D01*
X77127280Y-87240398D01*
X77121615Y-87239271D01*
X77115840Y-87239195D01*
X77115836Y-87239195D01*
X77009161Y-87237799D01*
X76908716Y-87236484D01*
X76903019Y-87237463D01*
X76903018Y-87237463D01*
X76704564Y-87271563D01*
X76704561Y-87271564D01*
X76698874Y-87272541D01*
X76499116Y-87346235D01*
X76316134Y-87455099D01*
X76156054Y-87595485D01*
X76152483Y-87600015D01*
X76152482Y-87600016D01*
X76099471Y-87667260D01*
X76041590Y-87708373D01*
X75970670Y-87711667D01*
X75909227Y-87676095D01*
X75899563Y-87664643D01*
X75887324Y-87648253D01*
X75864622Y-87617851D01*
X75708271Y-87473323D01*
X75528201Y-87359707D01*
X75330441Y-87280809D01*
X75324781Y-87279683D01*
X75324777Y-87279682D01*
X75127282Y-87240398D01*
X75127280Y-87240398D01*
X75121615Y-87239271D01*
X75115840Y-87239195D01*
X75115836Y-87239195D01*
X75009161Y-87237799D01*
X74908716Y-87236484D01*
X74903019Y-87237463D01*
X74903018Y-87237463D01*
X74704564Y-87271563D01*
X74704561Y-87271564D01*
X74698874Y-87272541D01*
X74499116Y-87346235D01*
X74316134Y-87455099D01*
X74156054Y-87595485D01*
X74152483Y-87600015D01*
X74152482Y-87600016D01*
X74099471Y-87667260D01*
X74041590Y-87708373D01*
X73970670Y-87711667D01*
X73909227Y-87676095D01*
X73899563Y-87664643D01*
X73887324Y-87648253D01*
X73864622Y-87617851D01*
X73708271Y-87473323D01*
X73528201Y-87359707D01*
X73330441Y-87280809D01*
X73324781Y-87279683D01*
X73324777Y-87279682D01*
X73127282Y-87240398D01*
X73127280Y-87240398D01*
X73121615Y-87239271D01*
X73115840Y-87239195D01*
X73115836Y-87239195D01*
X73009161Y-87237799D01*
X72908716Y-87236484D01*
X72903019Y-87237463D01*
X72903018Y-87237463D01*
X72704564Y-87271563D01*
X72704561Y-87271564D01*
X72698874Y-87272541D01*
X72499116Y-87346235D01*
X72476472Y-87359707D01*
X72359756Y-87429146D01*
X72290986Y-87446786D01*
X72223596Y-87424446D01*
X72199522Y-87402692D01*
X72193834Y-87396032D01*
X72058631Y-87237729D01*
X71863116Y-87070744D01*
X71643887Y-86936400D01*
X71639317Y-86934507D01*
X71639313Y-86934505D01*
X71410913Y-86839899D01*
X71410911Y-86839898D01*
X71406340Y-86838005D01*
X71319498Y-86817156D01*
X71161139Y-86779137D01*
X71161133Y-86779136D01*
X71156326Y-86777982D01*
X70900000Y-86757809D01*
X70643674Y-86777982D01*
X70638867Y-86779136D01*
X70638861Y-86779137D01*
X70480502Y-86817156D01*
X70393660Y-86838005D01*
X70389089Y-86839898D01*
X70389087Y-86839899D01*
X70160687Y-86934505D01*
X70160683Y-86934507D01*
X70156113Y-86936400D01*
X69936884Y-87070744D01*
X69741369Y-87237729D01*
X69574384Y-87433244D01*
X69440040Y-87652473D01*
X69438147Y-87657043D01*
X69438145Y-87657047D01*
X69371787Y-87817251D01*
X69341645Y-87890020D01*
X69328156Y-87946206D01*
X69282896Y-88134729D01*
X69281622Y-88140034D01*
X69261449Y-88396360D01*
X57402611Y-88396360D01*
X57394232Y-88316635D01*
X57394232Y-88316633D01*
X57393542Y-88310072D01*
X57334527Y-88128444D01*
X57307683Y-88081948D01*
X57267059Y-88011586D01*
X57239040Y-87963056D01*
X57225901Y-87948463D01*
X57115675Y-87826045D01*
X57115674Y-87826044D01*
X57111253Y-87821134D01*
X56988760Y-87732137D01*
X56962094Y-87712763D01*
X56962093Y-87712762D01*
X56956752Y-87708882D01*
X56950724Y-87706198D01*
X56950722Y-87706197D01*
X56788319Y-87633891D01*
X56788318Y-87633891D01*
X56782288Y-87631206D01*
X56671283Y-87607611D01*
X56601944Y-87592872D01*
X56601939Y-87592872D01*
X56595487Y-87591500D01*
X56404513Y-87591500D01*
X56398061Y-87592872D01*
X56398056Y-87592872D01*
X56328717Y-87607611D01*
X56217712Y-87631206D01*
X56211682Y-87633891D01*
X56211681Y-87633891D01*
X56049278Y-87706197D01*
X56049276Y-87706198D01*
X56043248Y-87708882D01*
X56037907Y-87712762D01*
X56037906Y-87712763D01*
X56011240Y-87732137D01*
X55888747Y-87821134D01*
X55884326Y-87826044D01*
X55884325Y-87826045D01*
X55774100Y-87948463D01*
X55760960Y-87963056D01*
X55732941Y-88011586D01*
X55692318Y-88081948D01*
X55665473Y-88128444D01*
X55606458Y-88310072D01*
X55605768Y-88316633D01*
X55605768Y-88316635D01*
X55594142Y-88427250D01*
X55586496Y-88500000D01*
X49480394Y-88500000D01*
X49488551Y-88396360D01*
X49468378Y-88140034D01*
X49467105Y-88134729D01*
X49421844Y-87946206D01*
X49408355Y-87890020D01*
X49378213Y-87817251D01*
X49311855Y-87657047D01*
X49311853Y-87657043D01*
X49309960Y-87652473D01*
X49175616Y-87433244D01*
X49008631Y-87237729D01*
X48813116Y-87070744D01*
X48593887Y-86936400D01*
X48589317Y-86934507D01*
X48589313Y-86934505D01*
X48360913Y-86839899D01*
X48360911Y-86839898D01*
X48356340Y-86838005D01*
X48269498Y-86817156D01*
X48111139Y-86779137D01*
X48111133Y-86779136D01*
X48106326Y-86777982D01*
X47850000Y-86757809D01*
X47593674Y-86777982D01*
X47588867Y-86779136D01*
X47588861Y-86779137D01*
X47430502Y-86817156D01*
X47343660Y-86838005D01*
X47339089Y-86839898D01*
X47339087Y-86839899D01*
X47110687Y-86934505D01*
X47110683Y-86934507D01*
X47106113Y-86936400D01*
X46886884Y-87070744D01*
X46691369Y-87237729D01*
X46557903Y-87393999D01*
X46549811Y-87403473D01*
X46490361Y-87442282D01*
X46419366Y-87442790D01*
X46386765Y-87428205D01*
X46283086Y-87362789D01*
X46283084Y-87362788D01*
X46278201Y-87359707D01*
X46080441Y-87280809D01*
X46074781Y-87279683D01*
X46074777Y-87279682D01*
X45877282Y-87240398D01*
X45877280Y-87240398D01*
X45871615Y-87239271D01*
X45865840Y-87239195D01*
X45865836Y-87239195D01*
X45759161Y-87237799D01*
X45658716Y-87236484D01*
X45653019Y-87237463D01*
X45653018Y-87237463D01*
X45454564Y-87271563D01*
X45454561Y-87271564D01*
X45448874Y-87272541D01*
X45249116Y-87346235D01*
X45066134Y-87455099D01*
X44906054Y-87595485D01*
X44902483Y-87600015D01*
X44902482Y-87600016D01*
X44849471Y-87667260D01*
X44791590Y-87708373D01*
X44720670Y-87711667D01*
X44659227Y-87676095D01*
X44649563Y-87664643D01*
X44637324Y-87648253D01*
X44614622Y-87617851D01*
X44458271Y-87473323D01*
X44278201Y-87359707D01*
X44080441Y-87280809D01*
X44074781Y-87279683D01*
X44074777Y-87279682D01*
X43877282Y-87240398D01*
X43877280Y-87240398D01*
X43871615Y-87239271D01*
X43865840Y-87239195D01*
X43865836Y-87239195D01*
X43759161Y-87237799D01*
X43658716Y-87236484D01*
X43653019Y-87237463D01*
X43653018Y-87237463D01*
X43454564Y-87271563D01*
X43454561Y-87271564D01*
X43448874Y-87272541D01*
X43249116Y-87346235D01*
X43066134Y-87455099D01*
X42906054Y-87595485D01*
X42798325Y-87732139D01*
X42759696Y-87764755D01*
X42718175Y-87787395D01*
X42122022Y-88383548D01*
X42114408Y-88397492D01*
X41447694Y-88397492D01*
X41450924Y-88352328D01*
X41479885Y-88307265D01*
X42356533Y-87430617D01*
X42363293Y-87418237D01*
X42357263Y-87410182D01*
X42282857Y-87363235D01*
X42272609Y-87358014D01*
X42085663Y-87283430D01*
X42074635Y-87280163D01*
X41877230Y-87240897D01*
X41865784Y-87239694D01*
X41664537Y-87237060D01*
X41653057Y-87237963D01*
X41454701Y-87272047D01*
X41443581Y-87275027D01*
X41254748Y-87344691D01*
X41244370Y-87349641D01*
X41110085Y-87429532D01*
X41041314Y-87447172D01*
X40973924Y-87424831D01*
X40949851Y-87403077D01*
X40872036Y-87311967D01*
X40808631Y-87237729D01*
X40613116Y-87070744D01*
X40393887Y-86936400D01*
X40389317Y-86934507D01*
X40389313Y-86934505D01*
X40160913Y-86839899D01*
X40160911Y-86839898D01*
X40156340Y-86838005D01*
X40069498Y-86817156D01*
X39911139Y-86779137D01*
X39911133Y-86779136D01*
X39906326Y-86777982D01*
X39650000Y-86757809D01*
X39393674Y-86777982D01*
X39388867Y-86779136D01*
X39388861Y-86779137D01*
X39230502Y-86817156D01*
X39143660Y-86838005D01*
X39139089Y-86839898D01*
X39139087Y-86839899D01*
X38910687Y-86934505D01*
X38910683Y-86934507D01*
X38906113Y-86936400D01*
X38686884Y-87070744D01*
X38491369Y-87237729D01*
X38324384Y-87433244D01*
X38190040Y-87652473D01*
X38188147Y-87657043D01*
X38188145Y-87657047D01*
X38121787Y-87817251D01*
X38091645Y-87890020D01*
X38078156Y-87946206D01*
X38032896Y-88134729D01*
X38031622Y-88140034D01*
X38011449Y-88396360D01*
X31410522Y-88396360D01*
X31504621Y-88291852D01*
X31504622Y-88291851D01*
X31509040Y-88286944D01*
X31585529Y-88154462D01*
X31601223Y-88127279D01*
X31601224Y-88127278D01*
X31604527Y-88121556D01*
X31663542Y-87939928D01*
X31668788Y-87890020D01*
X31682814Y-87756565D01*
X31683504Y-87750000D01*
X31671301Y-87633891D01*
X31664232Y-87566635D01*
X31664232Y-87566633D01*
X31663542Y-87560072D01*
X31604527Y-87378444D01*
X31509040Y-87213056D01*
X31491254Y-87193302D01*
X31385675Y-87076045D01*
X31385674Y-87076044D01*
X31381253Y-87071134D01*
X31282157Y-86999136D01*
X31232094Y-86962763D01*
X31232093Y-86962762D01*
X31226752Y-86958882D01*
X31220724Y-86956198D01*
X31220722Y-86956197D01*
X31058319Y-86883891D01*
X31058318Y-86883891D01*
X31052288Y-86881206D01*
X30958887Y-86861353D01*
X30871944Y-86842872D01*
X30871939Y-86842872D01*
X30865487Y-86841500D01*
X30674513Y-86841500D01*
X30668061Y-86842872D01*
X30668056Y-86842872D01*
X30581113Y-86861353D01*
X30487712Y-86881206D01*
X30481682Y-86883891D01*
X30481681Y-86883891D01*
X30319278Y-86956197D01*
X30319276Y-86956198D01*
X30313248Y-86958882D01*
X30307907Y-86962762D01*
X30307906Y-86962763D01*
X30257843Y-86999136D01*
X30158747Y-87071134D01*
X30154326Y-87076044D01*
X30154325Y-87076045D01*
X30048747Y-87193302D01*
X30030960Y-87213056D01*
X29935473Y-87378444D01*
X29876458Y-87560072D01*
X29875768Y-87566633D01*
X29875768Y-87566635D01*
X29868699Y-87633891D01*
X29856496Y-87750000D01*
X27380175Y-87750000D01*
X27370136Y-87737447D01*
X27370135Y-87737445D01*
X27367284Y-87733881D01*
X27170191Y-87549766D01*
X26948584Y-87396032D01*
X26944501Y-87394001D01*
X26944498Y-87393999D01*
X26779606Y-87311967D01*
X26707106Y-87275899D01*
X26702772Y-87274478D01*
X26702769Y-87274477D01*
X26455147Y-87193302D01*
X26455141Y-87193301D01*
X26450814Y-87191882D01*
X26446322Y-87191102D01*
X26188860Y-87146399D01*
X26188852Y-87146398D01*
X26185079Y-87145743D01*
X26173817Y-87145182D01*
X26101422Y-87141578D01*
X26101414Y-87141578D01*
X26099851Y-87141500D01*
X25931488Y-87141500D01*
X25929220Y-87141665D01*
X25929208Y-87141665D01*
X25798116Y-87151177D01*
X25730996Y-87156047D01*
X25726541Y-87157031D01*
X25726538Y-87157031D01*
X25472088Y-87213209D01*
X25472084Y-87213210D01*
X25467628Y-87214194D01*
X25380576Y-87247175D01*
X25219682Y-87308132D01*
X25219679Y-87308133D01*
X25215412Y-87309750D01*
X25152506Y-87344691D01*
X24985489Y-87437461D01*
X24979632Y-87440714D01*
X24903137Y-87499093D01*
X24780258Y-87592872D01*
X24765227Y-87604343D01*
X24762034Y-87607609D01*
X24762032Y-87607611D01*
X24703721Y-87667260D01*
X24576688Y-87797208D01*
X24417966Y-88015270D01*
X24365479Y-88115031D01*
X24294510Y-88249921D01*
X24294507Y-88249927D01*
X24292385Y-88253961D01*
X24290865Y-88258266D01*
X24290863Y-88258270D01*
X24208508Y-88491478D01*
X24202575Y-88508280D01*
X24189898Y-88572599D01*
X24166773Y-88689928D01*
X24150419Y-88772900D01*
X24150192Y-88777453D01*
X24150192Y-88777456D01*
X24137436Y-89033705D01*
X24137009Y-89042277D01*
X23009416Y-89042277D01*
X23010246Y-89032345D01*
X23012770Y-89017344D01*
X23012770Y-89017341D01*
X23013576Y-89012552D01*
X23013729Y-89000000D01*
X23013039Y-88995180D01*
X23011644Y-88985437D01*
X23010545Y-88960983D01*
X23016802Y-88841584D01*
X23024542Y-88693899D01*
X23025920Y-88680785D01*
X23027951Y-88667965D01*
X23070968Y-88396360D01*
X23072838Y-88384555D01*
X23075580Y-88371655D01*
X23127068Y-88179500D01*
X23153207Y-88081948D01*
X23157281Y-88069409D01*
X23179478Y-88011586D01*
X23264764Y-87789408D01*
X23270126Y-87777365D01*
X23406289Y-87510130D01*
X23412883Y-87498709D01*
X23412888Y-87498702D01*
X23576236Y-87247168D01*
X23583984Y-87236505D01*
X23598343Y-87218774D01*
X23772733Y-87003420D01*
X23781552Y-86993626D01*
X23993626Y-86781552D01*
X24003427Y-86772727D01*
X24236505Y-86583984D01*
X24247168Y-86576236D01*
X24498714Y-86412880D01*
X24510130Y-86406289D01*
X24777365Y-86270126D01*
X24789413Y-86264762D01*
X24789429Y-86264756D01*
X25069414Y-86157279D01*
X25081948Y-86153207D01*
X25226804Y-86114392D01*
X25371655Y-86075580D01*
X25384555Y-86072838D01*
X25465866Y-86059960D01*
X25680791Y-86025919D01*
X25693899Y-86024542D01*
X25769063Y-86020603D01*
X25957299Y-86010738D01*
X25983276Y-86012065D01*
X25984846Y-86012309D01*
X25984850Y-86012309D01*
X25993724Y-86013691D01*
X26002626Y-86012527D01*
X26002628Y-86012527D01*
X26017677Y-86010559D01*
X26025286Y-86009564D01*
X26041621Y-86008500D01*
X132925511Y-86008500D01*
X132944896Y-86010000D01*
G37*
%TD.AperFunction*%
%TD*%
M02*
