%TF.GenerationSoftware,KiCad,Pcbnew,(6.0.7)*%
%TF.CreationDate,2023-07-28T14:32:25-04:00*%
%TF.ProjectId,Stylophone,5374796c-6f70-4686-9f6e-652e6b696361,rev?*%
%TF.SameCoordinates,Original*%
%TF.FileFunction,Soldermask,Bot*%
%TF.FilePolarity,Negative*%
%FSLAX46Y46*%
G04 Gerber Fmt 4.6, Leading zero omitted, Abs format (unit mm)*
G04 Created by KiCad (PCBNEW (6.0.7)) date 2023-07-28 14:32:25*
%MOMM*%
%LPD*%
G01*
G04 APERTURE LIST*
G04 Aperture macros list*
%AMRoundRect*
0 Rectangle with rounded corners*
0 $1 Rounding radius*
0 $2 $3 $4 $5 $6 $7 $8 $9 X,Y pos of 4 corners*
0 Add a 4 corners polygon primitive as box body*
4,1,4,$2,$3,$4,$5,$6,$7,$8,$9,$2,$3,0*
0 Add four circle primitives for the rounded corners*
1,1,$1+$1,$2,$3*
1,1,$1+$1,$4,$5*
1,1,$1+$1,$6,$7*
1,1,$1+$1,$8,$9*
0 Add four rect primitives between the rounded corners*
20,1,$1+$1,$2,$3,$4,$5,0*
20,1,$1+$1,$4,$5,$6,$7,0*
20,1,$1+$1,$6,$7,$8,$9,0*
20,1,$1+$1,$8,$9,$2,$3,0*%
G04 Aperture macros list end*
%TA.AperFunction,Profile*%
%ADD10C,0.100000*%
%TD*%
%ADD11C,2.250000*%
%ADD12C,1.300000*%
%ADD13C,2.700000*%
%ADD14C,0.850000*%
%ADD15C,1.500000*%
%ADD16C,4.260000*%
%ADD17R,1.500000X1.500000*%
%ADD18R,1.500000X1.050000*%
%ADD19O,1.500000X1.050000*%
%ADD20RoundRect,0.250000X0.625000X-0.350000X0.625000X0.350000X-0.625000X0.350000X-0.625000X-0.350000X0*%
%ADD21O,1.750000X1.200000*%
%ADD22O,1.700000X1.100000*%
%ADD23R,1.200000X1.200000*%
%ADD24R,1.600000X1.500000*%
G04 APERTURE END LIST*
D10*
X26000000Y-85500000D02*
X132974874Y-85500000D01*
X26000000Y-85500000D02*
G75*
G03*
X22500000Y-89000000I0J-3500000D01*
G01*
X216000000Y-160480000D02*
X26000000Y-160500000D01*
X216000000Y-108720000D02*
X139974874Y-108740000D01*
X216000000Y-160480000D02*
G75*
G03*
X219500000Y-156980000I0J3500000D01*
G01*
X136474900Y-105240000D02*
G75*
G03*
X139974874Y-108740000I3500000J0D01*
G01*
X22500000Y-157000000D02*
G75*
G03*
X26000000Y-160500000I3500000J0D01*
G01*
X136474874Y-89000000D02*
X136474874Y-105240000D01*
X219500000Y-112220000D02*
G75*
G03*
X216000000Y-108720000I-3500000J0D01*
G01*
X22500000Y-89000000D02*
X22500000Y-157000000D01*
X136474900Y-89000000D02*
G75*
G03*
X132974874Y-85500000I-3500000J0D01*
G01*
X219500000Y-156980000D02*
X219500000Y-112220000D01*
D11*
%TO.C,SW2*%
X39650000Y-88396360D03*
X47850000Y-88396360D03*
D12*
X41750000Y-88396360D03*
X43750000Y-88396360D03*
X45750000Y-88396360D03*
%TD*%
D13*
%TO.C,H3*%
X216000000Y-156980000D03*
%TD*%
D14*
%TO.C,J28*%
X123250000Y-96250000D03*
X123250000Y-89250000D03*
%TD*%
D13*
%TO.C,H2*%
X26000000Y-157000000D03*
%TD*%
D15*
%TO.C,VR1*%
X91250000Y-100375000D03*
X93750000Y-100375000D03*
X96250000Y-100375000D03*
D16*
X89350000Y-93375000D03*
X98150000Y-93375000D03*
%TD*%
D13*
%TO.C,H4*%
X216000000Y-112220000D03*
%TD*%
%TO.C,H6*%
X132974874Y-89000000D03*
%TD*%
D11*
%TO.C,SW1*%
X25500000Y-113600000D03*
X25500000Y-105400000D03*
D12*
X25500000Y-111500000D03*
X25500000Y-109500000D03*
X25500000Y-107500000D03*
%TD*%
D17*
%TO.C,VR2*%
X107000000Y-100375000D03*
D15*
X109500000Y-100375000D03*
X112000000Y-100375000D03*
D16*
X105100000Y-93375000D03*
X113900000Y-93375000D03*
%TD*%
D18*
%TO.C,Q1*%
X64570000Y-109520000D03*
D19*
X64570000Y-108250000D03*
X64570000Y-106980000D03*
%TD*%
D11*
%TO.C,SW3*%
X70900000Y-88396360D03*
X83100000Y-88396360D03*
D12*
X73000000Y-88396360D03*
X75000000Y-88396360D03*
X77000000Y-88396360D03*
X81000000Y-88396360D03*
%TD*%
D20*
%TO.C,J27*%
X129274874Y-103500000D03*
D21*
X129274874Y-101500000D03*
%TD*%
D13*
%TO.C,H5*%
X132974874Y-112220000D03*
%TD*%
%TO.C,H1*%
X26000000Y-89000000D03*
%TD*%
D22*
%TO.C,J1*%
X25600000Y-93180000D03*
X29400000Y-101820000D03*
X25600000Y-101820000D03*
X29400000Y-93180000D03*
%TD*%
D23*
%TO.C,RV1*%
X52000000Y-87300000D03*
D24*
X53000000Y-90550000D03*
D23*
X54000000Y-87300000D03*
%TD*%
M02*
