%TF.GenerationSoftware,KiCad,Pcbnew,(6.0.7)*%
%TF.CreationDate,2023-07-28T14:32:25-04:00*%
%TF.ProjectId,Stylophone,5374796c-6f70-4686-9f6e-652e6b696361,rev?*%
%TF.SameCoordinates,Original*%
%TF.FileFunction,Copper,L1,Top*%
%TF.FilePolarity,Positive*%
%FSLAX46Y46*%
G04 Gerber Fmt 4.6, Leading zero omitted, Abs format (unit mm)*
G04 Created by KiCad (PCBNEW (6.0.7)) date 2023-07-28 14:32:25*
%MOMM*%
%LPD*%
G01*
G04 APERTURE LIST*
G04 Aperture macros list*
%AMRoundRect*
0 Rectangle with rounded corners*
0 $1 Rounding radius*
0 $2 $3 $4 $5 $6 $7 $8 $9 X,Y pos of 4 corners*
0 Add a 4 corners polygon primitive as box body*
4,1,4,$2,$3,$4,$5,$6,$7,$8,$9,$2,$3,0*
0 Add four circle primitives for the rounded corners*
1,1,$1+$1,$2,$3*
1,1,$1+$1,$4,$5*
1,1,$1+$1,$6,$7*
1,1,$1+$1,$8,$9*
0 Add four rect primitives between the rounded corners*
20,1,$1+$1,$2,$3,$4,$5,0*
20,1,$1+$1,$4,$5,$6,$7,0*
20,1,$1+$1,$6,$7,$8,$9,0*
20,1,$1+$1,$8,$9,$2,$3,0*%
%AMFreePoly0*
4,1,45,2.512662,7.087767,2.516726,7.088432,2.520033,7.086467,2.530782,7.084572,2.549099,7.069202,2.569656,7.056991,7.069656,1.556992,7.084947,1.529730,7.084757,1.514405,7.090000,1.500000,7.090000,-7.000000,7.087939,-7.011690,7.088633,-7.015628,7.086634,-7.019091,7.084572,-7.030782,7.069543,-7.048693,7.057851,-7.068944,7.050220,-7.071722,7.045000,-7.077942,7.021973,-7.082003,
7.000000,-7.090000,-7.000000,-7.090000,-7.011690,-7.087939,-7.015628,-7.088633,-7.019091,-7.086634,-7.030782,-7.084572,-7.048693,-7.069543,-7.068944,-7.057851,-7.071722,-7.050220,-7.077942,-7.045000,-7.082003,-7.021973,-7.090000,-7.000000,-7.090000,1.500000,-7.084572,1.530782,-7.074719,1.542524,-7.069656,1.556991,-2.569656,7.056991,-2.559911,7.065376,-2.557851,7.068944,-2.554235,7.070260,
-2.545963,7.077378,-2.522471,7.081821,-2.500000,7.090000,2.500000,7.090000,2.512662,7.087767,2.512662,7.087767,$1*%
%AMFreePoly1*
4,1,58,7.511690,15.087939,7.515628,15.088633,7.519091,15.086634,7.530782,15.084572,7.548693,15.069543,7.568944,15.057851,7.571722,15.050220,7.577942,15.045000,7.582003,15.021973,7.590000,15.000000,7.590000,-15.000000,7.587939,-15.011690,7.588633,-15.015628,7.586634,-15.019091,7.584572,-15.030782,7.569543,-15.048693,7.557851,-15.068944,7.550220,-15.071722,7.545000,-15.077942,7.521973,-15.082003,
7.500000,-15.090000,-7.500000,-15.090000,-7.511690,-15.087939,-7.515628,-15.088633,-7.519091,-15.086634,-7.530782,-15.084572,-7.548693,-15.069543,-7.568944,-15.057851,-7.571722,-15.050220,-7.577942,-15.045000,-7.582003,-15.021973,-7.590000,-15.000000,-7.590000,0.000000,-7.587939,0.011690,-7.588633,0.015628,-7.586634,0.019091,-7.584572,0.030782,-7.569543,0.048693,-7.557851,0.068944,-7.550220,0.071722,
-7.545000,0.077942,-7.521973,0.082003,-7.500000,0.090000,-5.042154,0.090000,-0.090000,6.032585,-0.090000,15.000000,-0.087939,15.011690,-0.088633,15.015628,-0.086634,15.019091,-0.084572,15.030782,-0.069543,15.048693,-0.057851,15.068944,-0.050220,15.071722,-0.045000,15.077942,-0.021973,15.082003,0.000000,15.090000,7.500000,15.090000,7.511690,15.087939,7.511690,15.087939,$1*%
%AMFreePoly2*
4,1,59,0.015347,6.087033,0.020445,6.087647,0.042347,6.073353,0.065682,6.061530,0.067700,6.056807,0.072000,6.054000,4.545000,0.090000,7.000000,0.090000,7.011690,0.087939,7.015628,0.088633,7.019091,0.086634,7.030782,0.084572,7.048693,0.069543,7.068944,0.057851,7.071722,0.050220,7.077942,0.045000,7.082003,0.021973,7.090000,0.000000,7.090000,-15.000000,7.087939,-15.011690,
7.088633,-15.015628,7.086634,-15.019091,7.084572,-15.030782,7.069543,-15.048693,7.057851,-15.068944,7.050220,-15.071722,7.045000,-15.077942,7.021973,-15.082003,7.000000,-15.090000,-7.000000,-15.090000,-7.011690,-15.087939,-7.015628,-15.088633,-7.019091,-15.086634,-7.030782,-15.084572,-7.048693,-15.069543,-7.068944,-15.057851,-7.071722,-15.050220,-7.077942,-15.045000,-7.082003,-15.021973,-7.090000,-15.000000,
-7.090000,0.000000,-7.087939,0.011690,-7.088633,0.015628,-7.086634,0.019091,-7.084572,0.030782,-7.069543,0.048693,-7.057851,0.068944,-7.050220,0.071722,-7.045000,0.077942,-7.021973,0.082003,-7.000000,0.090000,-4.545000,0.090000,-0.072000,6.054000,-0.049188,6.075369,-0.044188,6.076535,-0.040677,6.080283,-0.014710,6.083411,0.010765,6.089354,0.015347,6.087033,0.015347,6.087033,
$1*%
%AMFreePoly3*
4,1,58,0.011690,15.087939,0.015628,15.088633,0.019091,15.086634,0.030782,15.084572,0.048693,15.069543,0.068944,15.057851,0.071722,15.050220,0.077942,15.045000,0.082003,15.021973,0.090000,15.000000,0.090000,6.032585,5.042153,0.090000,7.500000,0.090000,7.511690,0.087939,7.515628,0.088633,7.519091,0.086634,7.530782,0.084572,7.548693,0.069543,7.568944,0.057851,7.571722,0.050220,
7.577942,0.045000,7.582003,0.021973,7.590000,0.000000,7.590000,-15.000000,7.587939,-15.011690,7.588633,-15.015628,7.586634,-15.019091,7.584572,-15.030782,7.569543,-15.048693,7.557851,-15.068944,7.550220,-15.071722,7.545000,-15.077942,7.521973,-15.082003,7.500000,-15.090000,-7.500000,-15.090000,-7.511690,-15.087939,-7.515628,-15.088633,-7.519091,-15.086634,-7.530782,-15.084572,-7.548693,-15.069543,
-7.568944,-15.057851,-7.571722,-15.050220,-7.577942,-15.045000,-7.582003,-15.021973,-7.590000,-15.000000,-7.590000,15.000000,-7.587939,15.011690,-7.588633,15.015628,-7.586634,15.019091,-7.584572,15.030782,-7.569543,15.048693,-7.557851,15.068944,-7.550220,15.071722,-7.545000,15.077942,-7.521973,15.082003,-7.500000,15.090000,0.000000,15.090000,0.011690,15.087939,0.011690,15.087939,$1*%
%AMFreePoly4*
4,1,6,1.000000,0.000000,0.500000,-0.750000,-0.500000,-0.750000,-0.500000,0.750000,0.500000,0.750000,1.000000,0.000000,1.000000,0.000000,$1*%
%AMFreePoly5*
4,1,6,0.500000,-0.750000,-0.650000,-0.750000,-0.150000,0.000000,-0.650000,0.750000,0.500000,0.750000,0.500000,-0.750000,0.500000,-0.750000,$1*%
G04 Aperture macros list end*
%TA.AperFunction,Profile*%
%ADD10C,0.100000*%
%TD*%
%TA.AperFunction,SMDPad,CuDef*%
%ADD11RoundRect,0.250000X0.350000X0.450000X-0.350000X0.450000X-0.350000X-0.450000X0.350000X-0.450000X0*%
%TD*%
%TA.AperFunction,SMDPad,CuDef*%
%ADD12RoundRect,0.250000X0.750000X-0.250000X0.750000X0.250000X-0.750000X0.250000X-0.750000X-0.250000X0*%
%TD*%
%TA.AperFunction,SMDPad,CuDef*%
%ADD13FreePoly0,180.000000*%
%TD*%
%TA.AperFunction,SMDPad,CuDef*%
%ADD14FreePoly1,0.000000*%
%TD*%
%TA.AperFunction,SMDPad,CuDef*%
%ADD15RoundRect,0.250000X0.450000X-0.350000X0.450000X0.350000X-0.450000X0.350000X-0.450000X-0.350000X0*%
%TD*%
%TA.AperFunction,ComponentPad*%
%ADD16C,2.250000*%
%TD*%
%TA.AperFunction,ComponentPad*%
%ADD17C,1.300000*%
%TD*%
%TA.AperFunction,SMDPad,CuDef*%
%ADD18C,1.500000*%
%TD*%
%TA.AperFunction,SMDPad,CuDef*%
%ADD19RoundRect,0.250000X-0.350000X-0.450000X0.350000X-0.450000X0.350000X0.450000X-0.350000X0.450000X0*%
%TD*%
%TA.AperFunction,SMDPad,CuDef*%
%ADD20RoundRect,0.250000X-0.412500X-0.650000X0.412500X-0.650000X0.412500X0.650000X-0.412500X0.650000X0*%
%TD*%
%TA.AperFunction,SMDPad,CuDef*%
%ADD21RoundRect,0.150000X0.150000X-0.587500X0.150000X0.587500X-0.150000X0.587500X-0.150000X-0.587500X0*%
%TD*%
%TA.AperFunction,SMDPad,CuDef*%
%ADD22RoundRect,0.237500X0.237500X-0.287500X0.237500X0.287500X-0.237500X0.287500X-0.237500X-0.287500X0*%
%TD*%
%TA.AperFunction,SMDPad,CuDef*%
%ADD23RoundRect,0.250000X0.250000X0.750000X-0.250000X0.750000X-0.250000X-0.750000X0.250000X-0.750000X0*%
%TD*%
%TA.AperFunction,ComponentPad*%
%ADD24C,0.850000*%
%TD*%
%TA.AperFunction,SMDPad,CuDef*%
%ADD25R,2.800000X2.600000*%
%TD*%
%TA.AperFunction,SMDPad,CuDef*%
%ADD26R,2.800000X2.200000*%
%TD*%
%TA.AperFunction,SMDPad,CuDef*%
%ADD27R,2.800000X2.800000*%
%TD*%
%TA.AperFunction,SMDPad,CuDef*%
%ADD28RoundRect,0.237500X-0.237500X0.300000X-0.237500X-0.300000X0.237500X-0.300000X0.237500X0.300000X0*%
%TD*%
%TA.AperFunction,SMDPad,CuDef*%
%ADD29RoundRect,0.150000X-0.587500X-0.150000X0.587500X-0.150000X0.587500X0.150000X-0.587500X0.150000X0*%
%TD*%
%TA.AperFunction,SMDPad,CuDef*%
%ADD30FreePoly2,0.000000*%
%TD*%
%TA.AperFunction,SMDPad,CuDef*%
%ADD31RoundRect,0.250000X0.650000X-0.412500X0.650000X0.412500X-0.650000X0.412500X-0.650000X-0.412500X0*%
%TD*%
%TA.AperFunction,ComponentPad*%
%ADD32C,1.500000*%
%TD*%
%TA.AperFunction,ComponentPad*%
%ADD33C,4.260000*%
%TD*%
%TA.AperFunction,SMDPad,CuDef*%
%ADD34RoundRect,0.250000X-0.650000X0.412500X-0.650000X-0.412500X0.650000X-0.412500X0.650000X0.412500X0*%
%TD*%
%TA.AperFunction,SMDPad,CuDef*%
%ADD35R,0.900000X1.200000*%
%TD*%
%TA.AperFunction,SMDPad,CuDef*%
%ADD36RoundRect,0.250000X-0.337500X-0.475000X0.337500X-0.475000X0.337500X0.475000X-0.337500X0.475000X0*%
%TD*%
%TA.AperFunction,SMDPad,CuDef*%
%ADD37R,0.650000X2.000000*%
%TD*%
%TA.AperFunction,SMDPad,CuDef*%
%ADD38RoundRect,0.237500X-0.300000X-0.237500X0.300000X-0.237500X0.300000X0.237500X-0.300000X0.237500X0*%
%TD*%
%TA.AperFunction,SMDPad,CuDef*%
%ADD39FreePoly3,0.000000*%
%TD*%
%TA.AperFunction,ComponentPad*%
%ADD40R,1.500000X1.500000*%
%TD*%
%TA.AperFunction,ComponentPad*%
%ADD41R,1.500000X1.050000*%
%TD*%
%TA.AperFunction,ComponentPad*%
%ADD42O,1.500000X1.050000*%
%TD*%
%TA.AperFunction,SMDPad,CuDef*%
%ADD43R,5.100000X2.400000*%
%TD*%
%TA.AperFunction,SMDPad,CuDef*%
%ADD44RoundRect,0.250000X-1.500000X-0.550000X1.500000X-0.550000X1.500000X0.550000X-1.500000X0.550000X0*%
%TD*%
%TA.AperFunction,SMDPad,CuDef*%
%ADD45R,1.200000X0.900000*%
%TD*%
%TA.AperFunction,ComponentPad*%
%ADD46RoundRect,0.250000X0.625000X-0.350000X0.625000X0.350000X-0.625000X0.350000X-0.625000X-0.350000X0*%
%TD*%
%TA.AperFunction,ComponentPad*%
%ADD47O,1.750000X1.200000*%
%TD*%
%TA.AperFunction,SMDPad,CuDef*%
%ADD48RoundRect,0.250000X-0.450000X0.350000X-0.450000X-0.350000X0.450000X-0.350000X0.450000X0.350000X0*%
%TD*%
%TA.AperFunction,SMDPad,CuDef*%
%ADD49RoundRect,0.237500X-0.237500X0.287500X-0.237500X-0.287500X0.237500X-0.287500X0.237500X0.287500X0*%
%TD*%
%TA.AperFunction,SMDPad,CuDef*%
%ADD50RoundRect,0.250000X-0.750000X0.250000X-0.750000X-0.250000X0.750000X-0.250000X0.750000X0.250000X0*%
%TD*%
%TA.AperFunction,SMDPad,CuDef*%
%ADD51RoundRect,0.237500X0.237500X-0.300000X0.237500X0.300000X-0.237500X0.300000X-0.237500X-0.300000X0*%
%TD*%
%TA.AperFunction,SMDPad,CuDef*%
%ADD52FreePoly4,270.000000*%
%TD*%
%TA.AperFunction,SMDPad,CuDef*%
%ADD53FreePoly5,270.000000*%
%TD*%
%TA.AperFunction,SMDPad,CuDef*%
%ADD54RoundRect,0.070000X-0.530000X0.280000X-0.530000X-0.280000X0.530000X-0.280000X0.530000X0.280000X0*%
%TD*%
%TA.AperFunction,SMDPad,CuDef*%
%ADD55RoundRect,0.076000X-0.524000X0.304000X-0.524000X-0.304000X0.524000X-0.304000X0.524000X0.304000X0*%
%TD*%
%TA.AperFunction,SMDPad,CuDef*%
%ADD56RoundRect,0.080000X-0.520000X0.320000X-0.520000X-0.320000X0.520000X-0.320000X0.520000X0.320000X0*%
%TD*%
%TA.AperFunction,ComponentPad*%
%ADD57O,1.700000X1.100000*%
%TD*%
%TA.AperFunction,ViaPad*%
%ADD58C,0.800000*%
%TD*%
%TA.AperFunction,Conductor*%
%ADD59C,0.400000*%
%TD*%
%TA.AperFunction,Conductor*%
%ADD60C,0.250000*%
%TD*%
G04 APERTURE END LIST*
D10*
X26000000Y-85500000D02*
X132974874Y-85500000D01*
X26000000Y-85500000D02*
G75*
G03*
X22500000Y-89000000I0J-3500000D01*
G01*
X216000000Y-160480000D02*
X26000000Y-160500000D01*
X216000000Y-108720000D02*
X139974874Y-108740000D01*
X216000000Y-160480000D02*
G75*
G03*
X219500000Y-156980000I0J3500000D01*
G01*
X136474900Y-105240000D02*
G75*
G03*
X139974874Y-108740000I3500000J0D01*
G01*
X22500000Y-157000000D02*
G75*
G03*
X26000000Y-160500000I3500000J0D01*
G01*
X136474874Y-89000000D02*
X136474874Y-105240000D01*
X219500000Y-112220000D02*
G75*
G03*
X216000000Y-108720000I-3500000J0D01*
G01*
X22500000Y-89000000D02*
X22500000Y-157000000D01*
X136474900Y-89000000D02*
G75*
G03*
X132974874Y-85500000I-3500000J0D01*
G01*
X219500000Y-156980000D02*
X219500000Y-112220000D01*
D11*
%TO.P,RPD1,2*%
%TO.N,GND*%
X34000000Y-116500000D03*
%TO.P,RPD1,1*%
%TO.N,VDD*%
X36000000Y-116500000D03*
%TD*%
D12*
%TO.P,J25,1,Pin_1*%
%TO.N,Net-(DFB1-Pad1)*%
X134124874Y-94250000D03*
%TD*%
D13*
%TO.P,J9,1,Pin_1*%
%TO.N,Net-(J9-Pad1)*%
X75000000Y-129000000D03*
%TD*%
D14*
%TO.P,J12,1,Pin_1*%
%TO.N,Net-(J12-Pad1)*%
X98000000Y-137000000D03*
%TD*%
D15*
%TO.P,RP1,1*%
%TO.N,+5V*%
X68500000Y-108750000D03*
%TO.P,RP1,2*%
%TO.N,VIB_SIG*%
X68500000Y-106750000D03*
%TD*%
D16*
%TO.P,SW2,5*%
%TO.N,N/C*%
X39650000Y-88396360D03*
%TO.P,SW2,4*%
X47850000Y-88396360D03*
D17*
%TO.P,SW2,3,C*%
%TO.N,GND*%
X41750000Y-88396360D03*
%TO.P,SW2,2,B*%
%TO.N,Net-(COS3-Pad2)*%
X43750000Y-88396360D03*
%TO.P,SW2,1,A*%
%TO.N,unconnected-(SW2-Pad1)*%
X45750000Y-88396360D03*
%TD*%
D18*
%TO.P,TPOS2,1,1*%
%TO.N,Net-(CMX1-Pad1)*%
X60000000Y-96500000D03*
%TD*%
D11*
%TO.P,RL2,1*%
%TO.N,Net-(RL1-Pad2)*%
X212000000Y-119500000D03*
%TO.P,RL2,2*%
%TO.N,Net-(J15-Pad1)*%
X210000000Y-119500000D03*
%TD*%
%TO.P,RL3,1*%
%TO.N,Net-(J15-Pad1)*%
X199845000Y-119500000D03*
%TO.P,RL3,2*%
%TO.N,Net-(J16-Pad1)*%
X197845000Y-119500000D03*
%TD*%
D19*
%TO.P,RL1,1*%
%TO.N,RESISTOR_MODULE*%
X203750000Y-117750000D03*
%TO.P,RL1,2*%
%TO.N,Net-(RL1-Pad2)*%
X205750000Y-117750000D03*
%TD*%
D20*
%TO.P,CMX1,1*%
%TO.N,Net-(CMX1-Pad1)*%
X55157500Y-103550000D03*
%TO.P,CMX1,2*%
%TO.N,Net-(CMX1-Pad2)*%
X58282500Y-103550000D03*
%TD*%
D19*
%TO.P,RL18,1*%
%TO.N,Net-(J8-Pad1)*%
X62500000Y-119500000D03*
%TO.P,RL18,2*%
%TO.N,Net-(J9-Pad1)*%
X64500000Y-119500000D03*
%TD*%
D21*
%TO.P,Q4,1,B*%
%TO.N,Net-(COS3-Pad2)*%
X54550000Y-95737500D03*
%TO.P,Q4,2,E*%
%TO.N,Net-(Q4-Pad2)*%
X56450000Y-95737500D03*
%TO.P,Q4,3,C*%
%TO.N,Net-(COS1-Pad1)*%
X55500000Y-93862500D03*
%TD*%
D11*
%TO.P,RL10,1*%
%TO.N,Net-(J22-Pad1)*%
X138000000Y-119500000D03*
%TO.P,RL10,2*%
%TO.N,Net-(J23-Pad1)*%
X136000000Y-119500000D03*
%TD*%
D22*
%TO.P,LED2,1,K*%
%TO.N,GND*%
X31750000Y-106415000D03*
%TO.P,LED2,2,A*%
%TO.N,Net-(LED2-Pad2)*%
X31750000Y-104665000D03*
%TD*%
D14*
%TO.P,J20,1,Pin_1*%
%TO.N,Net-(J20-Pad1)*%
X160000000Y-137000000D03*
%TD*%
D23*
%TO.P,J3,1,Pin_1*%
%TO.N,GND*%
X34270000Y-88000000D03*
%TD*%
D21*
%TO.P,Q3,1,G*%
%TO.N,Net-(Q3-Pad1)*%
X81300000Y-108187500D03*
%TO.P,Q3,2,S*%
%TO.N,+5V*%
X83200000Y-108187500D03*
%TO.P,Q3,3,D*%
%TO.N,Net-(J28-Pad2)*%
X82250000Y-106312500D03*
%TD*%
D19*
%TO.P,RL12,1*%
%TO.N,Net-(J14-Pad1)*%
X121095000Y-119500000D03*
%TO.P,RL12,2*%
%TO.N,Net-(J24-Pad1)*%
X123095000Y-119500000D03*
%TD*%
D11*
%TO.P,RL5,1*%
%TO.N,Net-(J17-Pad1)*%
X185250000Y-119500000D03*
%TO.P,RL5,2*%
%TO.N,Net-(J18-Pad1)*%
X183250000Y-119500000D03*
%TD*%
D19*
%TO.P,RPG1,1*%
%TO.N,Net-(RPG1-Pad1)*%
X38000000Y-115750000D03*
%TO.P,RPG1,2*%
%TO.N,GND*%
X40000000Y-115750000D03*
%TD*%
D21*
%TO.P,Q5,1,B*%
%TO.N,Net-(COS5-Pad2)*%
X44800000Y-104237500D03*
%TO.P,Q5,2,E*%
%TO.N,Net-(Q5-Pad2)*%
X46700000Y-104237500D03*
%TO.P,Q5,3,C*%
%TO.N,Net-(CMX1-Pad1)*%
X45750000Y-102362500D03*
%TD*%
D19*
%TO.P,RL14,1*%
%TO.N,Net-(J12-Pad1)*%
X101000000Y-119500000D03*
%TO.P,RL14,2*%
%TO.N,Net-(J13-Pad1)*%
X103000000Y-119500000D03*
%TD*%
D18*
%TO.P,TPCAP1,1,1*%
%TO.N,RESISTOR_MODULE*%
X66750000Y-96500000D03*
%TD*%
%TO.P,TPVO3,1,1*%
%TO.N,Net-(Q3-Pad1)*%
X100000000Y-103000000D03*
%TD*%
D24*
%TO.P,J28,MH2*%
%TO.N,N/C*%
X123250000Y-96250000D03*
%TO.P,J28,MH1*%
X123250000Y-89250000D03*
D25*
%TO.P,J28,10,SW*%
%TO.N,Net-(DFB1-Pad1)*%
X124000000Y-101550000D03*
D26*
%TO.P,J28,3*%
%TO.N,Net-(J28-Pad2)*%
X126950000Y-90050000D03*
D27*
%TO.P,J28,2*%
X119550000Y-97550000D03*
D26*
%TO.P,J28,1*%
%TO.N,GND*%
X119550000Y-88150000D03*
%TD*%
D13*
%TO.P,J21,1,Pin_1*%
%TO.N,Net-(J21-Pad1)*%
X152000000Y-129000000D03*
%TD*%
%TO.P,J6,1,Pin_1*%
%TO.N,Net-(J6-Pad1)*%
X43000000Y-129000000D03*
%TD*%
D28*
%TO.P,CA1,1*%
%TO.N,Net-(CA1-Pad1)*%
X77000000Y-109887500D03*
%TO.P,CA1,2*%
%TO.N,GND*%
X77000000Y-111612500D03*
%TD*%
D14*
%TO.P,J7,1,Pin_1*%
%TO.N,Net-(J7-Pad1)*%
X51000000Y-137000000D03*
%TD*%
D11*
%TO.P,RL4,1*%
%TO.N,Net-(J16-Pad1)*%
X192750000Y-119500000D03*
%TO.P,RL4,2*%
%TO.N,Net-(J17-Pad1)*%
X190750000Y-119500000D03*
%TD*%
D15*
%TO.P,RD1,1*%
%TO.N,GND*%
X72437500Y-105000000D03*
%TO.P,RD1,2*%
%TO.N,Net-(DAT1-Pad2)*%
X72437500Y-103000000D03*
%TD*%
D19*
%TO.P,RE3,1*%
%TO.N,Net-(Q5-Pad2)*%
X50750000Y-107050000D03*
%TO.P,RE3,2*%
%TO.N,GND*%
X52750000Y-107050000D03*
%TD*%
D29*
%TO.P,Q2,1,B*%
%TO.N,Net-(Q2-Pad1)*%
X74812500Y-114050000D03*
%TO.P,Q2,2,E*%
%TO.N,GND*%
X74812500Y-115950000D03*
%TO.P,Q2,3,C*%
%TO.N,Net-(Q2-Pad3)*%
X76687500Y-115000000D03*
%TD*%
D12*
%TO.P,J26,1,Pin_1*%
%TO.N,GND*%
X134124874Y-96750000D03*
%TD*%
D11*
%TO.P,RB4,1*%
%TO.N,Net-(COS5-Pad2)*%
X42250000Y-107050000D03*
%TO.P,RB4,2*%
%TO.N,GND*%
X40250000Y-107050000D03*
%TD*%
D30*
%TO.P,J17,1,Pin_1*%
%TO.N,Net-(J17-Pad1)*%
X191500000Y-136990000D03*
%TD*%
D11*
%TO.P,RB3,1*%
%TO.N,+5V*%
X47500000Y-107050000D03*
%TO.P,RB3,2*%
%TO.N,Net-(COS5-Pad2)*%
X45500000Y-107050000D03*
%TD*%
D28*
%TO.P,CA2,1*%
%TO.N,Net-(CA2-Pad1)*%
X74000000Y-109887500D03*
%TO.P,CA2,2*%
%TO.N,GND*%
X74000000Y-111612500D03*
%TD*%
D31*
%TO.P,CC4,1*%
%TO.N,Net-(CC4-Pad1)*%
X63400000Y-115062500D03*
%TO.P,CC4,2*%
%TO.N,GND*%
X63400000Y-111937500D03*
%TD*%
D11*
%TO.P,ROS1,1*%
%TO.N,Net-(COS1-Pad2)*%
X42300000Y-98330000D03*
%TO.P,ROS1,2*%
%TO.N,GND*%
X40300000Y-98330000D03*
%TD*%
D32*
%TO.P,VR1,1,CCW*%
%TO.N,Net-(RP2-Pad2)*%
X91250000Y-100375000D03*
%TO.P,VR1,2,WIPER*%
%TO.N,GND*%
X93750000Y-100375000D03*
%TO.P,VR1,3,CW*%
%TO.N,unconnected-(VR1-Pad3)*%
X96250000Y-100375000D03*
D33*
%TO.P,VR1,MH1,MH1*%
%TO.N,unconnected-(VR1-PadMH1)*%
X89350000Y-93375000D03*
%TO.P,VR1,MH2,MH2*%
%TO.N,unconnected-(VR1-PadMH2)*%
X98150000Y-93375000D03*
%TD*%
D34*
%TO.P,CC3,1*%
%TO.N,Net-(CC3-Pad1)*%
X39250000Y-110437500D03*
%TO.P,CC3,2*%
%TO.N,GND*%
X39250000Y-113562500D03*
%TD*%
D35*
%TO.P,DAT1,1,K*%
%TO.N,Net-(CA1-Pad1)*%
X80250000Y-103000000D03*
%TO.P,DAT1,2,A*%
%TO.N,Net-(DAT1-Pad2)*%
X76950000Y-103000000D03*
%TD*%
D28*
%TO.P,CMB1,1*%
%TO.N,Net-(CMB1-Pad1)*%
X79500000Y-93137500D03*
%TO.P,CMB1,2*%
%TO.N,GND*%
X79500000Y-94862500D03*
%TD*%
D30*
%TO.P,J24,1,Pin_1*%
%TO.N,Net-(J24-Pad1)*%
X129500000Y-137000000D03*
%TD*%
%TO.P,J22,1,Pin_1*%
%TO.N,Net-(J22-Pad1)*%
X144500000Y-137000000D03*
%TD*%
D11*
%TO.P,RL6,1*%
%TO.N,Net-(J18-Pad1)*%
X173500000Y-119500000D03*
%TO.P,RL6,2*%
%TO.N,Net-(J19-Pad1)*%
X171500000Y-119500000D03*
%TD*%
D15*
%TO.P,R1,1*%
%TO.N,Net-(J1-PadB5)*%
X35000000Y-95750000D03*
%TO.P,R1,2*%
%TO.N,GND*%
X35000000Y-93750000D03*
%TD*%
D11*
%TO.P,RL8,1*%
%TO.N,Net-(J20-Pad1)*%
X153095000Y-119500000D03*
%TO.P,RL8,2*%
%TO.N,Net-(J21-Pad1)*%
X151095000Y-119500000D03*
%TD*%
D13*
%TO.P,J16,1,Pin_1*%
%TO.N,Net-(J16-Pad1)*%
X199000000Y-129000000D03*
%TD*%
D36*
%TO.P,COS1,1*%
%TO.N,Net-(COS1-Pad1)*%
X38490693Y-95799856D03*
%TO.P,COS1,2*%
%TO.N,Net-(COS1-Pad2)*%
X40565693Y-95799856D03*
%TD*%
D37*
%TO.P,U1,1,STAT*%
%TO.N,Net-(RBS1-Pad2)*%
X36700000Y-108790000D03*
%TO.P,U1,2,VSS*%
%TO.N,GND*%
X35750000Y-108790000D03*
%TO.P,U1,3,VBAT*%
%TO.N,Net-(CC3-Pad1)*%
X34800000Y-108790000D03*
%TO.P,U1,4,VDD*%
%TO.N,VDD*%
X34800000Y-112210000D03*
%TO.P,U1,5,PROG*%
%TO.N,Net-(RPG1-Pad1)*%
X36700000Y-112210000D03*
%TD*%
D18*
%TO.P,TPVO1,1,1*%
%TO.N,Net-(DAT1-Pad2)*%
X85000000Y-101250000D03*
%TD*%
D28*
%TO.P,CC1,1*%
%TO.N,VDD*%
X32500000Y-112250000D03*
%TO.P,CC1,2*%
%TO.N,GND*%
X32500000Y-113975000D03*
%TD*%
D30*
%TO.P,J10,1,Pin_1*%
%TO.N,Net-(J10-Pad1)*%
X82500000Y-137000000D03*
%TD*%
D18*
%TO.P,TPVO2,1,1*%
%TO.N,Net-(Q2-Pad3)*%
X81500000Y-115250000D03*
%TD*%
D38*
%TO.P,COS5,1*%
%TO.N,Net-(COS1-Pad1)*%
X38665693Y-104050000D03*
%TO.P,COS5,2*%
%TO.N,Net-(COS5-Pad2)*%
X40390693Y-104050000D03*
%TD*%
D19*
%TO.P,RL15,1*%
%TO.N,Net-(J11-Pad1)*%
X89250000Y-119500000D03*
%TO.P,RL15,2*%
%TO.N,Net-(J12-Pad1)*%
X91250000Y-119500000D03*
%TD*%
D39*
%TO.P,J19,1,Pin_1*%
%TO.N,Net-(J19-Pad1)*%
X176000000Y-137000000D03*
%TD*%
D21*
%TO.P,Q6,1,G*%
%TO.N,VDD*%
X44050000Y-115737500D03*
%TO.P,Q6,2,S*%
%TO.N,GND*%
X45950000Y-115737500D03*
%TO.P,Q6,3,D*%
%TO.N,Net-(Q6-Pad3)*%
X45000000Y-113862500D03*
%TD*%
D19*
%TO.P,RBS1,1*%
%TO.N,Net-(LED2-Pad2)*%
X32500000Y-102000000D03*
%TO.P,RBS1,2*%
%TO.N,Net-(RBS1-Pad2)*%
X34500000Y-102000000D03*
%TD*%
D13*
%TO.P,J14,1,Pin_1*%
%TO.N,Net-(J14-Pad1)*%
X122000000Y-129000000D03*
%TD*%
D16*
%TO.P,SW1,5*%
%TO.N,N/C*%
X25500000Y-113600000D03*
%TO.P,SW1,4*%
X25500000Y-105400000D03*
D17*
%TO.P,SW1,3,C*%
%TO.N,unconnected-(SW1-Pad3)*%
X25500000Y-111500000D03*
%TO.P,SW1,2,B*%
%TO.N,Net-(D1-Pad2)*%
X25500000Y-109500000D03*
%TO.P,SW1,1,A*%
%TO.N,Net-(CC4-Pad1)*%
X25500000Y-107500000D03*
%TD*%
D19*
%TO.P,RMX1,1*%
%TO.N,Net-(CMX1-Pad2)*%
X60500000Y-103550000D03*
%TO.P,RMX1,2*%
%TO.N,VIB_SIG*%
X62500000Y-103550000D03*
%TD*%
D40*
%TO.P,VR2,1,CCW*%
%TO.N,Net-(RFD1-Pad2)*%
X107000000Y-100375000D03*
D32*
%TO.P,VR2,2,WIPER*%
%TO.N,Net-(Q3-Pad1)*%
X109500000Y-100375000D03*
%TO.P,VR2,3,CW*%
%TO.N,Net-(Q2-Pad3)*%
X112000000Y-100375000D03*
D33*
%TO.P,VR2,MH1,MH1*%
%TO.N,unconnected-(VR2-PadMH1)*%
X105100000Y-93375000D03*
%TO.P,VR2,MH2,MH2*%
%TO.N,unconnected-(VR2-PadMH2)*%
X113900000Y-93375000D03*
%TD*%
D18*
%TO.P,TPVBUS1,1,1*%
%TO.N,VDD*%
X35250000Y-98750000D03*
%TD*%
D19*
%TO.P,RL17,1*%
%TO.N,Net-(J9-Pad1)*%
X74000000Y-119500000D03*
%TO.P,RL17,2*%
%TO.N,Net-(J10-Pad1)*%
X76000000Y-119500000D03*
%TD*%
D41*
%TO.P,Q1,1,Anode*%
%TO.N,RESISTOR_MODULE*%
X64570000Y-109520000D03*
D42*
%TO.P,Q1,2,Gate*%
%TO.N,VIB_SIG*%
X64570000Y-108250000D03*
%TO.P,Q1,3,Cathode*%
%TO.N,Net-(DAT1-Pad2)*%
X64570000Y-106980000D03*
%TD*%
D19*
%TO.P,RL19,1*%
%TO.N,Net-(J7-Pad1)*%
X53500000Y-119500000D03*
%TO.P,RL19,2*%
%TO.N,Net-(J8-Pad1)*%
X55500000Y-119500000D03*
%TD*%
D18*
%TO.P,TPOS1,1,1*%
%TO.N,Net-(COS1-Pad1)*%
X36750000Y-91000000D03*
%TD*%
D14*
%TO.P,J15,1,Pin_1*%
%TO.N,Net-(J15-Pad1)*%
X207000000Y-137000000D03*
%TD*%
D43*
%TO.P,LBST1,1,1*%
%TO.N,Net-(CC3-Pad1)*%
X50000000Y-111975000D03*
%TO.P,LBST1,2,2*%
%TO.N,Net-(LBST1-Pad2)*%
X50000000Y-115525000D03*
%TD*%
D19*
%TO.P,RBS2,1*%
%TO.N,Net-(LED1-Pad1)*%
X33750000Y-104250000D03*
%TO.P,RBS2,2*%
%TO.N,Net-(RBS1-Pad2)*%
X35750000Y-104250000D03*
%TD*%
D11*
%TO.P,ROS2,1*%
%TO.N,Net-(COS2-Pad2)*%
X47380000Y-98330000D03*
%TO.P,ROS2,2*%
%TO.N,GND*%
X45380000Y-98330000D03*
%TD*%
D44*
%TO.P,COS4,1*%
%TO.N,Net-(COS4-Pad1)*%
X60300000Y-91300000D03*
%TO.P,COS4,2*%
%TO.N,GND*%
X65700000Y-91300000D03*
%TD*%
D11*
%TO.P,RFB2,1*%
%TO.N,Net-(RFB1-Pad2)*%
X60800000Y-116200000D03*
%TO.P,RFB2,2*%
%TO.N,GND*%
X58800000Y-116200000D03*
%TD*%
D16*
%TO.P,SW3,MH2*%
%TO.N,N/C*%
X70900000Y-88396360D03*
%TO.P,SW3,MH1*%
X83100000Y-88396360D03*
D17*
%TO.P,SW3,4,4*%
%TO.N,Net-(CLB1-Pad2)*%
X73000000Y-88396360D03*
%TO.P,SW3,3,3*%
%TO.N,Net-(CMB1-Pad1)*%
X75000000Y-88396360D03*
%TO.P,SW3,2,2*%
%TO.N,RESISTOR_MODULE*%
X77000000Y-88396360D03*
%TO.P,SW3,1,1*%
%TO.N,Net-(CHB1-Pad1)*%
X81000000Y-88396360D03*
%TD*%
D34*
%TO.P,CC2,1*%
%TO.N,VDD*%
X29500000Y-111687500D03*
%TO.P,CC2,2*%
%TO.N,GND*%
X29500000Y-114812500D03*
%TD*%
D15*
%TO.P,RFD1,1*%
%TO.N,+5V*%
X104250000Y-103500000D03*
%TO.P,RFD1,2*%
%TO.N,Net-(RFD1-Pad2)*%
X104250000Y-101500000D03*
%TD*%
D45*
%TO.P,DFB1,1,K*%
%TO.N,Net-(DFB1-Pad1)*%
X131624874Y-93850000D03*
%TO.P,DFB1,2,A*%
%TO.N,GND*%
X131624874Y-97150000D03*
%TD*%
D18*
%TO.P,TPVBAT1,1,1*%
%TO.N,Net-(CC3-Pad1)*%
X113250000Y-103500000D03*
%TD*%
D39*
%TO.P,J13,1,Pin_1*%
%TO.N,Net-(J13-Pad1)*%
X114000000Y-137000000D03*
%TD*%
D36*
%TO.P,COS3,1*%
%TO.N,Net-(COS2-Pad2)*%
X48962500Y-95790000D03*
%TO.P,COS3,2*%
%TO.N,Net-(COS3-Pad2)*%
X51037500Y-95790000D03*
%TD*%
D19*
%TO.P,RPU1,1*%
%TO.N,Net-(CC3-Pad1)*%
X42600000Y-111600000D03*
%TO.P,RPU1,2*%
%TO.N,Net-(Q6-Pad3)*%
X44600000Y-111600000D03*
%TD*%
D11*
%TO.P,RB2,1*%
%TO.N,Net-(COS3-Pad2)*%
X52460000Y-98330000D03*
%TO.P,RB2,2*%
%TO.N,GND*%
X50460000Y-98330000D03*
%TD*%
D15*
%TO.P,RC2,1*%
%TO.N,+5V*%
X51750000Y-104550000D03*
%TO.P,RC2,2*%
%TO.N,Net-(CMX1-Pad1)*%
X51750000Y-102550000D03*
%TD*%
D46*
%TO.P,J27,1,Pin_1*%
%TO.N,Net-(CC3-Pad1)*%
X129274874Y-103500000D03*
D47*
%TO.P,J27,2,Pin_2*%
%TO.N,GND*%
X129274874Y-101500000D03*
%TD*%
D19*
%TO.P,RL16,1*%
%TO.N,Net-(J10-Pad1)*%
X82000000Y-119500000D03*
%TO.P,RL16,2*%
%TO.N,Net-(J11-Pad1)*%
X84000000Y-119500000D03*
%TD*%
D39*
%TO.P,J5,1,Pin_1*%
%TO.N,Net-(J5-Pad1)*%
X35000000Y-137000000D03*
%TD*%
D28*
%TO.P,CLB2,1*%
%TO.N,Net-(CLB1-Pad2)*%
X74000000Y-93137500D03*
%TO.P,CLB2,2*%
%TO.N,GND*%
X74000000Y-94862500D03*
%TD*%
D13*
%TO.P,J23,1,Pin_1*%
%TO.N,Net-(J23-Pad1)*%
X137000000Y-129000000D03*
%TD*%
D48*
%TO.P,RFB1,1*%
%TO.N,Net-(CC4-Pad1)*%
X60000000Y-112250000D03*
%TO.P,RFB1,2*%
%TO.N,Net-(RFB1-Pad2)*%
X60000000Y-114250000D03*
%TD*%
D49*
%TO.P,LED1,1,K*%
%TO.N,Net-(LED1-Pad1)*%
X31750000Y-108375000D03*
%TO.P,LED1,2,A*%
%TO.N,VDD*%
X31750000Y-110125000D03*
%TD*%
D50*
%TO.P,J4,1,Pin_1*%
%TO.N,+5V*%
X25000000Y-116840000D03*
%TD*%
D11*
%TO.P,RB1,1*%
%TO.N,+5V*%
X57500000Y-98330000D03*
%TO.P,RB1,2*%
%TO.N,Net-(COS3-Pad2)*%
X55500000Y-98330000D03*
%TD*%
D36*
%TO.P,COS2,1*%
%TO.N,Net-(COS1-Pad2)*%
X43882500Y-95790000D03*
%TO.P,COS2,2*%
%TO.N,Net-(COS2-Pad2)*%
X45957500Y-95790000D03*
%TD*%
D11*
%TO.P,RI2,1*%
%TO.N,+5V*%
X82250000Y-111750000D03*
%TO.P,RI2,2*%
%TO.N,Net-(Q2-Pad3)*%
X80250000Y-111750000D03*
%TD*%
D19*
%TO.P,RL21,1*%
%TO.N,Net-(J5-Pad1)*%
X30000000Y-119500000D03*
%TO.P,RL21,2*%
%TO.N,Net-(J6-Pad1)*%
X32000000Y-119500000D03*
%TD*%
%TO.P,RP2,1*%
%TO.N,VIB_SIG*%
X81000000Y-98750000D03*
%TO.P,RP2,2*%
%TO.N,Net-(RP2-Pad2)*%
X83000000Y-98750000D03*
%TD*%
D35*
%TO.P,D1,1,K*%
%TO.N,+5V*%
X69650000Y-116500000D03*
%TO.P,D1,2,A*%
%TO.N,Net-(D1-Pad2)*%
X66350000Y-116500000D03*
%TD*%
D11*
%TO.P,RL7,1*%
%TO.N,Net-(J19-Pad1)*%
X165000000Y-119500000D03*
%TO.P,RL7,2*%
%TO.N,Net-(J20-Pad1)*%
X163000000Y-119500000D03*
%TD*%
D28*
%TO.P,CHB1,1*%
%TO.N,Net-(CHB1-Pad1)*%
X84250000Y-93137500D03*
%TO.P,CHB1,2*%
%TO.N,GND*%
X84250000Y-94862500D03*
%TD*%
D18*
%TO.P,TPVO4,1,1*%
%TO.N,Net-(J28-Pad2)*%
X108750000Y-105500000D03*
%TD*%
%TO.P,TPMX1,1,1*%
%TO.N,VIB_SIG*%
X70000000Y-100500000D03*
%TD*%
D13*
%TO.P,J18,1,Pin_1*%
%TO.N,Net-(J18-Pad1)*%
X184000000Y-129000000D03*
%TD*%
D18*
%TO.P,TPVCC1,1,1*%
%TO.N,Net-(CC4-Pad1)*%
X30250000Y-90250000D03*
%TD*%
D51*
%TO.P,CLB1,1*%
%TO.N,GND*%
X72000000Y-94862500D03*
%TO.P,CLB1,2*%
%TO.N,Net-(CLB1-Pad2)*%
X72000000Y-93137500D03*
%TD*%
D19*
%TO.P,RE2,1*%
%TO.N,Net-(COS4-Pad1)*%
X62250000Y-98300000D03*
%TO.P,RE2,2*%
%TO.N,GND*%
X64250000Y-98300000D03*
%TD*%
%TO.P,RC1,1*%
%TO.N,+5V*%
X50460000Y-91750000D03*
%TO.P,RC1,2*%
%TO.N,Net-(COS1-Pad1)*%
X52460000Y-91750000D03*
%TD*%
D11*
%TO.P,RL9,1*%
%TO.N,Net-(J21-Pad1)*%
X145595000Y-119500000D03*
%TO.P,RL9,2*%
%TO.N,Net-(J22-Pad1)*%
X143595000Y-119500000D03*
%TD*%
D23*
%TO.P,J2,1,Pin_1*%
%TO.N,+5V*%
X32500000Y-88000000D03*
%TD*%
D52*
%TO.P,JP1,1,A*%
%TO.N,Net-(CA1-Pad1)*%
X76750000Y-105775000D03*
D53*
%TO.P,JP1,2,B*%
%TO.N,Net-(CA2-Pad1)*%
X76750000Y-107225000D03*
%TD*%
D37*
%TO.P,U2,1,SW*%
%TO.N,Net-(LBST1-Pad2)*%
X55050000Y-115710000D03*
%TO.P,U2,2,GND*%
%TO.N,GND*%
X56000000Y-115710000D03*
%TO.P,U2,3,EN*%
%TO.N,Net-(Q6-Pad3)*%
X56950000Y-115710000D03*
%TO.P,U2,4,FB*%
%TO.N,Net-(RFB1-Pad2)*%
X56950000Y-112290000D03*
%TO.P,U2,5,Vout*%
%TO.N,Net-(CC4-Pad1)*%
X56000000Y-112290000D03*
%TO.P,U2,6,Vcc*%
%TO.N,Net-(CC3-Pad1)*%
X55050000Y-112290000D03*
%TD*%
D54*
%TO.P,J1,A5,CC1*%
%TO.N,Net-(J1-PadA5)*%
X29480000Y-97000000D03*
D55*
%TO.P,J1,A9,VBUS*%
%TO.N,VDD*%
X29480000Y-99020000D03*
D56*
%TO.P,J1,A12,GND*%
%TO.N,GND*%
X29480000Y-100250000D03*
D54*
%TO.P,J1,B5,CC2*%
%TO.N,Net-(J1-PadB5)*%
X29480000Y-98000000D03*
D55*
%TO.P,J1,B9,VBUS*%
%TO.N,VDD*%
X29480000Y-95980000D03*
D56*
%TO.P,J1,B12,GND*%
%TO.N,GND*%
X29480000Y-94750000D03*
D57*
%TO.P,J1,S1,SHIELD*%
X25600000Y-93180000D03*
X29400000Y-101820000D03*
X25600000Y-101820000D03*
X29400000Y-93180000D03*
%TD*%
D13*
%TO.P,J11,1,Pin_1*%
%TO.N,Net-(J11-Pad1)*%
X90000000Y-129000000D03*
%TD*%
D11*
%TO.P,RL11,1*%
%TO.N,Net-(J23-Pad1)*%
X130750000Y-119500000D03*
%TO.P,RL11,2*%
%TO.N,Net-(J24-Pad1)*%
X128750000Y-119500000D03*
%TD*%
D19*
%TO.P,RL13,1*%
%TO.N,Net-(J13-Pad1)*%
X109500000Y-119500000D03*
%TO.P,RL13,2*%
%TO.N,Net-(J14-Pad1)*%
X111500000Y-119500000D03*
%TD*%
D15*
%TO.P,R2,1*%
%TO.N,Net-(J1-PadA5)*%
X32750000Y-95750000D03*
%TO.P,R2,2*%
%TO.N,GND*%
X32750000Y-93750000D03*
%TD*%
D48*
%TO.P,RI1,1*%
%TO.N,Net-(CA1-Pad1)*%
X71000000Y-110500000D03*
%TO.P,RI1,2*%
%TO.N,Net-(Q2-Pad1)*%
X71000000Y-112500000D03*
%TD*%
D19*
%TO.P,RL20,1*%
%TO.N,Net-(J6-Pad1)*%
X42000000Y-119500000D03*
%TO.P,RL20,2*%
%TO.N,Net-(J7-Pad1)*%
X44000000Y-119500000D03*
%TD*%
D39*
%TO.P,J8,1,Pin_1*%
%TO.N,Net-(J8-Pad1)*%
X67000000Y-137000000D03*
%TD*%
D58*
%TO.N,GND*%
X32250000Y-116000000D03*
X38750000Y-108550000D03*
X75500000Y-96250000D03*
X70937500Y-106500000D03*
X57000000Y-118000000D03*
X70500000Y-96250000D03*
X85750000Y-96250000D03*
X36020000Y-87750000D03*
X41200000Y-114250000D03*
X66000000Y-112750000D03*
X37000000Y-93500000D03*
X73250000Y-117000000D03*
X54250000Y-108550000D03*
X44150000Y-100070000D03*
X27750000Y-115500000D03*
X77750000Y-96250000D03*
X33250000Y-108500000D03*
X49400000Y-100070000D03*
X129500000Y-98250000D03*
X29000000Y-105000000D03*
X38900000Y-100050000D03*
X117750000Y-90250000D03*
X65500000Y-100050000D03*
X46000000Y-117800000D03*
X41750000Y-116750000D03*
X78500000Y-112750000D03*
%TO.N,+5V*%
X48750000Y-92750000D03*
X106250000Y-104500000D03*
X83500000Y-113500000D03*
X58750000Y-100050000D03*
X67250000Y-110500000D03*
X84750000Y-109500000D03*
X71000000Y-118300000D03*
X54000000Y-105300000D03*
X30770000Y-87750000D03*
X49000000Y-108550000D03*
X27750000Y-117500000D03*
%TO.N,Net-(COS4-Pad1)*%
X56500000Y-88500000D03*
%TO.N,Net-(CC3-Pad1)*%
X53600000Y-110600000D03*
%TO.N,Net-(Q4-Pad2)*%
X57000000Y-93500000D03*
%TO.N,Net-(CC4-Pad1)*%
X65000000Y-115500000D03*
%TO.N,Net-(D1-Pad2)*%
X64000000Y-116500000D03*
%TD*%
D59*
%TO.N,GND*%
X32750000Y-116500000D02*
X34000000Y-116500000D01*
X32250000Y-116000000D02*
X32750000Y-116500000D01*
%TO.N,VDD*%
X44050000Y-115950000D02*
X44050000Y-115737500D01*
X42200000Y-117800000D02*
X44050000Y-115950000D01*
X37300000Y-117800000D02*
X42200000Y-117800000D01*
X36000000Y-116500000D02*
X37300000Y-117800000D01*
X36000000Y-113410000D02*
X36000000Y-116500000D01*
X34800000Y-112210000D02*
X36000000Y-113410000D01*
X34980000Y-99020000D02*
X35250000Y-98750000D01*
X29480000Y-99020000D02*
X34980000Y-99020000D01*
%TO.N,Net-(J1-PadB5)*%
X35000000Y-96500000D02*
X35000000Y-95750000D01*
%TO.N,Net-(J1-PadA5)*%
X32750000Y-96500000D02*
X32750000Y-95750000D01*
%TO.N,GND*%
X36750000Y-93750000D02*
X37000000Y-93500000D01*
X46000000Y-117800000D02*
X46000000Y-115787500D01*
X57200000Y-118000000D02*
X58800000Y-116400000D01*
X32475000Y-114000000D02*
X32500000Y-113975000D01*
X85750000Y-95750000D02*
X84862500Y-94862500D01*
X75500000Y-96250000D02*
X75500000Y-95750000D01*
X35770000Y-88000000D02*
X34270000Y-88000000D01*
X46000000Y-115787500D02*
X45950000Y-115737500D01*
X29480000Y-93260000D02*
X29400000Y-93180000D01*
X65000000Y-98300000D02*
X64250000Y-98300000D01*
X33250000Y-108500000D02*
X33250000Y-107750000D01*
X66000000Y-112750000D02*
X65462500Y-112212500D01*
X132024874Y-96750000D02*
X134124874Y-96750000D01*
X118600000Y-88150000D02*
X119550000Y-88150000D01*
X65462500Y-112212500D02*
X63400000Y-112212500D01*
X35239000Y-107250000D02*
X35750000Y-107761000D01*
X54250000Y-108550000D02*
X54250000Y-107800000D01*
X36020000Y-87750000D02*
X35770000Y-88000000D01*
X28812500Y-115500000D02*
X29500000Y-114812500D01*
X73250000Y-116500000D02*
X73800000Y-115950000D01*
X33250000Y-107750000D02*
X33750000Y-107250000D01*
X40487500Y-113537500D02*
X39250000Y-113537500D01*
X29480000Y-101740000D02*
X29400000Y-101820000D01*
X29480000Y-100250000D02*
X29480000Y-101740000D01*
X64250000Y-92750000D02*
X65700000Y-91300000D01*
X39500000Y-107050000D02*
X40250000Y-107050000D01*
X29480000Y-94750000D02*
X29480000Y-93260000D01*
X57000000Y-118000000D02*
X57200000Y-118000000D01*
X40750000Y-115750000D02*
X41750000Y-116750000D01*
X73250000Y-117000000D02*
X73250000Y-116500000D01*
X65500000Y-100050000D02*
X65500000Y-98800000D01*
X117750000Y-90250000D02*
X117750000Y-89000000D01*
X70937500Y-105625000D02*
X71562500Y-105000000D01*
X35000000Y-93750000D02*
X36750000Y-93750000D01*
X29800000Y-105800000D02*
X31135000Y-105800000D01*
X38900000Y-99150000D02*
X39720000Y-98330000D01*
X54250000Y-107800000D02*
X53500000Y-107050000D01*
X78637500Y-94862500D02*
X79500000Y-94862500D01*
X44720000Y-98330000D02*
X45380000Y-98330000D01*
X77750000Y-95750000D02*
X78637500Y-94862500D01*
X38750000Y-108550000D02*
X38750000Y-107800000D01*
X65500000Y-98800000D02*
X65000000Y-98300000D01*
X32750000Y-93750000D02*
X35000000Y-93750000D01*
X41200000Y-114250000D02*
X40487500Y-113537500D01*
X71387500Y-94862500D02*
X70500000Y-95750000D01*
X49400000Y-98900000D02*
X49400000Y-100070000D01*
X38900000Y-100050000D02*
X38900000Y-99150000D01*
X75500000Y-95750000D02*
X74612500Y-94862500D01*
X27750000Y-115500000D02*
X28812500Y-115500000D01*
X56600000Y-118000000D02*
X56000000Y-117400000D01*
X44150000Y-100070000D02*
X44150000Y-98900000D01*
X64250000Y-98300000D02*
X64250000Y-92750000D01*
X53500000Y-107050000D02*
X52750000Y-107050000D01*
X78500000Y-112000000D02*
X78112500Y-111612500D01*
X57000000Y-118000000D02*
X56600000Y-118000000D01*
X130600000Y-97150000D02*
X129500000Y-98250000D01*
X39720000Y-98330000D02*
X40300000Y-98330000D01*
X70937500Y-106500000D02*
X70937500Y-105625000D01*
X35750000Y-107761000D02*
X35750000Y-108790000D01*
X29000000Y-105000000D02*
X29800000Y-105800000D01*
X49970000Y-98330000D02*
X49400000Y-98900000D01*
X33750000Y-107250000D02*
X35239000Y-107250000D01*
X74612500Y-94862500D02*
X74000000Y-94862500D01*
X131624874Y-97150000D02*
X132024874Y-96750000D01*
X84862500Y-94862500D02*
X84250000Y-94862500D01*
X30312500Y-114000000D02*
X32475000Y-114000000D01*
X117750000Y-89000000D02*
X118600000Y-88150000D01*
X73800000Y-115950000D02*
X74812500Y-115950000D01*
X44150000Y-98900000D02*
X44720000Y-98330000D01*
X29500000Y-114812500D02*
X30312500Y-114000000D01*
X131624874Y-97150000D02*
X130600000Y-97150000D01*
X38750000Y-107800000D02*
X39500000Y-107050000D01*
X72000000Y-94862500D02*
X71387500Y-94862500D01*
X78112500Y-111612500D02*
X77000000Y-111612500D01*
X71562500Y-105000000D02*
X72437500Y-105000000D01*
X85750000Y-96250000D02*
X85750000Y-95750000D01*
X77750000Y-96250000D02*
X77750000Y-95750000D01*
X58800000Y-116400000D02*
X58800000Y-116200000D01*
X56000000Y-117400000D02*
X56000000Y-115710000D01*
X74000000Y-111612500D02*
X77000000Y-111612500D01*
X78500000Y-112750000D02*
X78500000Y-112000000D01*
X50460000Y-98330000D02*
X49970000Y-98330000D01*
X70500000Y-95750000D02*
X70500000Y-96250000D01*
X40000000Y-115750000D02*
X40750000Y-115750000D01*
X31135000Y-105800000D02*
X31750000Y-106415000D01*
%TO.N,+5V*%
X48250000Y-107050000D02*
X47500000Y-107050000D01*
X49000000Y-107800000D02*
X48250000Y-107050000D01*
X53250000Y-104550000D02*
X51750000Y-104550000D01*
X67250000Y-109500000D02*
X68000000Y-108750000D01*
X54000000Y-105300000D02*
X53250000Y-104550000D01*
X84750000Y-108750000D02*
X84187500Y-108187500D01*
X67250000Y-110500000D02*
X67250000Y-109500000D01*
X32500000Y-88000000D02*
X31020000Y-88000000D01*
X48750000Y-92625000D02*
X49325000Y-92050000D01*
X105250000Y-104500000D02*
X106250000Y-104500000D01*
X31020000Y-88000000D02*
X30770000Y-87750000D01*
X27750000Y-117500000D02*
X27090000Y-116840000D01*
X58750000Y-99050000D02*
X58030000Y-98330000D01*
X58030000Y-98330000D02*
X57500000Y-98330000D01*
X58750000Y-100050000D02*
X58750000Y-99050000D01*
X84187500Y-108187500D02*
X83200000Y-108187500D01*
X49000000Y-108550000D02*
X49000000Y-107800000D01*
X70200000Y-116500000D02*
X69650000Y-116500000D01*
X71000000Y-118300000D02*
X71000000Y-117300000D01*
X68000000Y-108750000D02*
X68500000Y-108750000D01*
X83500000Y-112500000D02*
X82750000Y-111750000D01*
X27090000Y-116840000D02*
X25000000Y-116840000D01*
X82750000Y-111750000D02*
X82250000Y-111750000D01*
X84750000Y-109500000D02*
X84750000Y-108750000D01*
X71000000Y-117300000D02*
X70200000Y-116500000D01*
X49325000Y-92050000D02*
X50460000Y-92050000D01*
X83500000Y-113500000D02*
X83500000Y-112500000D01*
X48750000Y-92750000D02*
X48750000Y-92625000D01*
X104250000Y-103500000D02*
X105250000Y-104500000D01*
%TO.N,VDD*%
X31750000Y-110125000D02*
X31750000Y-111500000D01*
X30000000Y-112250000D02*
X27500000Y-109750000D01*
X27500000Y-109750000D02*
X27500000Y-97054279D01*
X32500000Y-112250000D02*
X30000000Y-112250000D01*
X27500000Y-98000000D02*
X28520000Y-99020000D01*
X31750000Y-111500000D02*
X32500000Y-112250000D01*
X27500000Y-97054279D02*
X28574279Y-95980000D01*
X34760000Y-112250000D02*
X30062500Y-112250000D01*
X30062500Y-112250000D02*
X29500000Y-111687500D01*
X28574279Y-95980000D02*
X29480000Y-95980000D01*
X34800000Y-112210000D02*
X34760000Y-112250000D01*
X28520000Y-99020000D02*
X29480000Y-99020000D01*
%TO.N,Net-(CA1-Pad1)*%
X80000000Y-103000000D02*
X78750000Y-104250000D01*
X76750000Y-105775000D02*
X77231250Y-105775000D01*
X71000000Y-110500000D02*
X75725000Y-105775000D01*
X78750000Y-108137500D02*
X77000000Y-109887500D01*
X75725000Y-105775000D02*
X76750000Y-105775000D01*
X80250000Y-103000000D02*
X80000000Y-103000000D01*
X78750000Y-104250000D02*
X78750000Y-108137500D01*
X77231250Y-105775000D02*
X78750000Y-104256250D01*
%TO.N,Net-(CA2-Pad1)*%
X74000000Y-109887500D02*
X74000000Y-109862500D01*
X74000000Y-109862500D02*
X76637500Y-107225000D01*
X76637500Y-107225000D02*
X76750000Y-107225000D01*
%TO.N,Net-(J6-Pad1)*%
X43000000Y-120500000D02*
X43000000Y-129000000D01*
X42000000Y-119500000D02*
X43000000Y-120500000D01*
X32000000Y-119500000D02*
X42000000Y-119500000D01*
%TO.N,Net-(J7-Pad1)*%
X44000000Y-119500000D02*
X53500000Y-119500000D01*
X53500000Y-134500000D02*
X51000000Y-137000000D01*
X53500000Y-119500000D02*
X53500000Y-134500000D01*
%TO.N,Net-(J8-Pad1)*%
X55500000Y-119500000D02*
X62500000Y-119500000D01*
X62500000Y-132500000D02*
X67000000Y-137000000D01*
X62500000Y-119500000D02*
X62500000Y-132500000D01*
%TO.N,Net-(J10-Pad1)*%
X76000000Y-119500000D02*
X82000000Y-119500000D01*
X82000000Y-119500000D02*
X82500000Y-120000000D01*
X82500000Y-120000000D02*
X82500000Y-137000000D01*
%TO.N,Net-(J11-Pad1)*%
X90000000Y-120250000D02*
X90000000Y-129000000D01*
X89250000Y-119500000D02*
X90000000Y-120250000D01*
X84000000Y-119500000D02*
X89250000Y-119500000D01*
%TO.N,Net-(J12-Pad1)*%
X101000000Y-119500000D02*
X101000000Y-134000000D01*
X101000000Y-134000000D02*
X98000000Y-137000000D01*
X101000000Y-119500000D02*
X91250000Y-119500000D01*
%TO.N,Net-(J13-Pad1)*%
X109500000Y-119500000D02*
X103000000Y-119500000D01*
X109500000Y-119500000D02*
X109500000Y-132500000D01*
%TO.N,Net-(J14-Pad1)*%
X121095000Y-119500000D02*
X111500000Y-119500000D01*
X122000000Y-120405000D02*
X122000000Y-129000000D01*
X121095000Y-119500000D02*
X122000000Y-120405000D01*
%TO.N,Net-(J15-Pad1)*%
X210000000Y-119500000D02*
X210000000Y-134000000D01*
X210000000Y-134000000D02*
X207000000Y-137000000D01*
X210000000Y-119500000D02*
X199845000Y-119500000D01*
%TO.N,Net-(J16-Pad1)*%
X197845000Y-119500000D02*
X199000000Y-120655000D01*
X199000000Y-120655000D02*
X199000000Y-129000000D01*
X197845000Y-119500000D02*
X192750000Y-119500000D01*
%TO.N,Net-(J17-Pad1)*%
X190750000Y-119500000D02*
X185250000Y-119500000D01*
X191500000Y-120250000D02*
X191500000Y-136990000D01*
X190750000Y-119500000D02*
X191500000Y-120250000D01*
%TO.N,Net-(J18-Pad1)*%
X184000000Y-120250000D02*
X184000000Y-129000000D01*
X183250000Y-119500000D02*
X173500000Y-119500000D01*
X183250000Y-119500000D02*
X184000000Y-120250000D01*
%TO.N,Net-(J20-Pad1)*%
X163000000Y-119500000D02*
X153095000Y-119500000D01*
X163000000Y-134000000D02*
X160000000Y-137000000D01*
X163000000Y-119500000D02*
X163000000Y-134000000D01*
%TO.N,Net-(J21-Pad1)*%
X151095000Y-119500000D02*
X145595000Y-119500000D01*
X152000000Y-120405000D02*
X152000000Y-129000000D01*
X151095000Y-119500000D02*
X152000000Y-120405000D01*
%TO.N,Net-(J23-Pad1)*%
X136000000Y-119500000D02*
X130750000Y-119500000D01*
X137000000Y-120500000D02*
X137000000Y-129000000D01*
X136000000Y-119500000D02*
X137000000Y-120500000D01*
%TO.N,Net-(J24-Pad1)*%
X129500000Y-120250000D02*
X129500000Y-137000000D01*
X128750000Y-119500000D02*
X129500000Y-120250000D01*
X128750000Y-119500000D02*
X123095000Y-119500000D01*
%TO.N,Net-(CHB1-Pad1)*%
X84250000Y-93137500D02*
X84250000Y-92750000D01*
X81000000Y-89500000D02*
X81000000Y-88396360D01*
X84250000Y-92750000D02*
X81000000Y-89500000D01*
%TO.N,RESISTOR_MODULE*%
X64570000Y-109520000D02*
X64345000Y-109520000D01*
X61573000Y-102860999D02*
X62933999Y-101500000D01*
X66750000Y-96500000D02*
X68000000Y-96500000D01*
X62933999Y-101500000D02*
X65500000Y-101500000D01*
X61573000Y-106748000D02*
X61573000Y-102860999D01*
X64570000Y-109570000D02*
X64570000Y-109520000D01*
X203750000Y-117750000D02*
X72750000Y-117750000D01*
X81000000Y-95250000D02*
X81000000Y-92396360D01*
X81000000Y-92396360D02*
X77000000Y-88396360D01*
X65500000Y-101500000D02*
X69250000Y-97750000D01*
X78500000Y-97750000D02*
X81000000Y-95250000D01*
X69250000Y-97750000D02*
X78500000Y-97750000D01*
X68000000Y-96500000D02*
X69250000Y-97750000D01*
X64345000Y-109520000D02*
X61573000Y-106748000D01*
X69500000Y-97750000D02*
X78500000Y-97750000D01*
X72750000Y-117750000D02*
X64570000Y-109570000D01*
%TO.N,Net-(J5-Pad1)*%
X30000000Y-132000000D02*
X35000000Y-137000000D01*
X30000000Y-119500000D02*
X30000000Y-132000000D01*
%TO.N,Net-(J9-Pad1)*%
X74000000Y-119500000D02*
X75000000Y-120500000D01*
X75000000Y-120500000D02*
X75000000Y-129000000D01*
X64500000Y-119500000D02*
X74000000Y-119500000D01*
%TO.N,Net-(CLB1-Pad2)*%
X74000000Y-93137500D02*
X73000000Y-92137500D01*
X73000000Y-92137500D02*
X73000000Y-88396360D01*
X72000000Y-93137500D02*
X73000000Y-92137500D01*
%TO.N,Net-(CMB1-Pad1)*%
X75000000Y-89250000D02*
X78887500Y-93137500D01*
X75000000Y-88396360D02*
X75000000Y-89250000D01*
X78887500Y-93137500D02*
X79500000Y-93137500D01*
D60*
%TO.N,Net-(J19-Pad1)*%
X176000000Y-137000000D02*
X171500000Y-132500000D01*
D59*
X171500000Y-119500000D02*
X165000000Y-119500000D01*
D60*
X171500000Y-132500000D02*
X171500000Y-119500000D01*
D59*
%TO.N,Net-(J22-Pad1)*%
X143595000Y-119500000D02*
X138000000Y-119500000D01*
X143595000Y-119500000D02*
X144500000Y-120405000D01*
X144500000Y-137000000D02*
X144500000Y-120405000D01*
%TO.N,Net-(CMX1-Pad1)*%
X51562500Y-102362500D02*
X51750000Y-102550000D01*
X59250000Y-101250000D02*
X60000000Y-100500000D01*
X57457500Y-101250000D02*
X59250000Y-101250000D01*
X60000000Y-100500000D02*
X60000000Y-96500000D01*
X45750000Y-102362500D02*
X51562500Y-102362500D01*
X51750000Y-102550000D02*
X52750000Y-103550000D01*
X52750000Y-103550000D02*
X55157500Y-103550000D01*
X55157500Y-103550000D02*
X57457500Y-101250000D01*
%TO.N,Net-(CMX1-Pad2)*%
X58282500Y-103550000D02*
X60500000Y-103550000D01*
%TO.N,Net-(COS1-Pad1)*%
X41862500Y-93862500D02*
X54312500Y-93862500D01*
X52460000Y-91750000D02*
X52460000Y-92010000D01*
X38490693Y-95799856D02*
X37000000Y-97290549D01*
X38490693Y-95799856D02*
X40428049Y-93862500D01*
X37000000Y-102384307D02*
X38665693Y-104050000D01*
X39000000Y-91000000D02*
X41862500Y-93862500D01*
X54312500Y-93862500D02*
X55500000Y-93862500D01*
X36750000Y-91000000D02*
X39000000Y-91000000D01*
X37000000Y-97290549D02*
X37000000Y-102384307D01*
X40428049Y-93862500D02*
X54312500Y-93862500D01*
X52460000Y-92010000D02*
X54312500Y-93862500D01*
%TO.N,Net-(COS1-Pad2)*%
X42300000Y-96599712D02*
X42300000Y-98330000D01*
X41500144Y-95799856D02*
X43872644Y-95799856D01*
X41500144Y-95799856D02*
X42300000Y-96599712D01*
X43872644Y-95799856D02*
X43882500Y-95790000D01*
X41500144Y-95799856D02*
X40565693Y-95799856D01*
%TO.N,Net-(COS2-Pad2)*%
X47380000Y-96410000D02*
X47380000Y-98330000D01*
X46760000Y-95790000D02*
X48962500Y-95790000D01*
X45957500Y-95790000D02*
X46760000Y-95790000D01*
X46760000Y-95790000D02*
X47380000Y-96410000D01*
%TO.N,Net-(COS3-Pad2)*%
X52990000Y-95790000D02*
X54030000Y-96830000D01*
X51037500Y-95790000D02*
X51990000Y-95790000D01*
X55500000Y-98330000D02*
X55670000Y-98330000D01*
X52460000Y-98330000D02*
X54030000Y-98330000D01*
X55750000Y-90500000D02*
X45853640Y-90500000D01*
X54030000Y-98330000D02*
X55500000Y-98330000D01*
X51990000Y-95790000D02*
X52990000Y-95790000D01*
X45853640Y-90500000D02*
X43750000Y-88396360D01*
X51990000Y-95790000D02*
X54497500Y-95790000D01*
X54497500Y-95790000D02*
X54550000Y-95737500D01*
X58250000Y-93000000D02*
X55750000Y-90500000D01*
X55670000Y-98330000D02*
X58250000Y-95750000D01*
X54030000Y-96830000D02*
X54030000Y-98330000D01*
X58250000Y-95750000D02*
X58250000Y-93000000D01*
%TO.N,Net-(COS4-Pad1)*%
X60300000Y-91300000D02*
X62250000Y-93250000D01*
X56500000Y-88500000D02*
X57500000Y-88500000D01*
X57500000Y-88500000D02*
X60300000Y-91300000D01*
X62250000Y-93250000D02*
X62250000Y-98300000D01*
%TO.N,Net-(COS5-Pad2)*%
X42000000Y-104050000D02*
X44000000Y-106050000D01*
X40390693Y-104050000D02*
X42250000Y-104050000D01*
X44612500Y-104050000D02*
X44800000Y-104237500D01*
X44000000Y-106050000D02*
X44000000Y-107050000D01*
X42250000Y-104050000D02*
X44612500Y-104050000D01*
X42250000Y-107050000D02*
X45500000Y-107050000D01*
%TO.N,Net-(CC3-Pad1)*%
X53600000Y-110600000D02*
X53400000Y-110400000D01*
X39437500Y-110437500D02*
X41000000Y-112000000D01*
X39250000Y-110437500D02*
X39437500Y-110437500D01*
X34800000Y-109819000D02*
X35231000Y-110250000D01*
X42200000Y-112000000D02*
X42600000Y-111600000D01*
X55050000Y-112290000D02*
X50565000Y-112290000D01*
X34800000Y-108790000D02*
X34800000Y-109819000D01*
X43800000Y-110400000D02*
X48425000Y-110400000D01*
X43800000Y-110400000D02*
X42600000Y-111600000D01*
X113300000Y-103500000D02*
X129274874Y-103500000D01*
X53400000Y-110400000D02*
X48425000Y-110400000D01*
X50565000Y-112290000D02*
X50250000Y-111975000D01*
X48425000Y-110400000D02*
X50000000Y-111975000D01*
X39062500Y-110250000D02*
X39250000Y-110437500D01*
X41000000Y-112000000D02*
X42200000Y-112000000D01*
X35231000Y-110250000D02*
X39062500Y-110250000D01*
%TO.N,Net-(DFB1-Pad1)*%
X124000000Y-100500000D02*
X130650000Y-93850000D01*
X130650000Y-93850000D02*
X131624874Y-93850000D01*
X132024874Y-94250000D02*
X134124874Y-94250000D01*
X124000000Y-101550000D02*
X124000000Y-100500000D01*
X131624874Y-93850000D02*
X132024874Y-94250000D01*
%TO.N,Net-(J1-PadA5)*%
X29480000Y-97000000D02*
X32250000Y-97000000D01*
X32250000Y-97000000D02*
X32750000Y-96500000D01*
%TO.N,Net-(J1-PadB5)*%
X33500000Y-98000000D02*
X35000000Y-96500000D01*
X29480000Y-98000000D02*
X33500000Y-98000000D01*
%TO.N,Net-(Q2-Pad1)*%
X71000000Y-112500000D02*
X72550000Y-114050000D01*
X72550000Y-114050000D02*
X74812500Y-114050000D01*
%TO.N,Net-(Q2-Pad3)*%
X81250000Y-115000000D02*
X81500000Y-115250000D01*
X110125000Y-98500000D02*
X112000000Y-100375000D01*
X80250000Y-106004000D02*
X82531000Y-103723000D01*
X76687500Y-115000000D02*
X78750000Y-115000000D01*
X95277000Y-103723000D02*
X100500000Y-98500000D01*
X78750000Y-115000000D02*
X81250000Y-115000000D01*
X80250000Y-113500000D02*
X80250000Y-106004000D01*
X78750000Y-115000000D02*
X80250000Y-113500000D01*
X82531000Y-103723000D02*
X95277000Y-103723000D01*
X100500000Y-98500000D02*
X110125000Y-98500000D01*
%TO.N,Net-(Q3-Pad1)*%
X96500000Y-103750000D02*
X101000000Y-99250000D01*
X96000000Y-104250000D02*
X96500000Y-103750000D01*
X100000000Y-103000000D02*
X97250000Y-103000000D01*
X95750000Y-104500000D02*
X96000000Y-104250000D01*
X101000000Y-99250000D02*
X108375000Y-99250000D01*
X97250000Y-103000000D02*
X96000000Y-104250000D01*
X108375000Y-99250000D02*
X109500000Y-100375000D01*
X82650420Y-104500000D02*
X95750000Y-104500000D01*
X97250000Y-103000000D02*
X96500000Y-103750000D01*
X81300000Y-108187500D02*
X81300000Y-105850420D01*
X81300000Y-105850420D02*
X82650420Y-104500000D01*
%TO.N,Net-(Q4-Pad2)*%
X57000000Y-95187500D02*
X56450000Y-95737500D01*
X57000000Y-93500000D02*
X57000000Y-95187500D01*
%TO.N,Net-(Q5-Pad2)*%
X47937500Y-104237500D02*
X50750000Y-107050000D01*
X46700000Y-104237500D02*
X47937500Y-104237500D01*
%TO.N,Net-(RFD1-Pad2)*%
X105375000Y-100375000D02*
X107000000Y-100375000D01*
X104250000Y-101500000D02*
X105375000Y-100375000D01*
%TO.N,Net-(RL1-Pad2)*%
X210265679Y-117765679D02*
X212000000Y-119500000D01*
D60*
X205765679Y-117765679D02*
X205750000Y-117750000D01*
D59*
X205765679Y-117765679D02*
X210265679Y-117765679D01*
%TO.N,VIB_SIG*%
X80500000Y-98750000D02*
X69500000Y-98750000D01*
X63800000Y-102250000D02*
X62500000Y-103550000D01*
X64570000Y-108250000D02*
X67000000Y-108250000D01*
X64000000Y-108250000D02*
X64570000Y-108250000D01*
X62500000Y-106750000D02*
X64000000Y-108250000D01*
X66000000Y-102250000D02*
X63800000Y-102250000D01*
X70000000Y-100500000D02*
X68000000Y-100500000D01*
X62500000Y-103550000D02*
X62500000Y-106750000D01*
X67000000Y-108250000D02*
X68500000Y-106750000D01*
X68000000Y-100500000D02*
X67875000Y-100375000D01*
X67875000Y-100375000D02*
X66000000Y-102250000D01*
X69500000Y-98750000D02*
X67875000Y-100375000D01*
%TO.N,Net-(RP2-Pad2)*%
X83000000Y-98750000D02*
X89625000Y-98750000D01*
X89625000Y-98750000D02*
X91250000Y-100375000D01*
%TO.N,Net-(CC4-Pad1)*%
X56287000Y-110963000D02*
X56000000Y-111250000D01*
X58713000Y-110963000D02*
X56287000Y-110963000D01*
X24000000Y-106000000D02*
X24000000Y-93000000D01*
X28300252Y-92199748D02*
X30250000Y-90250000D01*
X64562500Y-115062500D02*
X62812500Y-115062500D01*
X56000000Y-111250000D02*
X56000000Y-112290000D01*
X65000000Y-115500000D02*
X64562500Y-115062500D01*
X62812500Y-115062500D02*
X60000000Y-112250000D01*
X24800252Y-92199748D02*
X28300252Y-92199748D01*
X25500000Y-107500000D02*
X24000000Y-106000000D01*
X60000000Y-112250000D02*
X58713000Y-110963000D01*
X24000000Y-93000000D02*
X24800252Y-92199748D01*
%TO.N,Net-(DAT1-Pad2)*%
X76950000Y-103000000D02*
X78700000Y-101250000D01*
X65770000Y-106980000D02*
X69750000Y-103000000D01*
X72437500Y-103000000D02*
X76950000Y-103000000D01*
X78700000Y-101250000D02*
X85000000Y-101250000D01*
X69750000Y-103000000D02*
X72437500Y-103000000D01*
X64570000Y-106980000D02*
X65770000Y-106980000D01*
%TO.N,Net-(D1-Pad2)*%
X64000000Y-116500000D02*
X66350000Y-116500000D01*
%TO.N,Net-(LBST1-Pad2)*%
X50435000Y-115710000D02*
X55050000Y-115710000D01*
%TO.N,Net-(Q6-Pad3)*%
X56069000Y-113800000D02*
X45062500Y-113800000D01*
X56950000Y-114681000D02*
X56069000Y-113800000D01*
X45062500Y-113800000D02*
X45000000Y-113862500D01*
X46800000Y-113800000D02*
X44600000Y-111600000D01*
X56950000Y-115710000D02*
X56950000Y-114681000D01*
%TO.N,Net-(RBS1-Pad2)*%
X36700000Y-105200000D02*
X36700000Y-108790000D01*
X35000000Y-102500000D02*
X34500000Y-102000000D01*
X35000000Y-103500000D02*
X35000000Y-102500000D01*
X35750000Y-104250000D02*
X36700000Y-105200000D01*
X35750000Y-104250000D02*
X35000000Y-103500000D01*
%TO.N,Net-(RFB1-Pad2)*%
X60000000Y-114250000D02*
X58040000Y-112290000D01*
X60000000Y-114250000D02*
X60800000Y-115050000D01*
X60800000Y-115050000D02*
X60800000Y-116200000D01*
X58040000Y-112290000D02*
X56950000Y-112290000D01*
%TO.N,Net-(RPG1-Pad1)*%
X38000000Y-115750000D02*
X36700000Y-114450000D01*
X36700000Y-114450000D02*
X36700000Y-112210000D01*
%TO.N,Net-(LED1-Pad1)*%
X33750000Y-106375000D02*
X33750000Y-104250000D01*
X31750000Y-108375000D02*
X33750000Y-106375000D01*
%TO.N,Net-(LED2-Pad2)*%
X31750000Y-104665000D02*
X32500000Y-103915000D01*
X32500000Y-103915000D02*
X32500000Y-102000000D01*
%TO.N,Net-(J28-Pad2)*%
X123850000Y-93250000D02*
X123850000Y-93150000D01*
X108750000Y-105500000D02*
X83062500Y-105500000D01*
X123850000Y-93150000D02*
X126950000Y-90050000D01*
X108750000Y-105500000D02*
X116700000Y-97550000D01*
X119550000Y-97550000D02*
X123850000Y-93250000D01*
X83062500Y-105500000D02*
X82250000Y-106312500D01*
X116700000Y-97550000D02*
X119550000Y-97550000D01*
%TD*%
M02*
